M48
;GenerationSoftware,Autodesk,EAGLE,9.3.2*%
;CreationDate,2019-05-25T20:17:14Z*%
FMAT,2
ICI,OFF
METRIC,TZ,000.000
T11C0.350
T10C0.730
T9C0.813
T8C1.000
T7C1.016
T6C1.110
T5C1.194
T4C1.650
T3C2.794
T2C2.800
T1C2.997
%
G90
M71
T1
X12572Y80740
X17272Y83740
X17272Y77740
T2
X17473Y27756
X17473Y4756
X75473Y4756
X75473Y27756
T3
X88900Y2540
X2540Y2540
X2540Y88900
X88900Y88900
T4
X17272Y71120
X22772Y71120
T5
X39116Y84562
X34116Y84562
X59864Y84562
X49864Y84562
X44116Y84562
X54864Y84562
T6
X42663Y28716
X45203Y26176
X45203Y28716
X47743Y26176
X47743Y28716
X50283Y26176
X50283Y28716
X52823Y26176
X52823Y28716
X57903Y26176
X55363Y26176
X55363Y28716
X37583Y26176
X27423Y28716
X29963Y26176
X29963Y28716
X70603Y21096
X68063Y21096
X68063Y23636
X70603Y23636
X70603Y28716
X70603Y26176
X68063Y28716
X68063Y26176
X65523Y28716
X65523Y26176
X62983Y28716
X62983Y26176
X60443Y28716
X32503Y26176
X57903Y28716
X32503Y28716
X35043Y26176
X35043Y28716
X37583Y28716
X40123Y26176
X60443Y26176
X40123Y28716
X42663Y26176
X22343Y26176
X22343Y28716
X24883Y26176
X24883Y28716
X27423Y26176
T7
X6604Y46736
X6604Y49276
X6604Y51816
X6604Y54356
X11176Y69088
X11176Y71628
X6604Y42672
X6604Y40132
X6604Y37592
X6604Y35052
X6604Y32512
X6604Y29972
T8
X17780Y58302
X20320Y58302
X22860Y58302
T9
X86106Y77470
X86106Y6858
X86106Y9398
X86106Y11938
X86106Y14478
X86106Y17018
X86106Y24130
X86106Y26670
X86106Y29210
X86106Y80010
X86106Y31750
X86106Y34290
X86106Y40894
X86106Y43434
X86106Y45974
X86106Y48514
X86106Y51054
X86106Y58166
X86106Y60706
X86106Y63246
X86106Y82550
X86106Y85090
X11176Y55880
X86106Y65786
X86106Y68326
X86106Y74930
X18288Y65024
X23368Y65024
X22860Y47244
X17780Y47244
X11176Y66040
T10
X48260Y78138
X40640Y70198
X43180Y78138
X40640Y78138
X43180Y70198
X45720Y70198
X50800Y70198
X45720Y78138
X53340Y70198
X55880Y70198
X55880Y78138
X53340Y78138
X50800Y78138
X48260Y70198
T11
X49784Y88392
X81026Y65786
X82296Y68326
X82296Y51054
X82296Y34290
X82296Y17018
X82296Y84836
X34036Y88392
X65532Y23876
X82296Y14478
X60452Y23876
X81026Y31750
X65532Y30988
X81026Y48514
X60452Y30988
X52832Y30988
X81026Y82550
X42672Y30988
X83820Y77470
X83820Y43434
X83820Y26670
X25400Y73660
X39116Y80772
X44196Y72644
X22860Y59944
X83820Y9398
X35052Y30988
X50800Y68072
X22352Y23876
X20320Y30988
X83820Y60706
X42672Y23876
X22352Y20828
X8636Y46736
X43180Y68072
X8636Y42672
X8636Y32512
X40640Y68072
X8636Y40132
X22352Y19812
X8636Y35052
X22352Y17780
X54864Y80772
X53340Y72136
X8636Y37592
X22352Y18796
X8636Y49276
X22352Y22860
X22352Y21844
X22352Y16764
M30