G04 EAGLE Gerber RS-274X export*
G75*
%MOMM*%
%FSLAX34Y34*%
%LPD*%
%INTop Copper*%
%IPPOS*%
%AMOC8*
5,1,8,0,0,1.08239X$1,22.5*%
G01*
%ADD10R,1.665000X1.665000*%
%ADD11C,1.665000*%
%ADD12C,1.320800*%
%ADD13R,1.238000X1.238000*%
%ADD14C,1.238000*%
%ADD15C,1.508000*%
%ADD16C,4.318000*%
%ADD17C,1.790700*%
%ADD18P,1.429621X8X22.500000*%
%ADD19P,1.429621X8X202.500000*%
%ADD20R,2.475000X2.475000*%
%ADD21C,2.475000*%
%ADD22C,1.879600*%
%ADD23P,1.429621X8X292.500000*%
%ADD24C,0.756400*%
%ADD25C,0.609600*%
%ADD26C,1.270000*%


D10*
X223430Y261760D03*
D11*
X223430Y287160D03*
X248830Y261760D03*
X248830Y287160D03*
X274230Y261760D03*
X274230Y287160D03*
X299630Y261760D03*
X299630Y287160D03*
X325030Y261760D03*
X325030Y287160D03*
X350430Y261760D03*
X350430Y287160D03*
X375830Y261760D03*
X375830Y287160D03*
X401230Y261760D03*
X401230Y287160D03*
X426630Y261760D03*
X426630Y287160D03*
X452030Y261760D03*
X452030Y287160D03*
X477430Y261760D03*
X477430Y287160D03*
X502830Y261760D03*
X502830Y287160D03*
X528230Y261760D03*
X528230Y287160D03*
X553630Y261760D03*
X553630Y287160D03*
X579030Y261760D03*
X579030Y287160D03*
X604430Y261760D03*
X604430Y287160D03*
X629830Y261760D03*
X629830Y287160D03*
X655230Y261760D03*
X655230Y287160D03*
X680630Y261760D03*
X680630Y287160D03*
X706030Y261760D03*
X706030Y287160D03*
D10*
X706030Y236360D03*
D11*
X680630Y236360D03*
D10*
X680630Y210960D03*
D11*
X706030Y210960D03*
D12*
X854456Y68580D02*
X867664Y68580D01*
X867664Y93980D02*
X854456Y93980D01*
X854456Y119380D02*
X867664Y119380D01*
X867664Y144780D02*
X854456Y144780D01*
X854456Y170180D02*
X867664Y170180D01*
X867664Y241300D02*
X854456Y241300D01*
X854456Y266700D02*
X867664Y266700D01*
X867664Y292100D02*
X854456Y292100D01*
X854456Y317500D02*
X867664Y317500D01*
X867664Y342900D02*
X854456Y342900D01*
X854456Y408940D02*
X867664Y408940D01*
X867664Y434340D02*
X854456Y434340D01*
X854456Y459740D02*
X867664Y459740D01*
X867664Y485140D02*
X854456Y485140D01*
X854456Y510540D02*
X867664Y510540D01*
X867664Y581660D02*
X854456Y581660D01*
X854456Y607060D02*
X867664Y607060D01*
X867664Y632460D02*
X854456Y632460D01*
X854456Y657860D02*
X867664Y657860D01*
X867664Y683260D02*
X854456Y683260D01*
X854456Y749300D02*
X867664Y749300D01*
X867664Y774700D02*
X854456Y774700D01*
X854456Y800100D02*
X867664Y800100D01*
X867664Y825500D02*
X854456Y825500D01*
X854456Y850900D02*
X867664Y850900D01*
D13*
X406400Y701980D03*
D14*
X431800Y701980D03*
X457200Y701980D03*
X482600Y701980D03*
X508000Y701980D03*
X533400Y701980D03*
X558800Y701980D03*
X558800Y781380D03*
X533400Y781380D03*
X508000Y781380D03*
X482600Y781380D03*
X457200Y781380D03*
X431800Y781380D03*
X406400Y781380D03*
D15*
X177800Y583020D03*
X203200Y583020D03*
X228600Y583020D03*
D16*
X172720Y777400D03*
X172720Y837400D03*
X125720Y807400D03*
D17*
X341160Y836667D02*
X341160Y854574D01*
X391160Y854574D02*
X391160Y836667D01*
X441160Y836667D02*
X441160Y854574D01*
X498640Y854574D02*
X498640Y836667D01*
X548640Y836667D02*
X548640Y854574D01*
X598640Y854574D02*
X598640Y836667D01*
D18*
X182880Y650240D03*
X233680Y650240D03*
D19*
X228600Y472440D03*
X177800Y472440D03*
D20*
X172720Y711200D03*
D21*
X227720Y711200D03*
D22*
X66040Y467360D03*
X66040Y492760D03*
X66040Y518160D03*
X66040Y543560D03*
X111760Y690880D03*
X111760Y716280D03*
D23*
X111760Y660400D03*
X111760Y558800D03*
D22*
X66040Y426720D03*
X66040Y401320D03*
X66040Y375920D03*
X66040Y350520D03*
X66040Y325120D03*
X66040Y299720D03*
D24*
X822960Y683260D03*
X822960Y510540D03*
X822960Y342900D03*
X822960Y170180D03*
D25*
X822960Y342900D02*
X822960Y510540D01*
X822960Y342900D02*
X822960Y170180D01*
X822960Y510540D02*
X822960Y683260D01*
X822960Y848360D01*
D24*
X822960Y848360D03*
D25*
X655320Y203200D02*
X688340Y170180D01*
X822960Y170180D01*
D24*
X655320Y238760D03*
D25*
X655320Y203200D01*
X673230Y144780D02*
X822960Y144780D01*
D24*
X822960Y144780D03*
D25*
X673230Y144780D02*
X604520Y221343D01*
D24*
X604520Y238760D03*
D25*
X604520Y221343D01*
D24*
X810260Y317500D03*
D25*
X810260Y342900D01*
X807720Y345440D01*
D24*
X655320Y309880D03*
D25*
X655320Y314960D01*
X685800Y345440D01*
X807720Y345440D01*
D24*
X810260Y485140D03*
X604520Y309880D03*
D25*
X779780Y485140D02*
X810260Y485140D01*
X779780Y485140D02*
X604520Y309880D01*
D24*
X810260Y657860D03*
D25*
X810260Y652780D01*
X787400Y629920D01*
X787400Y518160D02*
X614680Y345440D01*
X787400Y518160D02*
X787400Y629920D01*
D24*
X528320Y309880D03*
D25*
X563880Y345440D01*
X614680Y345440D01*
D24*
X810260Y825500D03*
X426720Y309880D03*
D25*
X477520Y360680D01*
X604520Y360680D01*
X772160Y528320D01*
X810260Y744220D02*
X810260Y825500D01*
X772160Y706120D02*
X772160Y528320D01*
X772160Y706120D02*
X810260Y744220D01*
X838200Y266700D02*
X838200Y127000D01*
X838200Y93980D01*
X838200Y266700D02*
X838200Y434340D01*
X838200Y607060D01*
D24*
X838200Y774700D03*
X838200Y434340D03*
X838200Y266700D03*
X838200Y93980D03*
D25*
X838200Y607060D02*
X838200Y774700D01*
D24*
X838200Y607060D03*
X223520Y238760D03*
D25*
X426720Y238760D01*
D24*
X426720Y238760D03*
D25*
X538480Y127000D01*
X838200Y127000D01*
D24*
X223520Y208280D03*
D25*
X177800Y208280D01*
X127000Y259080D01*
X127000Y386080D02*
X86360Y426720D01*
X127000Y386080D02*
X127000Y259080D01*
D24*
X86360Y426720D03*
D25*
X203200Y320040D02*
X243840Y360680D01*
D24*
X431800Y680720D03*
D25*
X330200Y360680D02*
X243840Y360680D01*
X330200Y360680D02*
X431800Y462280D01*
X431800Y680720D01*
D24*
X203200Y309880D03*
D25*
X203200Y320040D01*
D24*
X508000Y680720D03*
X350520Y309880D03*
D25*
X508000Y467360D01*
X508000Y680720D01*
D24*
X406400Y680720D03*
D25*
X375920Y650240D01*
X279400Y650240D02*
X228600Y599440D01*
X279400Y650240D02*
X375920Y650240D01*
D24*
X228600Y599440D03*
X441960Y726440D03*
D25*
X421640Y746760D01*
X396240Y746760D01*
X381000Y762000D01*
X381000Y797560D02*
X391160Y807720D01*
X381000Y797560D02*
X381000Y762000D01*
D24*
X391160Y807720D03*
X254000Y736600D03*
D26*
X254000Y817880D01*
X320040Y883920D01*
X340360Y883920D01*
X497840Y883920D01*
D24*
X340360Y883920D03*
X497840Y883920D03*
X533400Y721360D03*
X548640Y807720D03*
D25*
X558800Y721360D02*
X533400Y721360D01*
X558800Y721360D02*
X589280Y751840D01*
X589280Y782320D01*
X563880Y807720D01*
X548640Y807720D01*
D24*
X86360Y467360D03*
D25*
X137160Y416560D01*
X137160Y264160D02*
X182880Y218440D01*
X137160Y264160D02*
X137160Y416560D01*
X182880Y218440D02*
X223520Y218440D01*
D24*
X223520Y218440D03*
X223520Y228600D03*
X86360Y492760D03*
D25*
X147522Y431598D01*
X147522Y266290D01*
X185212Y228600D01*
X223520Y228600D01*
D24*
X223520Y187960D03*
D25*
X167640Y187960D02*
X106680Y248920D01*
X167640Y187960D02*
X223520Y187960D01*
X106680Y355600D02*
X86360Y375920D01*
X106680Y355600D02*
X106680Y248920D01*
D24*
X86360Y375920D03*
X223520Y177800D03*
D25*
X162560Y177800D01*
X96520Y243840D01*
X96520Y340360D01*
X86360Y350520D01*
D24*
X86360Y350520D03*
X223520Y198120D03*
D25*
X116840Y253384D02*
X116840Y370840D01*
X86360Y401320D01*
X172104Y198120D02*
X223520Y198120D01*
X172104Y198120D02*
X116840Y253384D01*
D24*
X86360Y401320D03*
X223520Y167640D03*
D25*
X157480Y167640D01*
X86360Y238760D01*
X86360Y325120D01*
D24*
X86360Y325120D03*
M02*
