G04 EAGLE Gerber RS-274X export*
G75*
%MOMM*%
%FSLAX34Y34*%
%LPD*%
%INBottom Copper*%
%IPPOS*%
%AMOC8*
5,1,8,0,0,1.08239X$1,22.5*%
G01*
%ADD10R,1.665000X1.665000*%
%ADD11C,1.665000*%
%ADD12C,1.320800*%
%ADD13R,1.238000X1.238000*%
%ADD14C,1.238000*%
%ADD15C,1.508000*%
%ADD16C,4.318000*%
%ADD17C,1.790700*%
%ADD18P,1.429621X8X22.500000*%
%ADD19P,1.429621X8X202.500000*%
%ADD20R,2.475000X2.475000*%
%ADD21C,2.475000*%
%ADD22C,1.879600*%
%ADD23P,1.429621X8X292.500000*%
%ADD24C,0.756400*%
%ADD25C,0.609600*%
%ADD26C,1.270000*%

G36*
X866562Y10175D02*
X866562Y10175D01*
X866708Y10182D01*
X866762Y10195D01*
X866817Y10201D01*
X866957Y10244D01*
X867099Y10279D01*
X867149Y10302D01*
X867202Y10319D01*
X867331Y10388D01*
X867463Y10451D01*
X867507Y10484D01*
X867556Y10511D01*
X867668Y10604D01*
X867786Y10691D01*
X867823Y10733D01*
X867865Y10768D01*
X867957Y10882D01*
X868055Y10991D01*
X868083Y11039D01*
X868118Y11082D01*
X868185Y11212D01*
X868259Y11338D01*
X868278Y11390D01*
X868303Y11439D01*
X868344Y11580D01*
X868392Y11718D01*
X868399Y11773D01*
X868414Y11826D01*
X868426Y11972D01*
X868446Y12117D01*
X868443Y12172D01*
X868447Y12228D01*
X868430Y12373D01*
X868421Y12519D01*
X868407Y12572D01*
X868400Y12627D01*
X868355Y12766D01*
X868317Y12908D01*
X868290Y12965D01*
X868276Y13010D01*
X868234Y13083D01*
X868176Y13208D01*
X866514Y16086D01*
X864869Y22223D01*
X864869Y28577D01*
X866514Y34714D01*
X869691Y40217D01*
X874183Y44709D01*
X879686Y47886D01*
X885823Y49531D01*
X892177Y49531D01*
X898314Y47886D01*
X900432Y46663D01*
X900566Y46603D01*
X900695Y46536D01*
X900749Y46520D01*
X900799Y46497D01*
X900942Y46465D01*
X901082Y46424D01*
X901138Y46420D01*
X901192Y46407D01*
X901338Y46403D01*
X901484Y46391D01*
X901539Y46398D01*
X901594Y46396D01*
X901738Y46421D01*
X901883Y46438D01*
X901936Y46456D01*
X901991Y46465D01*
X902127Y46518D01*
X902266Y46563D01*
X902315Y46590D01*
X902366Y46611D01*
X902489Y46689D01*
X902617Y46761D01*
X902659Y46797D01*
X902706Y46827D01*
X902811Y46929D01*
X902922Y47024D01*
X902955Y47068D01*
X902996Y47107D01*
X903079Y47227D01*
X903168Y47342D01*
X903193Y47392D01*
X903225Y47438D01*
X903282Y47572D01*
X903348Y47703D01*
X903362Y47756D01*
X903384Y47807D01*
X903414Y47950D01*
X903452Y48092D01*
X903457Y48155D01*
X903467Y48201D01*
X903468Y48285D01*
X903479Y48422D01*
X903479Y865978D01*
X903465Y866123D01*
X903458Y866269D01*
X903445Y866323D01*
X903439Y866378D01*
X903396Y866518D01*
X903361Y866660D01*
X903338Y866710D01*
X903321Y866763D01*
X903252Y866892D01*
X903189Y867024D01*
X903156Y867068D01*
X903129Y867117D01*
X903036Y867229D01*
X902949Y867347D01*
X902907Y867384D01*
X902872Y867426D01*
X902758Y867518D01*
X902649Y867616D01*
X902601Y867644D01*
X902558Y867679D01*
X902428Y867746D01*
X902302Y867821D01*
X902250Y867839D01*
X902201Y867864D01*
X902060Y867905D01*
X901922Y867953D01*
X901867Y867960D01*
X901814Y867976D01*
X901668Y867988D01*
X901523Y868008D01*
X901468Y868004D01*
X901412Y868009D01*
X901267Y867992D01*
X901121Y867982D01*
X901068Y867968D01*
X901013Y867962D01*
X900874Y867916D01*
X900732Y867879D01*
X900675Y867852D01*
X900630Y867837D01*
X900557Y867796D01*
X900432Y867737D01*
X898314Y866514D01*
X892177Y864869D01*
X885823Y864869D01*
X879686Y866514D01*
X874183Y869691D01*
X869691Y874183D01*
X866514Y879686D01*
X864869Y885823D01*
X864869Y892177D01*
X866514Y898314D01*
X869584Y903632D01*
X869644Y903766D01*
X869712Y903895D01*
X869727Y903949D01*
X869750Y903999D01*
X869783Y904142D01*
X869823Y904282D01*
X869828Y904338D01*
X869840Y904392D01*
X869844Y904538D01*
X869856Y904684D01*
X869850Y904739D01*
X869851Y904794D01*
X869826Y904938D01*
X869809Y905083D01*
X869792Y905136D01*
X869783Y905191D01*
X869730Y905327D01*
X869684Y905466D01*
X869657Y905515D01*
X869637Y905566D01*
X869558Y905689D01*
X869486Y905817D01*
X869450Y905859D01*
X869420Y905906D01*
X869319Y906011D01*
X869223Y906122D01*
X869179Y906156D01*
X869141Y906196D01*
X869021Y906279D01*
X868905Y906368D01*
X868856Y906393D01*
X868810Y906425D01*
X868676Y906483D01*
X868545Y906548D01*
X868491Y906562D01*
X868440Y906584D01*
X868297Y906614D01*
X868156Y906652D01*
X868093Y906657D01*
X868046Y906667D01*
X867962Y906668D01*
X867825Y906679D01*
X46575Y906679D01*
X46429Y906665D01*
X46283Y906658D01*
X46229Y906645D01*
X46174Y906639D01*
X46034Y906596D01*
X45893Y906561D01*
X45842Y906538D01*
X45789Y906521D01*
X45661Y906452D01*
X45529Y906389D01*
X45484Y906356D01*
X45435Y906329D01*
X45323Y906236D01*
X45206Y906149D01*
X45169Y906107D01*
X45126Y906072D01*
X45034Y905958D01*
X44937Y905849D01*
X44908Y905801D01*
X44874Y905758D01*
X44806Y905628D01*
X44732Y905502D01*
X44714Y905450D01*
X44688Y905401D01*
X44648Y905260D01*
X44600Y905122D01*
X44592Y905067D01*
X44577Y905014D01*
X44565Y904868D01*
X44545Y904723D01*
X44548Y904668D01*
X44544Y904612D01*
X44561Y904467D01*
X44570Y904321D01*
X44584Y904268D01*
X44591Y904213D01*
X44636Y904074D01*
X44674Y903932D01*
X44701Y903875D01*
X44716Y903830D01*
X44757Y903757D01*
X44816Y903632D01*
X47886Y898314D01*
X49531Y892177D01*
X49531Y885823D01*
X47886Y879686D01*
X44709Y874183D01*
X40217Y869691D01*
X34714Y866514D01*
X28577Y864869D01*
X22223Y864869D01*
X16086Y866514D01*
X13208Y868176D01*
X13074Y868236D01*
X12945Y868303D01*
X12891Y868318D01*
X12841Y868341D01*
X12698Y868374D01*
X12558Y868414D01*
X12502Y868419D01*
X12448Y868431D01*
X12302Y868435D01*
X12156Y868447D01*
X12101Y868441D01*
X12046Y868442D01*
X11902Y868417D01*
X11757Y868400D01*
X11704Y868383D01*
X11649Y868374D01*
X11513Y868321D01*
X11374Y868276D01*
X11325Y868248D01*
X11274Y868228D01*
X11151Y868150D01*
X11023Y868078D01*
X10981Y868041D01*
X10934Y868012D01*
X10829Y867910D01*
X10718Y867815D01*
X10685Y867771D01*
X10644Y867732D01*
X10561Y867612D01*
X10472Y867496D01*
X10447Y867447D01*
X10415Y867401D01*
X10357Y867267D01*
X10292Y867136D01*
X10278Y867082D01*
X10256Y867031D01*
X10226Y866888D01*
X10188Y866747D01*
X10183Y866684D01*
X10173Y866637D01*
X10172Y866554D01*
X10161Y866416D01*
X10161Y47984D01*
X10175Y47838D01*
X10182Y47692D01*
X10195Y47638D01*
X10201Y47583D01*
X10244Y47443D01*
X10279Y47301D01*
X10302Y47251D01*
X10319Y47198D01*
X10388Y47069D01*
X10451Y46937D01*
X10484Y46893D01*
X10511Y46844D01*
X10604Y46732D01*
X10691Y46614D01*
X10733Y46577D01*
X10768Y46535D01*
X10882Y46443D01*
X10991Y46345D01*
X11039Y46317D01*
X11082Y46282D01*
X11212Y46215D01*
X11338Y46141D01*
X11390Y46122D01*
X11439Y46097D01*
X11580Y46056D01*
X11718Y46008D01*
X11773Y46001D01*
X11826Y45986D01*
X11972Y45974D01*
X12117Y45954D01*
X12172Y45957D01*
X12228Y45953D01*
X12373Y45970D01*
X12519Y45979D01*
X12572Y45993D01*
X12627Y46000D01*
X12766Y46045D01*
X12908Y46083D01*
X12965Y46110D01*
X13010Y46124D01*
X13083Y46166D01*
X13208Y46224D01*
X16086Y47886D01*
X22223Y49531D01*
X28577Y49531D01*
X34714Y47886D01*
X40217Y44709D01*
X44709Y40217D01*
X47886Y34714D01*
X49531Y28577D01*
X49531Y22223D01*
X47886Y16086D01*
X46224Y13208D01*
X46164Y13074D01*
X46097Y12945D01*
X46082Y12891D01*
X46059Y12841D01*
X46026Y12698D01*
X45986Y12558D01*
X45981Y12502D01*
X45969Y12448D01*
X45965Y12302D01*
X45953Y12156D01*
X45959Y12101D01*
X45958Y12046D01*
X45983Y11902D01*
X46000Y11757D01*
X46017Y11704D01*
X46026Y11649D01*
X46079Y11513D01*
X46124Y11374D01*
X46152Y11325D01*
X46172Y11274D01*
X46250Y11151D01*
X46322Y11023D01*
X46359Y10981D01*
X46388Y10934D01*
X46490Y10829D01*
X46585Y10718D01*
X46629Y10685D01*
X46668Y10644D01*
X46788Y10561D01*
X46904Y10472D01*
X46953Y10447D01*
X46999Y10415D01*
X47133Y10357D01*
X47264Y10292D01*
X47318Y10278D01*
X47369Y10256D01*
X47512Y10226D01*
X47653Y10188D01*
X47716Y10183D01*
X47763Y10173D01*
X47846Y10172D01*
X47984Y10161D01*
X866416Y10161D01*
X866562Y10175D01*
G37*
%LPC*%
G36*
X217530Y147827D02*
X217530Y147827D01*
X215850Y148523D01*
X199323Y165050D01*
X198627Y166730D01*
X198627Y263049D01*
X198620Y263122D01*
X198622Y263195D01*
X198600Y263322D01*
X198587Y263450D01*
X198566Y263520D01*
X198553Y263592D01*
X198507Y263712D01*
X198469Y263835D01*
X198434Y263899D01*
X198408Y263967D01*
X198339Y264076D01*
X198277Y264189D01*
X198231Y264245D01*
X198191Y264307D01*
X198102Y264399D01*
X198020Y264498D01*
X197963Y264544D01*
X197912Y264597D01*
X197806Y264670D01*
X197706Y264750D01*
X197641Y264784D01*
X197581Y264826D01*
X197463Y264877D01*
X197349Y264936D01*
X197278Y264956D01*
X197211Y264985D01*
X197085Y265012D01*
X196962Y265047D01*
X196889Y265053D01*
X196817Y265068D01*
X196689Y265070D01*
X196560Y265080D01*
X196488Y265072D01*
X196414Y265072D01*
X196288Y265048D01*
X196161Y265033D01*
X196091Y265010D01*
X196019Y264997D01*
X195900Y264948D01*
X195778Y264908D01*
X195714Y264872D01*
X195646Y264845D01*
X195539Y264774D01*
X195427Y264710D01*
X195372Y264662D01*
X195311Y264622D01*
X195220Y264531D01*
X195123Y264447D01*
X195078Y264389D01*
X195026Y264338D01*
X194929Y264198D01*
X194876Y264129D01*
X194861Y264100D01*
X194837Y264065D01*
X194063Y262725D01*
X189565Y258227D01*
X184056Y255046D01*
X177911Y253399D01*
X171549Y253399D01*
X165404Y255046D01*
X159895Y258227D01*
X155397Y262725D01*
X152216Y268234D01*
X150569Y274379D01*
X150569Y280741D01*
X152216Y286886D01*
X155397Y292395D01*
X159895Y296893D01*
X165404Y300074D01*
X171549Y301721D01*
X177911Y301721D01*
X184056Y300074D01*
X189565Y296893D01*
X194063Y292395D01*
X194837Y291055D01*
X194880Y290996D01*
X194915Y290931D01*
X194997Y290833D01*
X195072Y290728D01*
X195125Y290678D01*
X195172Y290622D01*
X195272Y290542D01*
X195367Y290454D01*
X195429Y290416D01*
X195486Y290370D01*
X195600Y290311D01*
X195710Y290243D01*
X195778Y290218D01*
X195843Y290184D01*
X195967Y290149D01*
X196087Y290104D01*
X196160Y290093D01*
X196230Y290073D01*
X196358Y290062D01*
X196485Y290043D01*
X196558Y290046D01*
X196632Y290040D01*
X196759Y290055D01*
X196888Y290061D01*
X196959Y290078D01*
X197031Y290087D01*
X197153Y290127D01*
X197278Y290158D01*
X197345Y290189D01*
X197414Y290212D01*
X197526Y290275D01*
X197642Y290330D01*
X197701Y290374D01*
X197765Y290410D01*
X197862Y290494D01*
X197965Y290570D01*
X198014Y290625D01*
X198070Y290673D01*
X198148Y290774D01*
X198234Y290870D01*
X198272Y290933D01*
X198316Y290991D01*
X198373Y291106D01*
X198439Y291217D01*
X198463Y291286D01*
X198496Y291351D01*
X198529Y291476D01*
X198571Y291597D01*
X198581Y291669D01*
X198600Y291740D01*
X198614Y291910D01*
X198626Y291996D01*
X198624Y292029D01*
X198627Y292071D01*
X198627Y306648D01*
X198624Y306679D01*
X198626Y306711D01*
X198604Y306880D01*
X198587Y307049D01*
X198578Y307079D01*
X198574Y307110D01*
X198473Y307426D01*
X197893Y308824D01*
X197893Y310936D01*
X198701Y312886D01*
X200194Y314379D01*
X201709Y315006D01*
X202144Y315187D01*
X204256Y315187D01*
X206206Y314379D01*
X207699Y312886D01*
X208507Y310936D01*
X208507Y308824D01*
X207927Y307426D01*
X207918Y307396D01*
X207904Y307368D01*
X207860Y307203D01*
X207811Y307040D01*
X207808Y307009D01*
X207800Y306979D01*
X207773Y306648D01*
X207773Y239463D01*
X207774Y239455D01*
X207773Y239446D01*
X207794Y239252D01*
X207813Y239063D01*
X207815Y239054D01*
X207816Y239045D01*
X207875Y238861D01*
X207931Y238678D01*
X207935Y238670D01*
X207938Y238662D01*
X208031Y238493D01*
X208123Y238324D01*
X208128Y238317D01*
X208133Y238309D01*
X208257Y238162D01*
X208380Y238015D01*
X208387Y238009D01*
X208393Y238002D01*
X208545Y237882D01*
X208694Y237762D01*
X208702Y237758D01*
X208709Y237753D01*
X208882Y237665D01*
X209051Y237577D01*
X209060Y237574D01*
X209068Y237570D01*
X209254Y237518D01*
X209438Y237465D01*
X209447Y237465D01*
X209456Y237462D01*
X209649Y237448D01*
X209840Y237432D01*
X209848Y237433D01*
X209857Y237433D01*
X210050Y237457D01*
X210239Y237479D01*
X210248Y237482D01*
X210257Y237483D01*
X210439Y237544D01*
X210622Y237604D01*
X210630Y237609D01*
X210638Y237611D01*
X210805Y237708D01*
X210973Y237802D01*
X210980Y237808D01*
X210987Y237812D01*
X211240Y238027D01*
X214278Y241065D01*
X215850Y242637D01*
X217603Y243363D01*
X217623Y243373D01*
X217644Y243380D01*
X217800Y243469D01*
X217958Y243553D01*
X217975Y243567D01*
X217995Y243578D01*
X218130Y243695D01*
X218269Y243810D01*
X218283Y243827D01*
X218300Y243841D01*
X218409Y243983D01*
X218522Y244122D01*
X218533Y244142D01*
X218546Y244160D01*
X218626Y244320D01*
X218709Y244479D01*
X218716Y244500D01*
X218726Y244520D01*
X218772Y244693D01*
X218822Y244865D01*
X218824Y244887D01*
X218830Y244909D01*
X218857Y245240D01*
X218857Y249879D01*
X218857Y249883D01*
X218857Y249884D01*
X218856Y249892D01*
X218855Y249897D01*
X218857Y249915D01*
X218836Y250097D01*
X218817Y250280D01*
X218812Y250297D01*
X218810Y250314D01*
X218753Y250488D01*
X218699Y250665D01*
X218691Y250680D01*
X218685Y250697D01*
X218595Y250857D01*
X218507Y251019D01*
X218496Y251032D01*
X218487Y251048D01*
X218367Y251187D01*
X218250Y251328D01*
X218236Y251339D01*
X218224Y251353D01*
X218079Y251465D01*
X217936Y251580D01*
X217920Y251588D01*
X217906Y251599D01*
X217741Y251681D01*
X217579Y251766D01*
X217562Y251771D01*
X217546Y251779D01*
X217367Y251826D01*
X217192Y251877D01*
X217174Y251879D01*
X217157Y251883D01*
X216826Y251910D01*
X214473Y251910D01*
X213580Y252803D01*
X213580Y270717D01*
X214473Y271610D01*
X232387Y271610D01*
X233280Y270717D01*
X233280Y252803D01*
X232387Y251910D01*
X230034Y251910D01*
X230016Y251908D01*
X229998Y251910D01*
X229816Y251889D01*
X229633Y251870D01*
X229616Y251865D01*
X229599Y251863D01*
X229424Y251806D01*
X229248Y251752D01*
X229233Y251744D01*
X229216Y251738D01*
X229056Y251648D01*
X228894Y251560D01*
X228881Y251549D01*
X228865Y251540D01*
X228726Y251420D01*
X228585Y251303D01*
X228574Y251289D01*
X228560Y251277D01*
X228448Y251132D01*
X228333Y250989D01*
X228325Y250973D01*
X228314Y250959D01*
X228232Y250794D01*
X228147Y250632D01*
X228142Y250615D01*
X228134Y250599D01*
X228087Y250420D01*
X228036Y250245D01*
X228034Y250227D01*
X228030Y250210D01*
X228003Y249879D01*
X228003Y242209D01*
X228006Y242178D01*
X228004Y242147D01*
X228026Y241977D01*
X228043Y241808D01*
X228052Y241779D01*
X228056Y241748D01*
X228157Y241432D01*
X228827Y239816D01*
X228827Y237704D01*
X228113Y235981D01*
X228109Y235968D01*
X228103Y235957D01*
X228051Y235776D01*
X227997Y235596D01*
X227995Y235583D01*
X227992Y235570D01*
X227976Y235381D01*
X227958Y235195D01*
X227960Y235182D01*
X227959Y235168D01*
X227981Y234981D01*
X228000Y234795D01*
X228004Y234782D01*
X228006Y234769D01*
X228064Y234589D01*
X228120Y234410D01*
X228126Y234399D01*
X228130Y234386D01*
X228223Y234221D01*
X228313Y234057D01*
X228322Y234047D01*
X228328Y234035D01*
X228452Y233892D01*
X228572Y233749D01*
X228583Y233741D01*
X228592Y233730D01*
X228740Y233615D01*
X228887Y233498D01*
X228899Y233492D01*
X228910Y233484D01*
X229078Y233400D01*
X229245Y233314D01*
X229258Y233310D01*
X229270Y233304D01*
X229453Y233255D01*
X229633Y233204D01*
X229646Y233203D01*
X229659Y233200D01*
X229990Y233173D01*
X230945Y233173D01*
X230971Y233175D01*
X230998Y233173D01*
X231172Y233195D01*
X231345Y233213D01*
X231371Y233220D01*
X231397Y233224D01*
X231563Y233279D01*
X231730Y233331D01*
X231754Y233344D01*
X231779Y233352D01*
X231931Y233439D01*
X232084Y233523D01*
X232105Y233540D01*
X232128Y233553D01*
X232381Y233768D01*
X243662Y245049D01*
X243679Y245070D01*
X243700Y245087D01*
X243807Y245225D01*
X243917Y245361D01*
X243930Y245384D01*
X243946Y245405D01*
X244024Y245562D01*
X244106Y245716D01*
X244114Y245742D01*
X244126Y245766D01*
X244171Y245935D01*
X244221Y246102D01*
X244223Y246129D01*
X244230Y246155D01*
X244257Y246485D01*
X244257Y251636D01*
X244255Y251658D01*
X244257Y251680D01*
X244235Y251858D01*
X244217Y252036D01*
X244211Y252058D01*
X244208Y252080D01*
X244152Y252250D01*
X244099Y252421D01*
X244088Y252441D01*
X244081Y252462D01*
X243993Y252618D01*
X243907Y252775D01*
X243893Y252792D01*
X243882Y252812D01*
X243764Y252947D01*
X243650Y253084D01*
X243632Y253098D01*
X243617Y253116D01*
X243475Y253225D01*
X243336Y253337D01*
X243316Y253347D01*
X243304Y253356D01*
X240480Y256181D01*
X238980Y259801D01*
X238980Y263719D01*
X240480Y267339D01*
X243251Y270110D01*
X246871Y271610D01*
X250789Y271610D01*
X254409Y270110D01*
X257180Y267339D01*
X258680Y263719D01*
X258680Y259801D01*
X257180Y256181D01*
X254345Y253345D01*
X254302Y253322D01*
X254285Y253308D01*
X254265Y253297D01*
X254130Y253180D01*
X253992Y253066D01*
X253977Y253048D01*
X253960Y253034D01*
X253851Y252893D01*
X253738Y252753D01*
X253727Y252733D01*
X253714Y252716D01*
X253634Y252555D01*
X253551Y252397D01*
X253544Y252375D01*
X253534Y252355D01*
X253488Y252182D01*
X253438Y252010D01*
X253436Y251988D01*
X253430Y251966D01*
X253403Y251636D01*
X253403Y242840D01*
X252707Y241160D01*
X251135Y239588D01*
X238027Y226480D01*
X238021Y226473D01*
X238015Y226468D01*
X237894Y226318D01*
X237772Y226169D01*
X237768Y226161D01*
X237762Y226154D01*
X237673Y225983D01*
X237583Y225813D01*
X237581Y225805D01*
X237577Y225797D01*
X237523Y225611D01*
X237469Y225427D01*
X237468Y225418D01*
X237465Y225410D01*
X237450Y225218D01*
X237432Y225026D01*
X237433Y225017D01*
X237432Y225008D01*
X237455Y224819D01*
X237476Y224626D01*
X237478Y224617D01*
X237479Y224609D01*
X237539Y224427D01*
X237597Y224242D01*
X237601Y224234D01*
X237604Y224226D01*
X237699Y224057D01*
X237792Y223890D01*
X237798Y223883D01*
X237802Y223875D01*
X237928Y223729D01*
X238052Y223583D01*
X238059Y223577D01*
X238065Y223570D01*
X238217Y223453D01*
X238368Y223333D01*
X238376Y223329D01*
X238383Y223324D01*
X238555Y223238D01*
X238727Y223151D01*
X238736Y223148D01*
X238744Y223144D01*
X238930Y223094D01*
X239115Y223043D01*
X239124Y223042D01*
X239133Y223040D01*
X239463Y223013D01*
X251265Y223013D01*
X251291Y223015D01*
X251318Y223013D01*
X251492Y223035D01*
X251665Y223053D01*
X251691Y223060D01*
X251717Y223064D01*
X251883Y223119D01*
X252050Y223171D01*
X252074Y223184D01*
X252099Y223192D01*
X252251Y223279D01*
X252404Y223363D01*
X252425Y223380D01*
X252448Y223393D01*
X252701Y223608D01*
X269062Y239969D01*
X269079Y239990D01*
X269100Y240007D01*
X269207Y240145D01*
X269317Y240281D01*
X269330Y240304D01*
X269346Y240325D01*
X269424Y240482D01*
X269506Y240636D01*
X269514Y240662D01*
X269526Y240686D01*
X269571Y240855D01*
X269621Y241022D01*
X269623Y241049D01*
X269630Y241075D01*
X269657Y241405D01*
X269657Y251636D01*
X269655Y251658D01*
X269657Y251680D01*
X269635Y251858D01*
X269617Y252036D01*
X269611Y252058D01*
X269608Y252080D01*
X269552Y252250D01*
X269499Y252421D01*
X269488Y252441D01*
X269481Y252462D01*
X269393Y252618D01*
X269307Y252775D01*
X269293Y252792D01*
X269282Y252812D01*
X269164Y252947D01*
X269050Y253084D01*
X269032Y253098D01*
X269017Y253116D01*
X268875Y253225D01*
X268736Y253337D01*
X268716Y253347D01*
X268704Y253356D01*
X265880Y256181D01*
X264380Y259801D01*
X264380Y263719D01*
X265880Y267339D01*
X268651Y270110D01*
X272271Y271610D01*
X276189Y271610D01*
X279809Y270110D01*
X282580Y267339D01*
X284080Y263719D01*
X284080Y259801D01*
X282580Y256181D01*
X279745Y253345D01*
X279702Y253322D01*
X279685Y253308D01*
X279665Y253297D01*
X279530Y253180D01*
X279392Y253066D01*
X279377Y253048D01*
X279360Y253034D01*
X279251Y252893D01*
X279138Y252753D01*
X279127Y252733D01*
X279114Y252716D01*
X279034Y252555D01*
X278951Y252397D01*
X278944Y252375D01*
X278934Y252355D01*
X278888Y252182D01*
X278838Y252010D01*
X278836Y251988D01*
X278830Y251966D01*
X278803Y251636D01*
X278803Y237760D01*
X278107Y236080D01*
X256590Y214563D01*
X254910Y213867D01*
X229990Y213867D01*
X229976Y213866D01*
X229963Y213867D01*
X229777Y213846D01*
X229589Y213827D01*
X229576Y213823D01*
X229563Y213822D01*
X229385Y213765D01*
X229204Y213709D01*
X229192Y213703D01*
X229180Y213699D01*
X229015Y213607D01*
X228850Y213517D01*
X228840Y213509D01*
X228828Y213502D01*
X228684Y213379D01*
X228541Y213260D01*
X228532Y213249D01*
X228522Y213241D01*
X228406Y213092D01*
X228288Y212946D01*
X228282Y212934D01*
X228274Y212924D01*
X228189Y212754D01*
X228103Y212589D01*
X228099Y212576D01*
X228093Y212564D01*
X228043Y212382D01*
X227992Y212202D01*
X227990Y212188D01*
X227987Y212175D01*
X227974Y211989D01*
X227959Y211800D01*
X227960Y211787D01*
X227959Y211774D01*
X227984Y211587D01*
X228006Y211401D01*
X228010Y211388D01*
X228011Y211375D01*
X228113Y211059D01*
X228827Y209336D01*
X228827Y207224D01*
X228113Y205501D01*
X228109Y205488D01*
X228103Y205477D01*
X228051Y205296D01*
X227997Y205116D01*
X227995Y205103D01*
X227992Y205090D01*
X227976Y204901D01*
X227958Y204715D01*
X227960Y204702D01*
X227959Y204688D01*
X227981Y204502D01*
X228000Y204315D01*
X228004Y204302D01*
X228006Y204289D01*
X228064Y204111D01*
X228120Y203930D01*
X228126Y203919D01*
X228130Y203906D01*
X228223Y203742D01*
X228313Y203577D01*
X228322Y203567D01*
X228328Y203555D01*
X228451Y203413D01*
X228572Y203269D01*
X228583Y203261D01*
X228591Y203250D01*
X228739Y203136D01*
X228887Y203018D01*
X228899Y203012D01*
X228910Y203004D01*
X229078Y202920D01*
X229245Y202834D01*
X229258Y202830D01*
X229270Y202824D01*
X229453Y202775D01*
X229633Y202724D01*
X229646Y202723D01*
X229659Y202720D01*
X229990Y202693D01*
X256345Y202693D01*
X256371Y202695D01*
X256398Y202693D01*
X256572Y202715D01*
X256745Y202733D01*
X256771Y202740D01*
X256797Y202744D01*
X256963Y202799D01*
X257130Y202851D01*
X257154Y202864D01*
X257179Y202872D01*
X257331Y202959D01*
X257484Y203043D01*
X257505Y203060D01*
X257528Y203073D01*
X257781Y203288D01*
X294462Y239969D01*
X294479Y239990D01*
X294500Y240007D01*
X294607Y240145D01*
X294717Y240281D01*
X294730Y240304D01*
X294746Y240325D01*
X294824Y240482D01*
X294906Y240636D01*
X294914Y240662D01*
X294926Y240686D01*
X294971Y240855D01*
X295021Y241022D01*
X295023Y241049D01*
X295030Y241075D01*
X295057Y241405D01*
X295057Y251636D01*
X295055Y251658D01*
X295057Y251680D01*
X295035Y251858D01*
X295017Y252036D01*
X295011Y252057D01*
X295008Y252080D01*
X294952Y252249D01*
X294899Y252421D01*
X294889Y252441D01*
X294882Y252462D01*
X294793Y252618D01*
X294707Y252775D01*
X294693Y252792D01*
X294682Y252812D01*
X294564Y252947D01*
X294450Y253084D01*
X294432Y253098D01*
X294418Y253115D01*
X294275Y253225D01*
X294136Y253337D01*
X294116Y253347D01*
X294104Y253356D01*
X291280Y256181D01*
X289780Y259801D01*
X289780Y263719D01*
X291280Y267339D01*
X294051Y270110D01*
X297671Y271610D01*
X301589Y271610D01*
X305209Y270110D01*
X307980Y267339D01*
X309480Y263719D01*
X309480Y259801D01*
X307980Y256181D01*
X305145Y253345D01*
X305102Y253322D01*
X305085Y253308D01*
X305065Y253297D01*
X304930Y253180D01*
X304791Y253066D01*
X304777Y253048D01*
X304760Y253034D01*
X304651Y252892D01*
X304538Y252753D01*
X304527Y252733D01*
X304514Y252716D01*
X304434Y252555D01*
X304351Y252396D01*
X304344Y252375D01*
X304334Y252355D01*
X304288Y252182D01*
X304238Y252010D01*
X304236Y251988D01*
X304230Y251966D01*
X304203Y251636D01*
X304203Y237760D01*
X303507Y236080D01*
X263427Y196000D01*
X263421Y195993D01*
X263415Y195988D01*
X263294Y195838D01*
X263172Y195689D01*
X263168Y195681D01*
X263162Y195674D01*
X263073Y195503D01*
X262983Y195333D01*
X262981Y195325D01*
X262977Y195317D01*
X262923Y195131D01*
X262869Y194947D01*
X262868Y194938D01*
X262865Y194930D01*
X262850Y194738D01*
X262832Y194546D01*
X262833Y194537D01*
X262832Y194528D01*
X262855Y194339D01*
X262876Y194146D01*
X262878Y194137D01*
X262879Y194129D01*
X262939Y193947D01*
X262997Y193762D01*
X263001Y193754D01*
X263004Y193746D01*
X263099Y193577D01*
X263192Y193410D01*
X263198Y193403D01*
X263202Y193395D01*
X263328Y193249D01*
X263452Y193103D01*
X263459Y193097D01*
X263465Y193090D01*
X263617Y192973D01*
X263768Y192853D01*
X263776Y192849D01*
X263783Y192844D01*
X263955Y192758D01*
X264127Y192671D01*
X264136Y192668D01*
X264144Y192664D01*
X264330Y192614D01*
X264515Y192563D01*
X264524Y192562D01*
X264533Y192560D01*
X264863Y192533D01*
X296985Y192533D01*
X297011Y192535D01*
X297038Y192533D01*
X297212Y192555D01*
X297385Y192573D01*
X297411Y192580D01*
X297437Y192584D01*
X297603Y192639D01*
X297770Y192691D01*
X297794Y192704D01*
X297819Y192712D01*
X297971Y192799D01*
X298124Y192883D01*
X298145Y192900D01*
X298168Y192913D01*
X298421Y193128D01*
X345262Y239969D01*
X345279Y239990D01*
X345300Y240007D01*
X345407Y240145D01*
X345517Y240281D01*
X345530Y240304D01*
X345546Y240325D01*
X345624Y240482D01*
X345706Y240636D01*
X345714Y240662D01*
X345726Y240686D01*
X345771Y240855D01*
X345821Y241022D01*
X345823Y241049D01*
X345830Y241075D01*
X345857Y241405D01*
X345857Y251636D01*
X345855Y251658D01*
X345857Y251680D01*
X345835Y251858D01*
X345817Y252036D01*
X345811Y252057D01*
X345808Y252080D01*
X345752Y252249D01*
X345699Y252421D01*
X345689Y252441D01*
X345682Y252462D01*
X345593Y252618D01*
X345507Y252775D01*
X345493Y252792D01*
X345482Y252812D01*
X345364Y252947D01*
X345250Y253084D01*
X345232Y253098D01*
X345218Y253115D01*
X345075Y253225D01*
X344936Y253337D01*
X344916Y253347D01*
X344904Y253356D01*
X342080Y256181D01*
X340580Y259801D01*
X340580Y263719D01*
X342080Y267339D01*
X344851Y270110D01*
X348471Y271610D01*
X352389Y271610D01*
X356009Y270110D01*
X358780Y267339D01*
X360280Y263719D01*
X360280Y259801D01*
X358780Y256181D01*
X355945Y253345D01*
X355902Y253322D01*
X355885Y253308D01*
X355865Y253297D01*
X355730Y253180D01*
X355591Y253066D01*
X355577Y253048D01*
X355560Y253034D01*
X355451Y252892D01*
X355338Y252753D01*
X355327Y252733D01*
X355314Y252716D01*
X355234Y252555D01*
X355151Y252396D01*
X355144Y252375D01*
X355134Y252355D01*
X355088Y252182D01*
X355038Y252010D01*
X355036Y251988D01*
X355030Y251966D01*
X355003Y251636D01*
X355003Y237760D01*
X354307Y236080D01*
X304067Y185840D01*
X304061Y185833D01*
X304055Y185828D01*
X303934Y185678D01*
X303812Y185529D01*
X303808Y185521D01*
X303802Y185514D01*
X303713Y185343D01*
X303623Y185173D01*
X303621Y185165D01*
X303617Y185157D01*
X303563Y184971D01*
X303509Y184787D01*
X303508Y184778D01*
X303505Y184770D01*
X303490Y184578D01*
X303472Y184386D01*
X303473Y184377D01*
X303472Y184368D01*
X303495Y184179D01*
X303516Y183986D01*
X303518Y183977D01*
X303519Y183969D01*
X303579Y183787D01*
X303637Y183602D01*
X303641Y183594D01*
X303644Y183586D01*
X303739Y183417D01*
X303832Y183250D01*
X303838Y183243D01*
X303842Y183235D01*
X303968Y183089D01*
X304092Y182943D01*
X304099Y182937D01*
X304105Y182930D01*
X304257Y182813D01*
X304408Y182693D01*
X304416Y182689D01*
X304423Y182684D01*
X304595Y182598D01*
X304767Y182511D01*
X304776Y182508D01*
X304784Y182504D01*
X304970Y182454D01*
X305155Y182403D01*
X305164Y182402D01*
X305173Y182400D01*
X305503Y182373D01*
X307145Y182373D01*
X307171Y182375D01*
X307198Y182373D01*
X307372Y182395D01*
X307545Y182413D01*
X307571Y182420D01*
X307597Y182424D01*
X307763Y182479D01*
X307930Y182531D01*
X307954Y182544D01*
X307979Y182552D01*
X308131Y182639D01*
X308284Y182723D01*
X308305Y182740D01*
X308328Y182753D01*
X308581Y182968D01*
X370662Y245049D01*
X370679Y245070D01*
X370700Y245087D01*
X370807Y245225D01*
X370917Y245361D01*
X370930Y245384D01*
X370946Y245405D01*
X371024Y245562D01*
X371106Y245716D01*
X371114Y245742D01*
X371126Y245766D01*
X371171Y245935D01*
X371221Y246102D01*
X371223Y246129D01*
X371230Y246155D01*
X371257Y246485D01*
X371257Y251636D01*
X371255Y251658D01*
X371257Y251680D01*
X371235Y251858D01*
X371217Y252036D01*
X371211Y252057D01*
X371208Y252080D01*
X371152Y252249D01*
X371099Y252421D01*
X371089Y252441D01*
X371082Y252462D01*
X370993Y252618D01*
X370907Y252775D01*
X370893Y252792D01*
X370882Y252812D01*
X370764Y252947D01*
X370650Y253084D01*
X370632Y253098D01*
X370618Y253115D01*
X370475Y253225D01*
X370336Y253337D01*
X370316Y253347D01*
X370304Y253356D01*
X367480Y256181D01*
X365980Y259801D01*
X365980Y263719D01*
X367480Y267339D01*
X370251Y270110D01*
X373871Y271610D01*
X377789Y271610D01*
X381409Y270110D01*
X384180Y267339D01*
X385680Y263719D01*
X385680Y259801D01*
X384180Y256181D01*
X381345Y253345D01*
X381302Y253322D01*
X381285Y253308D01*
X381265Y253297D01*
X381130Y253180D01*
X380991Y253066D01*
X380977Y253048D01*
X380960Y253034D01*
X380851Y252892D01*
X380738Y252753D01*
X380727Y252733D01*
X380714Y252716D01*
X380634Y252555D01*
X380551Y252396D01*
X380544Y252375D01*
X380534Y252355D01*
X380488Y252182D01*
X380438Y252010D01*
X380436Y251988D01*
X380430Y251966D01*
X380403Y251636D01*
X380403Y242840D01*
X379707Y241160D01*
X314227Y175680D01*
X314221Y175673D01*
X314215Y175668D01*
X314094Y175518D01*
X313972Y175369D01*
X313968Y175361D01*
X313962Y175354D01*
X313873Y175183D01*
X313783Y175013D01*
X313781Y175005D01*
X313777Y174997D01*
X313723Y174811D01*
X313669Y174627D01*
X313668Y174618D01*
X313665Y174610D01*
X313650Y174418D01*
X313632Y174226D01*
X313633Y174217D01*
X313632Y174208D01*
X313655Y174019D01*
X313676Y173826D01*
X313678Y173817D01*
X313679Y173809D01*
X313739Y173627D01*
X313797Y173442D01*
X313801Y173434D01*
X313804Y173426D01*
X313899Y173257D01*
X313992Y173090D01*
X313998Y173083D01*
X314002Y173075D01*
X314128Y172929D01*
X314252Y172783D01*
X314259Y172777D01*
X314265Y172770D01*
X314417Y172653D01*
X314568Y172533D01*
X314576Y172529D01*
X314583Y172524D01*
X314755Y172438D01*
X314927Y172351D01*
X314936Y172348D01*
X314944Y172344D01*
X315130Y172294D01*
X315315Y172243D01*
X315324Y172242D01*
X315333Y172240D01*
X315663Y172213D01*
X317921Y172213D01*
X317947Y172215D01*
X317974Y172213D01*
X318148Y172235D01*
X318321Y172253D01*
X318347Y172260D01*
X318374Y172264D01*
X318539Y172319D01*
X318706Y172371D01*
X318730Y172384D01*
X318755Y172392D01*
X318907Y172479D01*
X319060Y172563D01*
X319081Y172580D01*
X319104Y172593D01*
X319357Y172808D01*
X396062Y249513D01*
X396079Y249534D01*
X396100Y249551D01*
X396207Y249689D01*
X396317Y249824D01*
X396330Y249848D01*
X396346Y249869D01*
X396424Y250026D01*
X396506Y250180D01*
X396514Y250205D01*
X396526Y250230D01*
X396571Y250399D01*
X396621Y250566D01*
X396623Y250593D01*
X396630Y250618D01*
X396657Y250949D01*
X396657Y251636D01*
X396655Y251658D01*
X396657Y251680D01*
X396635Y251858D01*
X396617Y252036D01*
X396611Y252057D01*
X396608Y252080D01*
X396552Y252249D01*
X396499Y252421D01*
X396489Y252441D01*
X396482Y252462D01*
X396393Y252618D01*
X396307Y252775D01*
X396293Y252792D01*
X396282Y252812D01*
X396164Y252947D01*
X396050Y253084D01*
X396032Y253098D01*
X396018Y253115D01*
X395875Y253225D01*
X395736Y253337D01*
X395716Y253347D01*
X395704Y253356D01*
X392880Y256181D01*
X391380Y259801D01*
X391380Y263719D01*
X392880Y267339D01*
X395651Y270110D01*
X399271Y271610D01*
X403189Y271610D01*
X406809Y270110D01*
X409580Y267339D01*
X411080Y263719D01*
X411080Y259801D01*
X409580Y256181D01*
X406745Y253345D01*
X406702Y253322D01*
X406685Y253308D01*
X406665Y253297D01*
X406530Y253180D01*
X406391Y253066D01*
X406377Y253048D01*
X406360Y253034D01*
X406251Y252892D01*
X406138Y252753D01*
X406127Y252733D01*
X406114Y252716D01*
X406034Y252555D01*
X405951Y252396D01*
X405944Y252375D01*
X405934Y252355D01*
X405888Y252182D01*
X405838Y252010D01*
X405836Y251988D01*
X405830Y251966D01*
X405803Y251636D01*
X405803Y247304D01*
X405107Y245623D01*
X323247Y163763D01*
X321566Y163067D01*
X226752Y163067D01*
X226721Y163064D01*
X226689Y163066D01*
X226520Y163044D01*
X226351Y163027D01*
X226321Y163018D01*
X226290Y163014D01*
X225974Y162913D01*
X224576Y162333D01*
X222464Y162333D01*
X220514Y163141D01*
X219021Y164634D01*
X218213Y166584D01*
X218213Y168696D01*
X219021Y170646D01*
X219659Y171284D01*
X219670Y171298D01*
X219684Y171309D01*
X219798Y171453D01*
X219914Y171595D01*
X219922Y171611D01*
X219933Y171625D01*
X220017Y171789D01*
X220103Y171951D01*
X220108Y171968D01*
X220116Y171984D01*
X220165Y172161D01*
X220217Y172337D01*
X220219Y172355D01*
X220224Y172372D01*
X220237Y172555D01*
X220254Y172738D01*
X220252Y172756D01*
X220253Y172773D01*
X220230Y172955D01*
X220210Y173138D01*
X220205Y173155D01*
X220203Y173173D01*
X220144Y173346D01*
X220089Y173522D01*
X220080Y173538D01*
X220074Y173554D01*
X219982Y173714D01*
X219894Y173874D01*
X219882Y173888D01*
X219873Y173903D01*
X219659Y174156D01*
X219021Y174794D01*
X218213Y176744D01*
X218213Y178856D01*
X219021Y180806D01*
X219659Y181444D01*
X219670Y181458D01*
X219684Y181469D01*
X219798Y181613D01*
X219914Y181755D01*
X219922Y181771D01*
X219933Y181785D01*
X220017Y181949D01*
X220103Y182111D01*
X220108Y182128D01*
X220116Y182144D01*
X220165Y182321D01*
X220217Y182497D01*
X220219Y182515D01*
X220224Y182532D01*
X220237Y182715D01*
X220254Y182898D01*
X220252Y182916D01*
X220253Y182933D01*
X220230Y183115D01*
X220210Y183298D01*
X220205Y183315D01*
X220203Y183333D01*
X220144Y183506D01*
X220089Y183682D01*
X220080Y183698D01*
X220074Y183714D01*
X219982Y183874D01*
X219894Y184034D01*
X219882Y184048D01*
X219873Y184063D01*
X219659Y184316D01*
X219021Y184954D01*
X218213Y186904D01*
X218213Y189016D01*
X219021Y190966D01*
X219659Y191604D01*
X219670Y191617D01*
X219684Y191629D01*
X219797Y191773D01*
X219914Y191915D01*
X219922Y191931D01*
X219933Y191945D01*
X220017Y192109D01*
X220103Y192271D01*
X220108Y192288D01*
X220116Y192304D01*
X220165Y192481D01*
X220217Y192657D01*
X220219Y192675D01*
X220224Y192692D01*
X220237Y192875D01*
X220254Y193058D01*
X220252Y193076D01*
X220253Y193093D01*
X220230Y193275D01*
X220210Y193458D01*
X220205Y193475D01*
X220203Y193493D01*
X220144Y193667D01*
X220089Y193842D01*
X220080Y193857D01*
X220074Y193874D01*
X219983Y194034D01*
X219894Y194194D01*
X219882Y194208D01*
X219874Y194223D01*
X219659Y194476D01*
X219021Y195114D01*
X218213Y197064D01*
X218213Y199176D01*
X218938Y200926D01*
X218943Y200943D01*
X218951Y200959D01*
X219001Y201134D01*
X219055Y201311D01*
X219056Y201329D01*
X219061Y201346D01*
X219075Y201528D01*
X219093Y201712D01*
X219091Y201730D01*
X219092Y201747D01*
X219070Y201929D01*
X219051Y202112D01*
X219046Y202129D01*
X219044Y202147D01*
X218986Y202321D01*
X218931Y202497D01*
X218923Y202512D01*
X218917Y202529D01*
X218826Y202689D01*
X218738Y202850D01*
X218726Y202864D01*
X218718Y202879D01*
X218597Y203017D01*
X218479Y203158D01*
X218465Y203169D01*
X218453Y203183D01*
X218308Y203294D01*
X218164Y203409D01*
X218148Y203417D01*
X218134Y203428D01*
X217839Y203580D01*
X215850Y204403D01*
X214278Y205975D01*
X211240Y209013D01*
X211233Y209019D01*
X211228Y209025D01*
X211078Y209146D01*
X210929Y209268D01*
X210921Y209272D01*
X210914Y209278D01*
X210743Y209367D01*
X210573Y209457D01*
X210565Y209459D01*
X210557Y209463D01*
X210371Y209517D01*
X210187Y209571D01*
X210178Y209572D01*
X210170Y209575D01*
X209978Y209590D01*
X209786Y209608D01*
X209777Y209607D01*
X209768Y209608D01*
X209579Y209585D01*
X209386Y209564D01*
X209377Y209562D01*
X209369Y209561D01*
X209187Y209501D01*
X209002Y209443D01*
X208994Y209439D01*
X208986Y209436D01*
X208817Y209341D01*
X208650Y209248D01*
X208643Y209242D01*
X208635Y209238D01*
X208489Y209112D01*
X208343Y208988D01*
X208337Y208981D01*
X208330Y208975D01*
X208213Y208823D01*
X208093Y208672D01*
X208089Y208664D01*
X208084Y208657D01*
X207998Y208485D01*
X207911Y208313D01*
X207908Y208304D01*
X207904Y208296D01*
X207854Y208110D01*
X207803Y207925D01*
X207802Y207916D01*
X207800Y207907D01*
X207773Y207577D01*
X207773Y170375D01*
X207775Y170349D01*
X207773Y170322D01*
X207795Y170148D01*
X207813Y169975D01*
X207820Y169949D01*
X207824Y169923D01*
X207879Y169757D01*
X207931Y169590D01*
X207944Y169566D01*
X207952Y169541D01*
X208039Y169389D01*
X208123Y169236D01*
X208140Y169215D01*
X208153Y169192D01*
X208368Y168939D01*
X219739Y157568D01*
X219760Y157551D01*
X219777Y157530D01*
X219915Y157423D01*
X220051Y157313D01*
X220074Y157300D01*
X220095Y157284D01*
X220252Y157206D01*
X220406Y157124D01*
X220432Y157116D01*
X220456Y157104D01*
X220625Y157059D01*
X220792Y157009D01*
X220819Y157007D01*
X220845Y157000D01*
X221175Y156973D01*
X545905Y156973D01*
X545931Y156975D01*
X545958Y156973D01*
X546132Y156995D01*
X546305Y157013D01*
X546331Y157020D01*
X546357Y157024D01*
X546523Y157079D01*
X546690Y157131D01*
X546714Y157144D01*
X546739Y157152D01*
X546891Y157239D01*
X547044Y157323D01*
X547065Y157340D01*
X547088Y157353D01*
X547341Y157568D01*
X624662Y234889D01*
X624679Y234910D01*
X624700Y234927D01*
X624806Y235065D01*
X624917Y235201D01*
X624930Y235224D01*
X624946Y235245D01*
X625024Y235402D01*
X625106Y235556D01*
X625114Y235582D01*
X625126Y235606D01*
X625171Y235775D01*
X625221Y235942D01*
X625223Y235969D01*
X625230Y235995D01*
X625257Y236325D01*
X625257Y251636D01*
X625255Y251658D01*
X625257Y251680D01*
X625235Y251858D01*
X625217Y252036D01*
X625211Y252057D01*
X625208Y252080D01*
X625152Y252249D01*
X625099Y252421D01*
X625089Y252441D01*
X625082Y252462D01*
X624993Y252618D01*
X624907Y252775D01*
X624893Y252792D01*
X624882Y252812D01*
X624764Y252947D01*
X624650Y253084D01*
X624632Y253098D01*
X624618Y253115D01*
X624475Y253225D01*
X624336Y253337D01*
X624316Y253347D01*
X624304Y253356D01*
X621480Y256181D01*
X619980Y259801D01*
X619980Y263719D01*
X621480Y267339D01*
X624251Y270110D01*
X627871Y271610D01*
X631789Y271610D01*
X635409Y270110D01*
X638180Y267339D01*
X639680Y263719D01*
X639680Y259801D01*
X638180Y256181D01*
X635345Y253345D01*
X635302Y253322D01*
X635285Y253308D01*
X635265Y253297D01*
X635130Y253180D01*
X634991Y253066D01*
X634977Y253048D01*
X634960Y253034D01*
X634851Y252892D01*
X634738Y252753D01*
X634727Y252733D01*
X634714Y252716D01*
X634634Y252555D01*
X634551Y252396D01*
X634544Y252375D01*
X634534Y252355D01*
X634488Y252182D01*
X634438Y252010D01*
X634436Y251988D01*
X634430Y251966D01*
X634403Y251636D01*
X634403Y232680D01*
X633707Y231000D01*
X551230Y148523D01*
X549550Y147827D01*
X217530Y147827D01*
G37*
%LPD*%
%LPC*%
G36*
X852839Y111251D02*
X852839Y111251D01*
X849851Y112489D01*
X848128Y114212D01*
X848107Y114229D01*
X848090Y114250D01*
X847952Y114357D01*
X847816Y114467D01*
X847793Y114480D01*
X847772Y114496D01*
X847615Y114574D01*
X847461Y114656D01*
X847435Y114664D01*
X847411Y114676D01*
X847242Y114721D01*
X847075Y114771D01*
X847048Y114773D01*
X847022Y114780D01*
X846692Y114807D01*
X799190Y114807D01*
X797510Y115503D01*
X796223Y116790D01*
X795527Y118470D01*
X795527Y441257D01*
X795526Y441265D01*
X795527Y441274D01*
X795506Y441468D01*
X795487Y441657D01*
X795485Y441666D01*
X795484Y441675D01*
X795425Y441859D01*
X795369Y442042D01*
X795365Y442050D01*
X795362Y442058D01*
X795269Y442227D01*
X795177Y442396D01*
X795172Y442403D01*
X795167Y442411D01*
X795043Y442558D01*
X794920Y442705D01*
X794913Y442711D01*
X794907Y442718D01*
X794755Y442838D01*
X794606Y442958D01*
X794598Y442962D01*
X794591Y442967D01*
X794418Y443055D01*
X794249Y443143D01*
X794240Y443146D01*
X794232Y443150D01*
X794046Y443202D01*
X793862Y443255D01*
X793853Y443255D01*
X793844Y443258D01*
X793651Y443272D01*
X793460Y443288D01*
X793452Y443287D01*
X793443Y443287D01*
X793250Y443263D01*
X793061Y443241D01*
X793052Y443238D01*
X793043Y443237D01*
X792861Y443176D01*
X792678Y443116D01*
X792670Y443111D01*
X792662Y443109D01*
X792495Y443012D01*
X792327Y442918D01*
X792320Y442912D01*
X792313Y442908D01*
X792060Y442693D01*
X711198Y361831D01*
X711181Y361810D01*
X711160Y361793D01*
X711053Y361655D01*
X710943Y361519D01*
X710930Y361496D01*
X710914Y361475D01*
X710836Y361318D01*
X710754Y361164D01*
X710746Y361138D01*
X710734Y361114D01*
X710689Y360945D01*
X710639Y360778D01*
X710637Y360751D01*
X710630Y360725D01*
X710603Y360395D01*
X710603Y297284D01*
X710605Y297262D01*
X710603Y297240D01*
X710625Y297062D01*
X710643Y296884D01*
X710649Y296862D01*
X710652Y296840D01*
X710708Y296670D01*
X710761Y296499D01*
X710772Y296479D01*
X710779Y296458D01*
X710867Y296302D01*
X710953Y296145D01*
X710967Y296128D01*
X710978Y296108D01*
X711096Y295973D01*
X711210Y295836D01*
X711228Y295822D01*
X711243Y295804D01*
X711385Y295695D01*
X711524Y295583D01*
X711544Y295573D01*
X711556Y295564D01*
X714380Y292739D01*
X715880Y289119D01*
X715880Y285201D01*
X714380Y281581D01*
X711609Y278810D01*
X707989Y277310D01*
X704071Y277310D01*
X700451Y278810D01*
X697680Y281581D01*
X696180Y285201D01*
X696180Y289119D01*
X697680Y292739D01*
X700515Y295575D01*
X700558Y295598D01*
X700575Y295612D01*
X700595Y295623D01*
X700730Y295740D01*
X700868Y295854D01*
X700883Y295872D01*
X700900Y295886D01*
X701009Y296027D01*
X701122Y296167D01*
X701133Y296187D01*
X701146Y296204D01*
X701226Y296365D01*
X701309Y296523D01*
X701316Y296545D01*
X701326Y296565D01*
X701372Y296738D01*
X701422Y296910D01*
X701424Y296932D01*
X701430Y296954D01*
X701457Y297284D01*
X701457Y364040D01*
X702153Y365720D01*
X703725Y367292D01*
X794932Y458499D01*
X794949Y458520D01*
X794970Y458537D01*
X795077Y458675D01*
X795187Y458811D01*
X795200Y458834D01*
X795216Y458855D01*
X795294Y459012D01*
X795376Y459166D01*
X795384Y459192D01*
X795396Y459216D01*
X795441Y459385D01*
X795491Y459552D01*
X795493Y459579D01*
X795500Y459605D01*
X795527Y459935D01*
X795527Y801010D01*
X796223Y802690D01*
X797510Y803977D01*
X799190Y804673D01*
X846692Y804673D01*
X846718Y804675D01*
X846745Y804673D01*
X846919Y804695D01*
X847092Y804713D01*
X847118Y804720D01*
X847144Y804724D01*
X847310Y804779D01*
X847477Y804831D01*
X847501Y804844D01*
X847526Y804852D01*
X847678Y804939D01*
X847831Y805023D01*
X847852Y805040D01*
X847875Y805053D01*
X848128Y805268D01*
X849851Y806991D01*
X852839Y808229D01*
X869281Y808229D01*
X872269Y806991D01*
X874555Y804705D01*
X875793Y801717D01*
X875793Y798483D01*
X874555Y795495D01*
X872269Y793209D01*
X869432Y792034D01*
X869281Y791971D01*
X852839Y791971D01*
X849851Y793209D01*
X848128Y794932D01*
X848107Y794949D01*
X848090Y794970D01*
X847952Y795077D01*
X847816Y795187D01*
X847793Y795200D01*
X847772Y795216D01*
X847615Y795294D01*
X847461Y795376D01*
X847435Y795384D01*
X847411Y795396D01*
X847242Y795441D01*
X847075Y795491D01*
X847048Y795493D01*
X847022Y795500D01*
X846692Y795527D01*
X806704Y795527D01*
X806686Y795525D01*
X806668Y795527D01*
X806486Y795506D01*
X806303Y795487D01*
X806286Y795482D01*
X806269Y795480D01*
X806094Y795423D01*
X805918Y795369D01*
X805903Y795361D01*
X805886Y795355D01*
X805726Y795265D01*
X805564Y795177D01*
X805551Y795166D01*
X805535Y795157D01*
X805396Y795037D01*
X805255Y794920D01*
X805244Y794906D01*
X805230Y794894D01*
X805118Y794749D01*
X805003Y794606D01*
X804995Y794590D01*
X804984Y794576D01*
X804902Y794411D01*
X804817Y794249D01*
X804812Y794232D01*
X804804Y794216D01*
X804757Y794037D01*
X804706Y793862D01*
X804704Y793844D01*
X804700Y793827D01*
X804673Y793496D01*
X804673Y664330D01*
X804674Y664316D01*
X804673Y664303D01*
X804694Y664117D01*
X804713Y663929D01*
X804717Y663916D01*
X804718Y663903D01*
X804775Y663724D01*
X804831Y663544D01*
X804837Y663532D01*
X804841Y663520D01*
X804933Y663355D01*
X805023Y663190D01*
X805031Y663180D01*
X805038Y663168D01*
X805161Y663024D01*
X805280Y662881D01*
X805291Y662872D01*
X805299Y662862D01*
X805448Y662746D01*
X805594Y662628D01*
X805606Y662622D01*
X805616Y662614D01*
X805786Y662529D01*
X805951Y662443D01*
X805964Y662439D01*
X805976Y662433D01*
X806158Y662383D01*
X806338Y662332D01*
X806352Y662330D01*
X806365Y662327D01*
X806551Y662314D01*
X806740Y662299D01*
X806753Y662300D01*
X806766Y662299D01*
X806953Y662324D01*
X807139Y662346D01*
X807152Y662350D01*
X807165Y662351D01*
X807481Y662453D01*
X809204Y663167D01*
X811316Y663167D01*
X812714Y662587D01*
X812744Y662578D01*
X812772Y662564D01*
X812937Y662520D01*
X813100Y662471D01*
X813131Y662468D01*
X813161Y662460D01*
X813492Y662433D01*
X846692Y662433D01*
X846718Y662435D01*
X846745Y662433D01*
X846919Y662455D01*
X847092Y662473D01*
X847118Y662480D01*
X847144Y662484D01*
X847310Y662539D01*
X847477Y662591D01*
X847501Y662604D01*
X847526Y662612D01*
X847678Y662699D01*
X847831Y662783D01*
X847852Y662800D01*
X847875Y662813D01*
X848128Y663028D01*
X849851Y664751D01*
X852839Y665989D01*
X869281Y665989D01*
X872269Y664751D01*
X874555Y662465D01*
X875793Y659477D01*
X875793Y656243D01*
X874555Y653255D01*
X872269Y650969D01*
X869559Y649846D01*
X869281Y649731D01*
X852839Y649731D01*
X849851Y650969D01*
X848128Y652692D01*
X848107Y652709D01*
X848090Y652730D01*
X847952Y652837D01*
X847816Y652947D01*
X847793Y652960D01*
X847772Y652976D01*
X847615Y653054D01*
X847461Y653136D01*
X847435Y653144D01*
X847411Y653156D01*
X847242Y653201D01*
X847075Y653251D01*
X847048Y653253D01*
X847022Y653260D01*
X846692Y653287D01*
X813492Y653287D01*
X813461Y653284D01*
X813429Y653286D01*
X813260Y653264D01*
X813091Y653247D01*
X813061Y653238D01*
X813030Y653234D01*
X812714Y653133D01*
X811316Y652553D01*
X809204Y652553D01*
X807481Y653267D01*
X807468Y653271D01*
X807457Y653277D01*
X807276Y653329D01*
X807096Y653383D01*
X807083Y653385D01*
X807070Y653388D01*
X806881Y653404D01*
X806695Y653422D01*
X806682Y653420D01*
X806668Y653421D01*
X806482Y653399D01*
X806295Y653380D01*
X806282Y653376D01*
X806269Y653374D01*
X806091Y653316D01*
X805910Y653260D01*
X805899Y653254D01*
X805886Y653250D01*
X805722Y653157D01*
X805557Y653067D01*
X805547Y653058D01*
X805535Y653052D01*
X805393Y652929D01*
X805249Y652808D01*
X805241Y652797D01*
X805230Y652789D01*
X805116Y652641D01*
X804998Y652493D01*
X804992Y652481D01*
X804984Y652470D01*
X804900Y652302D01*
X804814Y652135D01*
X804810Y652122D01*
X804804Y652110D01*
X804755Y651927D01*
X804704Y651747D01*
X804703Y651734D01*
X804700Y651721D01*
X804673Y651390D01*
X804673Y639064D01*
X804675Y639046D01*
X804673Y639028D01*
X804694Y638846D01*
X804713Y638663D01*
X804718Y638646D01*
X804720Y638629D01*
X804777Y638454D01*
X804831Y638278D01*
X804839Y638263D01*
X804845Y638246D01*
X804935Y638086D01*
X805023Y637924D01*
X805034Y637911D01*
X805043Y637895D01*
X805163Y637756D01*
X805280Y637615D01*
X805294Y637604D01*
X805306Y637590D01*
X805451Y637478D01*
X805594Y637363D01*
X805610Y637355D01*
X805624Y637344D01*
X805789Y637262D01*
X805951Y637177D01*
X805968Y637172D01*
X805984Y637164D01*
X806163Y637117D01*
X806338Y637066D01*
X806356Y637064D01*
X806373Y637060D01*
X806704Y637033D01*
X846692Y637033D01*
X846718Y637035D01*
X846745Y637033D01*
X846919Y637055D01*
X847092Y637073D01*
X847118Y637080D01*
X847144Y637084D01*
X847310Y637140D01*
X847477Y637191D01*
X847501Y637204D01*
X847526Y637212D01*
X847677Y637299D01*
X847831Y637383D01*
X847852Y637400D01*
X847875Y637413D01*
X848128Y637628D01*
X849851Y639351D01*
X851433Y640006D01*
X852839Y640589D01*
X869281Y640589D01*
X872269Y639351D01*
X874555Y637065D01*
X875793Y634077D01*
X875793Y630843D01*
X874555Y627855D01*
X872269Y625569D01*
X869281Y624331D01*
X852839Y624331D01*
X849851Y625569D01*
X848128Y627292D01*
X848107Y627309D01*
X848090Y627330D01*
X847952Y627437D01*
X847816Y627547D01*
X847793Y627560D01*
X847772Y627576D01*
X847615Y627654D01*
X847461Y627736D01*
X847435Y627744D01*
X847411Y627756D01*
X847242Y627801D01*
X847075Y627851D01*
X847048Y627853D01*
X847022Y627860D01*
X846692Y627887D01*
X806704Y627887D01*
X806686Y627885D01*
X806668Y627887D01*
X806486Y627866D01*
X806303Y627847D01*
X806286Y627842D01*
X806269Y627840D01*
X806094Y627783D01*
X805918Y627729D01*
X805903Y627721D01*
X805886Y627715D01*
X805726Y627625D01*
X805564Y627537D01*
X805551Y627526D01*
X805535Y627517D01*
X805396Y627397D01*
X805255Y627280D01*
X805244Y627266D01*
X805230Y627254D01*
X805118Y627109D01*
X805003Y626966D01*
X804995Y626950D01*
X804984Y626936D01*
X804902Y626771D01*
X804817Y626609D01*
X804812Y626592D01*
X804804Y626576D01*
X804757Y626397D01*
X804706Y626222D01*
X804704Y626204D01*
X804700Y626187D01*
X804673Y625856D01*
X804673Y491610D01*
X804674Y491596D01*
X804673Y491583D01*
X804694Y491397D01*
X804713Y491209D01*
X804717Y491196D01*
X804718Y491183D01*
X804775Y491004D01*
X804831Y490824D01*
X804837Y490812D01*
X804841Y490800D01*
X804933Y490635D01*
X805023Y490470D01*
X805031Y490460D01*
X805038Y490448D01*
X805161Y490304D01*
X805280Y490161D01*
X805291Y490152D01*
X805299Y490142D01*
X805448Y490026D01*
X805594Y489908D01*
X805606Y489902D01*
X805616Y489894D01*
X805786Y489809D01*
X805951Y489723D01*
X805964Y489719D01*
X805976Y489713D01*
X806158Y489663D01*
X806338Y489612D01*
X806352Y489610D01*
X806365Y489607D01*
X806551Y489594D01*
X806740Y489579D01*
X806753Y489580D01*
X806766Y489579D01*
X806953Y489604D01*
X807139Y489626D01*
X807152Y489630D01*
X807165Y489631D01*
X807481Y489733D01*
X809204Y490447D01*
X811316Y490447D01*
X812714Y489867D01*
X812744Y489858D01*
X812772Y489844D01*
X812937Y489800D01*
X813100Y489751D01*
X813131Y489748D01*
X813161Y489740D01*
X813492Y489713D01*
X846692Y489713D01*
X846718Y489715D01*
X846745Y489713D01*
X846919Y489735D01*
X847092Y489753D01*
X847118Y489760D01*
X847144Y489764D01*
X847310Y489819D01*
X847477Y489871D01*
X847501Y489884D01*
X847526Y489892D01*
X847678Y489979D01*
X847831Y490063D01*
X847852Y490080D01*
X847875Y490093D01*
X848128Y490308D01*
X849851Y492031D01*
X852839Y493269D01*
X869281Y493269D01*
X872269Y492031D01*
X874555Y489745D01*
X875793Y486757D01*
X875793Y483523D01*
X874555Y480535D01*
X872269Y478249D01*
X869713Y477190D01*
X869281Y477011D01*
X852839Y477011D01*
X849851Y478249D01*
X848128Y479972D01*
X848107Y479989D01*
X848090Y480010D01*
X847952Y480117D01*
X847816Y480227D01*
X847793Y480240D01*
X847772Y480256D01*
X847615Y480334D01*
X847461Y480416D01*
X847435Y480424D01*
X847411Y480436D01*
X847242Y480481D01*
X847075Y480531D01*
X847048Y480533D01*
X847022Y480540D01*
X846692Y480567D01*
X813492Y480567D01*
X813461Y480564D01*
X813429Y480566D01*
X813260Y480544D01*
X813091Y480527D01*
X813061Y480518D01*
X813030Y480514D01*
X812714Y480413D01*
X811316Y479833D01*
X809204Y479833D01*
X807481Y480547D01*
X807468Y480551D01*
X807457Y480557D01*
X807276Y480609D01*
X807096Y480663D01*
X807083Y480665D01*
X807070Y480668D01*
X806881Y480684D01*
X806695Y480702D01*
X806682Y480700D01*
X806668Y480701D01*
X806482Y480679D01*
X806295Y480660D01*
X806282Y480656D01*
X806269Y480654D01*
X806091Y480596D01*
X805910Y480540D01*
X805899Y480534D01*
X805886Y480530D01*
X805722Y480437D01*
X805557Y480347D01*
X805547Y480338D01*
X805535Y480332D01*
X805392Y480208D01*
X805249Y480088D01*
X805241Y480077D01*
X805230Y480069D01*
X805116Y479921D01*
X804998Y479773D01*
X804992Y479761D01*
X804984Y479750D01*
X804900Y479582D01*
X804814Y479415D01*
X804810Y479402D01*
X804804Y479390D01*
X804755Y479207D01*
X804704Y479027D01*
X804703Y479014D01*
X804700Y479001D01*
X804673Y478670D01*
X804673Y466344D01*
X804675Y466326D01*
X804673Y466308D01*
X804694Y466126D01*
X804713Y465943D01*
X804718Y465926D01*
X804720Y465909D01*
X804777Y465734D01*
X804831Y465558D01*
X804839Y465543D01*
X804845Y465526D01*
X804935Y465366D01*
X805023Y465204D01*
X805034Y465191D01*
X805043Y465175D01*
X805163Y465036D01*
X805280Y464895D01*
X805294Y464884D01*
X805306Y464870D01*
X805451Y464758D01*
X805594Y464643D01*
X805610Y464635D01*
X805624Y464624D01*
X805789Y464542D01*
X805951Y464457D01*
X805968Y464452D01*
X805984Y464444D01*
X806163Y464397D01*
X806338Y464346D01*
X806356Y464344D01*
X806373Y464340D01*
X806704Y464313D01*
X846692Y464313D01*
X846718Y464315D01*
X846745Y464313D01*
X846919Y464335D01*
X847092Y464353D01*
X847118Y464360D01*
X847144Y464364D01*
X847310Y464420D01*
X847477Y464471D01*
X847501Y464484D01*
X847526Y464492D01*
X847677Y464579D01*
X847831Y464663D01*
X847852Y464680D01*
X847875Y464693D01*
X848128Y464908D01*
X849851Y466631D01*
X851587Y467350D01*
X852839Y467869D01*
X869281Y467869D01*
X872269Y466631D01*
X874555Y464345D01*
X875793Y461357D01*
X875793Y458123D01*
X874555Y455135D01*
X872269Y452849D01*
X869281Y451611D01*
X852839Y451611D01*
X849851Y452849D01*
X848128Y454572D01*
X848107Y454589D01*
X848090Y454610D01*
X847952Y454717D01*
X847816Y454827D01*
X847793Y454840D01*
X847772Y454856D01*
X847615Y454934D01*
X847461Y455016D01*
X847435Y455024D01*
X847411Y455036D01*
X847242Y455081D01*
X847075Y455131D01*
X847048Y455133D01*
X847022Y455140D01*
X846692Y455167D01*
X806704Y455167D01*
X806686Y455165D01*
X806668Y455167D01*
X806486Y455146D01*
X806303Y455127D01*
X806286Y455122D01*
X806269Y455120D01*
X806094Y455063D01*
X805918Y455009D01*
X805903Y455001D01*
X805886Y454995D01*
X805726Y454905D01*
X805564Y454817D01*
X805551Y454806D01*
X805535Y454797D01*
X805396Y454677D01*
X805255Y454560D01*
X805244Y454546D01*
X805230Y454534D01*
X805118Y454389D01*
X805003Y454246D01*
X804995Y454230D01*
X804984Y454216D01*
X804902Y454051D01*
X804817Y453889D01*
X804812Y453872D01*
X804804Y453856D01*
X804757Y453677D01*
X804706Y453502D01*
X804704Y453484D01*
X804700Y453467D01*
X804673Y453136D01*
X804673Y323970D01*
X804674Y323956D01*
X804673Y323943D01*
X804694Y323757D01*
X804713Y323569D01*
X804717Y323556D01*
X804718Y323543D01*
X804775Y323364D01*
X804831Y323184D01*
X804837Y323172D01*
X804841Y323160D01*
X804934Y322994D01*
X805023Y322830D01*
X805031Y322820D01*
X805038Y322808D01*
X805160Y322665D01*
X805280Y322521D01*
X805291Y322512D01*
X805299Y322502D01*
X805448Y322386D01*
X805594Y322268D01*
X805606Y322262D01*
X805616Y322254D01*
X805785Y322169D01*
X805951Y322083D01*
X805964Y322079D01*
X805976Y322073D01*
X806158Y322024D01*
X806338Y321972D01*
X806352Y321970D01*
X806365Y321967D01*
X806553Y321954D01*
X806740Y321939D01*
X806753Y321940D01*
X806766Y321939D01*
X806954Y321964D01*
X807139Y321986D01*
X807152Y321990D01*
X807165Y321991D01*
X807481Y322093D01*
X809204Y322807D01*
X811316Y322807D01*
X812714Y322227D01*
X812744Y322218D01*
X812772Y322204D01*
X812937Y322160D01*
X813100Y322111D01*
X813131Y322108D01*
X813161Y322100D01*
X813492Y322073D01*
X846692Y322073D01*
X846718Y322075D01*
X846745Y322073D01*
X846919Y322095D01*
X847092Y322113D01*
X847118Y322120D01*
X847144Y322124D01*
X847310Y322179D01*
X847477Y322231D01*
X847501Y322244D01*
X847526Y322252D01*
X847678Y322339D01*
X847831Y322423D01*
X847852Y322440D01*
X847875Y322453D01*
X848128Y322668D01*
X849851Y324391D01*
X851713Y325162D01*
X851714Y325163D01*
X852839Y325629D01*
X869281Y325629D01*
X872269Y324391D01*
X874555Y322105D01*
X875793Y319117D01*
X875793Y315883D01*
X874555Y312895D01*
X872269Y310609D01*
X869281Y309371D01*
X852839Y309371D01*
X849851Y310609D01*
X848128Y312332D01*
X848107Y312349D01*
X848090Y312370D01*
X847952Y312477D01*
X847816Y312587D01*
X847793Y312600D01*
X847772Y312616D01*
X847615Y312694D01*
X847461Y312776D01*
X847435Y312784D01*
X847411Y312796D01*
X847242Y312841D01*
X847075Y312891D01*
X847048Y312893D01*
X847022Y312900D01*
X846692Y312927D01*
X813492Y312927D01*
X813461Y312924D01*
X813430Y312926D01*
X813260Y312904D01*
X813091Y312887D01*
X813061Y312878D01*
X813030Y312874D01*
X812714Y312773D01*
X811316Y312193D01*
X809204Y312193D01*
X807481Y312907D01*
X807468Y312911D01*
X807457Y312917D01*
X807276Y312969D01*
X807096Y313023D01*
X807083Y313025D01*
X807070Y313028D01*
X806882Y313044D01*
X806695Y313062D01*
X806682Y313060D01*
X806668Y313061D01*
X806481Y313039D01*
X806295Y313020D01*
X806282Y313016D01*
X806269Y313014D01*
X806089Y312956D01*
X805910Y312900D01*
X805899Y312894D01*
X805886Y312890D01*
X805721Y312797D01*
X805557Y312707D01*
X805547Y312698D01*
X805535Y312692D01*
X805393Y312569D01*
X805249Y312448D01*
X805241Y312437D01*
X805230Y312428D01*
X805115Y312280D01*
X804998Y312133D01*
X804992Y312121D01*
X804984Y312110D01*
X804900Y311942D01*
X804814Y311775D01*
X804810Y311762D01*
X804804Y311750D01*
X804755Y311567D01*
X804704Y311387D01*
X804703Y311374D01*
X804700Y311361D01*
X804673Y311030D01*
X804673Y298704D01*
X804675Y298686D01*
X804673Y298668D01*
X804694Y298486D01*
X804713Y298303D01*
X804718Y298286D01*
X804720Y298269D01*
X804777Y298094D01*
X804831Y297918D01*
X804839Y297903D01*
X804845Y297886D01*
X804935Y297726D01*
X805023Y297564D01*
X805034Y297551D01*
X805043Y297535D01*
X805163Y297396D01*
X805280Y297255D01*
X805294Y297244D01*
X805306Y297230D01*
X805451Y297118D01*
X805594Y297003D01*
X805610Y296995D01*
X805624Y296984D01*
X805789Y296902D01*
X805951Y296817D01*
X805968Y296812D01*
X805984Y296804D01*
X806163Y296757D01*
X806338Y296706D01*
X806356Y296704D01*
X806373Y296700D01*
X806704Y296673D01*
X846692Y296673D01*
X846718Y296675D01*
X846745Y296673D01*
X846919Y296695D01*
X847092Y296713D01*
X847118Y296720D01*
X847144Y296724D01*
X847310Y296779D01*
X847477Y296831D01*
X847501Y296844D01*
X847526Y296852D01*
X847678Y296939D01*
X847831Y297023D01*
X847852Y297040D01*
X847875Y297053D01*
X848128Y297268D01*
X849851Y298991D01*
X852839Y300229D01*
X869281Y300229D01*
X872269Y298991D01*
X874555Y296705D01*
X875793Y293717D01*
X875793Y290483D01*
X874555Y287495D01*
X872269Y285209D01*
X869281Y283971D01*
X852839Y283971D01*
X849851Y285209D01*
X848128Y286932D01*
X848107Y286949D01*
X848090Y286970D01*
X847952Y287077D01*
X847816Y287187D01*
X847793Y287200D01*
X847772Y287216D01*
X847615Y287294D01*
X847461Y287376D01*
X847435Y287384D01*
X847411Y287396D01*
X847242Y287441D01*
X847075Y287491D01*
X847048Y287493D01*
X847022Y287500D01*
X846692Y287527D01*
X810455Y287527D01*
X810429Y287525D01*
X810402Y287527D01*
X810228Y287505D01*
X810055Y287487D01*
X810029Y287480D01*
X810003Y287476D01*
X809837Y287421D01*
X809670Y287369D01*
X809646Y287356D01*
X809621Y287348D01*
X809469Y287261D01*
X809316Y287177D01*
X809295Y287160D01*
X809272Y287147D01*
X809019Y286932D01*
X805268Y283181D01*
X805251Y283160D01*
X805230Y283143D01*
X805123Y283005D01*
X805013Y282869D01*
X805000Y282846D01*
X804984Y282825D01*
X804906Y282668D01*
X804824Y282514D01*
X804816Y282488D01*
X804804Y282464D01*
X804759Y282295D01*
X804709Y282128D01*
X804707Y282101D01*
X804700Y282075D01*
X804673Y281745D01*
X804673Y125984D01*
X804675Y125966D01*
X804673Y125948D01*
X804694Y125766D01*
X804713Y125583D01*
X804718Y125566D01*
X804720Y125549D01*
X804777Y125374D01*
X804831Y125198D01*
X804839Y125183D01*
X804845Y125166D01*
X804935Y125006D01*
X805023Y124844D01*
X805034Y124831D01*
X805043Y124815D01*
X805163Y124676D01*
X805280Y124535D01*
X805294Y124524D01*
X805306Y124510D01*
X805451Y124398D01*
X805594Y124283D01*
X805610Y124275D01*
X805624Y124264D01*
X805789Y124182D01*
X805951Y124097D01*
X805968Y124092D01*
X805984Y124084D01*
X806163Y124037D01*
X806338Y123986D01*
X806356Y123984D01*
X806373Y123980D01*
X806704Y123953D01*
X846692Y123953D01*
X846718Y123955D01*
X846745Y123953D01*
X846919Y123975D01*
X847092Y123993D01*
X847118Y124000D01*
X847144Y124004D01*
X847310Y124059D01*
X847477Y124111D01*
X847501Y124124D01*
X847526Y124132D01*
X847678Y124219D01*
X847831Y124303D01*
X847852Y124320D01*
X847875Y124333D01*
X848128Y124548D01*
X849851Y126271D01*
X852839Y127509D01*
X869281Y127509D01*
X872269Y126271D01*
X874555Y123985D01*
X875793Y120997D01*
X875793Y117763D01*
X874555Y114775D01*
X872269Y112489D01*
X869281Y111251D01*
X852839Y111251D01*
G37*
%LPD*%
%LPC*%
G36*
X221471Y277310D02*
X221471Y277310D01*
X217851Y278810D01*
X215080Y281581D01*
X213580Y285201D01*
X213580Y289119D01*
X215080Y292739D01*
X217851Y295510D01*
X219471Y296182D01*
X219491Y296192D01*
X219512Y296199D01*
X219669Y296287D01*
X219826Y296372D01*
X219843Y296386D01*
X219863Y296397D01*
X219998Y296514D01*
X220137Y296628D01*
X220151Y296645D01*
X220168Y296660D01*
X220277Y296801D01*
X220390Y296941D01*
X220401Y296961D01*
X220414Y296978D01*
X220494Y297138D01*
X220577Y297297D01*
X220584Y297319D01*
X220594Y297339D01*
X220640Y297512D01*
X220690Y297684D01*
X220692Y297706D01*
X220698Y297727D01*
X220725Y298058D01*
X220725Y467978D01*
X220723Y468004D01*
X220725Y468031D01*
X220703Y468205D01*
X220685Y468378D01*
X220678Y468404D01*
X220674Y468431D01*
X220618Y468596D01*
X220567Y468763D01*
X220554Y468787D01*
X220546Y468812D01*
X220471Y468942D01*
X220471Y475937D01*
X220492Y475979D01*
X220574Y476133D01*
X220582Y476159D01*
X220594Y476183D01*
X220639Y476352D01*
X220689Y476519D01*
X220691Y476546D01*
X220698Y476572D01*
X220725Y476902D01*
X220725Y553136D01*
X220723Y553154D01*
X220725Y553172D01*
X220704Y553354D01*
X220685Y553537D01*
X220680Y553554D01*
X220678Y553571D01*
X220621Y553746D01*
X220567Y553922D01*
X220559Y553937D01*
X220553Y553954D01*
X220463Y554114D01*
X220375Y554276D01*
X220364Y554289D01*
X220355Y554305D01*
X220235Y554444D01*
X220118Y554585D01*
X220104Y554596D01*
X220092Y554610D01*
X219947Y554722D01*
X219804Y554837D01*
X219788Y554845D01*
X219774Y554856D01*
X219609Y554938D01*
X219447Y555023D01*
X219430Y555028D01*
X219414Y555036D01*
X219235Y555083D01*
X219060Y555134D01*
X219042Y555136D01*
X219025Y555140D01*
X218694Y555167D01*
X120464Y555167D01*
X120438Y555165D01*
X120411Y555167D01*
X120237Y555145D01*
X120064Y555127D01*
X120038Y555120D01*
X120012Y555116D01*
X119846Y555061D01*
X119679Y555009D01*
X119655Y554996D01*
X119630Y554988D01*
X119478Y554901D01*
X119325Y554817D01*
X119304Y554800D01*
X119281Y554787D01*
X119028Y554572D01*
X117868Y553412D01*
X117851Y553391D01*
X117830Y553374D01*
X117723Y553236D01*
X117613Y553100D01*
X117600Y553077D01*
X117584Y553056D01*
X117506Y552899D01*
X117424Y552745D01*
X117416Y552719D01*
X117404Y552695D01*
X117359Y552526D01*
X117309Y552359D01*
X117307Y552332D01*
X117300Y552306D01*
X117273Y551976D01*
X117273Y523270D01*
X116577Y521590D01*
X115005Y520018D01*
X110842Y515855D01*
X109270Y514283D01*
X107590Y513587D01*
X77326Y513587D01*
X77304Y513585D01*
X77281Y513587D01*
X77104Y513565D01*
X76925Y513547D01*
X76904Y513541D01*
X76882Y513538D01*
X76712Y513482D01*
X76540Y513429D01*
X76521Y513419D01*
X76499Y513412D01*
X76344Y513323D01*
X76186Y513237D01*
X76169Y513223D01*
X76150Y513212D01*
X76015Y513095D01*
X75877Y512980D01*
X75863Y512962D01*
X75846Y512948D01*
X75737Y512806D01*
X75625Y512666D01*
X75614Y512646D01*
X75601Y512628D01*
X75449Y512333D01*
X75300Y511973D01*
X72227Y508900D01*
X69231Y507659D01*
X68453Y507337D01*
X68445Y507332D01*
X68436Y507330D01*
X68267Y507237D01*
X68098Y507146D01*
X68091Y507141D01*
X68083Y507136D01*
X67935Y507012D01*
X67787Y506890D01*
X67782Y506883D01*
X67775Y506877D01*
X67655Y506727D01*
X67534Y506577D01*
X67529Y506569D01*
X67524Y506562D01*
X67437Y506393D01*
X67346Y506221D01*
X67344Y506212D01*
X67340Y506204D01*
X67288Y506022D01*
X67233Y505834D01*
X67233Y505825D01*
X67230Y505817D01*
X67215Y505626D01*
X67199Y505433D01*
X67200Y505424D01*
X67199Y505416D01*
X67222Y505225D01*
X67244Y505033D01*
X67247Y505025D01*
X67248Y505016D01*
X67308Y504834D01*
X67367Y504650D01*
X67372Y504642D01*
X67374Y504634D01*
X67470Y504466D01*
X67563Y504298D01*
X67569Y504292D01*
X67574Y504284D01*
X67701Y504138D01*
X67825Y503993D01*
X67832Y503987D01*
X67838Y503980D01*
X67990Y503863D01*
X68142Y503744D01*
X68150Y503740D01*
X68157Y503735D01*
X68453Y503583D01*
X72227Y502020D01*
X75300Y498947D01*
X75449Y498587D01*
X75460Y498567D01*
X75467Y498546D01*
X75555Y498390D01*
X75639Y498232D01*
X75654Y498215D01*
X75665Y498195D01*
X75782Y498059D01*
X75896Y497921D01*
X75913Y497907D01*
X75928Y497890D01*
X76069Y497781D01*
X76208Y497668D01*
X76228Y497657D01*
X76246Y497644D01*
X76406Y497564D01*
X76565Y497481D01*
X76586Y497474D01*
X76606Y497464D01*
X76780Y497418D01*
X76951Y497368D01*
X76974Y497366D01*
X76995Y497360D01*
X77326Y497333D01*
X83128Y497333D01*
X83159Y497336D01*
X83191Y497334D01*
X83360Y497356D01*
X83529Y497373D01*
X83559Y497382D01*
X83590Y497386D01*
X83906Y497487D01*
X85304Y498067D01*
X87416Y498067D01*
X89366Y497259D01*
X90859Y495766D01*
X91667Y493816D01*
X91667Y491704D01*
X90859Y489754D01*
X89366Y488261D01*
X87416Y487453D01*
X85304Y487453D01*
X83906Y488033D01*
X83876Y488042D01*
X83848Y488056D01*
X83683Y488100D01*
X83520Y488149D01*
X83489Y488152D01*
X83459Y488160D01*
X83128Y488187D01*
X77326Y488187D01*
X77304Y488185D01*
X77281Y488187D01*
X77104Y488165D01*
X76925Y488147D01*
X76904Y488141D01*
X76882Y488138D01*
X76712Y488082D01*
X76540Y488029D01*
X76521Y488019D01*
X76499Y488012D01*
X76344Y487923D01*
X76186Y487837D01*
X76169Y487823D01*
X76150Y487812D01*
X76015Y487695D01*
X75877Y487580D01*
X75863Y487562D01*
X75846Y487548D01*
X75737Y487406D01*
X75625Y487266D01*
X75614Y487246D01*
X75601Y487228D01*
X75449Y486933D01*
X75300Y486573D01*
X72227Y483500D01*
X68453Y481937D01*
X68445Y481932D01*
X68436Y481930D01*
X68267Y481837D01*
X68098Y481746D01*
X68091Y481741D01*
X68083Y481736D01*
X67935Y481612D01*
X67787Y481490D01*
X67782Y481483D01*
X67775Y481477D01*
X67655Y481327D01*
X67534Y481177D01*
X67529Y481169D01*
X67524Y481162D01*
X67437Y480993D01*
X67346Y480821D01*
X67344Y480812D01*
X67340Y480804D01*
X67288Y480622D01*
X67233Y480434D01*
X67233Y480425D01*
X67230Y480417D01*
X67215Y480226D01*
X67199Y480033D01*
X67200Y480024D01*
X67199Y480016D01*
X67222Y479825D01*
X67244Y479633D01*
X67247Y479625D01*
X67248Y479616D01*
X67308Y479434D01*
X67367Y479250D01*
X67372Y479242D01*
X67374Y479234D01*
X67470Y479066D01*
X67563Y478898D01*
X67569Y478892D01*
X67574Y478884D01*
X67701Y478738D01*
X67825Y478593D01*
X67832Y478587D01*
X67838Y478580D01*
X67990Y478463D01*
X68142Y478344D01*
X68150Y478340D01*
X68157Y478335D01*
X68453Y478183D01*
X72227Y476620D01*
X75300Y473547D01*
X75449Y473187D01*
X75460Y473167D01*
X75467Y473146D01*
X75555Y472990D01*
X75639Y472832D01*
X75654Y472815D01*
X75665Y472795D01*
X75782Y472659D01*
X75896Y472521D01*
X75913Y472507D01*
X75928Y472490D01*
X76069Y472381D01*
X76208Y472268D01*
X76228Y472257D01*
X76246Y472244D01*
X76406Y472164D01*
X76565Y472081D01*
X76586Y472074D01*
X76606Y472064D01*
X76780Y472018D01*
X76951Y471968D01*
X76974Y471966D01*
X76995Y471960D01*
X77326Y471933D01*
X83128Y471933D01*
X83159Y471936D01*
X83191Y471934D01*
X83360Y471956D01*
X83529Y471973D01*
X83559Y471982D01*
X83590Y471986D01*
X83906Y472087D01*
X85304Y472667D01*
X87416Y472667D01*
X89366Y471859D01*
X90859Y470366D01*
X91667Y468416D01*
X91667Y466304D01*
X90859Y464354D01*
X89366Y462861D01*
X87416Y462053D01*
X85304Y462053D01*
X83906Y462633D01*
X83876Y462642D01*
X83848Y462656D01*
X83683Y462700D01*
X83520Y462749D01*
X83489Y462752D01*
X83459Y462760D01*
X83128Y462787D01*
X77326Y462787D01*
X77304Y462785D01*
X77281Y462787D01*
X77104Y462765D01*
X76925Y462747D01*
X76904Y462741D01*
X76882Y462738D01*
X76712Y462682D01*
X76540Y462629D01*
X76521Y462619D01*
X76499Y462612D01*
X76344Y462523D01*
X76186Y462437D01*
X76169Y462423D01*
X76150Y462412D01*
X76015Y462295D01*
X75877Y462180D01*
X75863Y462162D01*
X75846Y462148D01*
X75737Y462006D01*
X75625Y461866D01*
X75614Y461846D01*
X75601Y461828D01*
X75449Y461533D01*
X75300Y461173D01*
X72227Y458100D01*
X68213Y456437D01*
X63867Y456437D01*
X59853Y458100D01*
X56780Y461173D01*
X55117Y465187D01*
X55117Y469533D01*
X56780Y473547D01*
X59853Y476620D01*
X61993Y477506D01*
X63627Y478183D01*
X63635Y478188D01*
X63644Y478190D01*
X63812Y478282D01*
X63982Y478374D01*
X63989Y478379D01*
X63997Y478384D01*
X64142Y478506D01*
X64293Y478630D01*
X64298Y478637D01*
X64305Y478643D01*
X64425Y478793D01*
X64546Y478943D01*
X64551Y478951D01*
X64556Y478957D01*
X64644Y479129D01*
X64733Y479299D01*
X64736Y479308D01*
X64740Y479316D01*
X64792Y479500D01*
X64847Y479686D01*
X64847Y479694D01*
X64850Y479703D01*
X64865Y479894D01*
X64881Y480087D01*
X64880Y480096D01*
X64881Y480104D01*
X64858Y480295D01*
X64836Y480487D01*
X64833Y480495D01*
X64832Y480504D01*
X64772Y480687D01*
X64713Y480870D01*
X64709Y480878D01*
X64706Y480886D01*
X64610Y481054D01*
X64517Y481222D01*
X64511Y481228D01*
X64506Y481236D01*
X64380Y481381D01*
X64255Y481527D01*
X64248Y481533D01*
X64242Y481540D01*
X64090Y481657D01*
X63938Y481776D01*
X63930Y481780D01*
X63923Y481785D01*
X63627Y481937D01*
X59853Y483500D01*
X56780Y486573D01*
X55117Y490587D01*
X55117Y494933D01*
X56780Y498947D01*
X59853Y502020D01*
X63627Y503583D01*
X63635Y503588D01*
X63644Y503590D01*
X63812Y503682D01*
X63982Y503774D01*
X63989Y503779D01*
X63997Y503784D01*
X64143Y503907D01*
X64293Y504030D01*
X64298Y504037D01*
X64305Y504043D01*
X64425Y504193D01*
X64546Y504343D01*
X64551Y504351D01*
X64556Y504357D01*
X64644Y504529D01*
X64733Y504699D01*
X64736Y504708D01*
X64740Y504716D01*
X64792Y504900D01*
X64847Y505086D01*
X64847Y505094D01*
X64850Y505103D01*
X64865Y505294D01*
X64881Y505487D01*
X64880Y505496D01*
X64881Y505504D01*
X64858Y505695D01*
X64836Y505887D01*
X64833Y505895D01*
X64832Y505904D01*
X64772Y506087D01*
X64713Y506270D01*
X64709Y506278D01*
X64706Y506286D01*
X64610Y506454D01*
X64517Y506622D01*
X64511Y506628D01*
X64506Y506636D01*
X64380Y506781D01*
X64255Y506927D01*
X64248Y506933D01*
X64242Y506940D01*
X64090Y507057D01*
X63938Y507176D01*
X63930Y507180D01*
X63923Y507185D01*
X63627Y507337D01*
X59853Y508900D01*
X56780Y511973D01*
X55117Y515987D01*
X55117Y520333D01*
X56780Y524347D01*
X59853Y527420D01*
X61947Y528287D01*
X61948Y528288D01*
X62339Y528450D01*
X62417Y528492D01*
X62500Y528525D01*
X62594Y528586D01*
X62694Y528640D01*
X62762Y528696D01*
X62836Y528745D01*
X62917Y528824D01*
X63004Y528896D01*
X63060Y528965D01*
X63123Y529027D01*
X63187Y529121D01*
X63258Y529209D01*
X63299Y529287D01*
X63349Y529361D01*
X63392Y529465D01*
X63445Y529565D01*
X63470Y529650D01*
X63504Y529732D01*
X63526Y529843D01*
X63558Y529952D01*
X63566Y530040D01*
X63583Y530127D01*
X63583Y530240D01*
X63593Y530353D01*
X63583Y530441D01*
X63583Y530530D01*
X63560Y530641D01*
X63547Y530753D01*
X63520Y530838D01*
X63503Y530924D01*
X63459Y531029D01*
X63424Y531136D01*
X63381Y531214D01*
X63347Y531296D01*
X63283Y531389D01*
X63228Y531488D01*
X63170Y531555D01*
X63120Y531629D01*
X63040Y531708D01*
X62966Y531794D01*
X62896Y531848D01*
X62833Y531910D01*
X62738Y531972D01*
X62649Y532042D01*
X62570Y532082D01*
X62495Y532130D01*
X62365Y532185D01*
X62289Y532223D01*
X62245Y532235D01*
X62189Y532258D01*
X61457Y532496D01*
X59783Y533349D01*
X58262Y534454D01*
X56934Y535782D01*
X55829Y537303D01*
X54976Y538977D01*
X54395Y540764D01*
X54355Y541021D01*
X65532Y541021D01*
X65550Y541022D01*
X65567Y541021D01*
X65750Y541042D01*
X65932Y541061D01*
X65949Y541066D01*
X65967Y541068D01*
X66045Y541093D01*
X66182Y541054D01*
X66200Y541052D01*
X66217Y541048D01*
X66548Y541021D01*
X77725Y541021D01*
X77685Y540764D01*
X77104Y538977D01*
X76251Y537303D01*
X75146Y535782D01*
X73818Y534454D01*
X72297Y533349D01*
X70623Y532496D01*
X69891Y532258D01*
X69809Y532222D01*
X69725Y532196D01*
X69626Y532142D01*
X69522Y532096D01*
X69449Y532045D01*
X69372Y532003D01*
X69285Y531930D01*
X69193Y531865D01*
X69131Y531801D01*
X69063Y531744D01*
X68993Y531655D01*
X68915Y531573D01*
X68868Y531498D01*
X68812Y531429D01*
X68761Y531328D01*
X68701Y531233D01*
X68669Y531150D01*
X68629Y531071D01*
X68598Y530962D01*
X68558Y530856D01*
X68543Y530768D01*
X68519Y530683D01*
X68510Y530571D01*
X68492Y530459D01*
X68495Y530370D01*
X68488Y530282D01*
X68501Y530170D01*
X68505Y530057D01*
X68526Y529970D01*
X68536Y529882D01*
X68572Y529775D01*
X68598Y529665D01*
X68635Y529584D01*
X68663Y529500D01*
X68719Y529402D01*
X68766Y529299D01*
X68818Y529227D01*
X68862Y529150D01*
X68937Y529065D01*
X69003Y528974D01*
X69068Y528914D01*
X69127Y528847D01*
X69216Y528778D01*
X69300Y528701D01*
X69376Y528655D01*
X69446Y528601D01*
X69572Y528537D01*
X69644Y528493D01*
X69687Y528477D01*
X69741Y528450D01*
X72227Y527420D01*
X75300Y524347D01*
X75449Y523987D01*
X75460Y523967D01*
X75467Y523946D01*
X75555Y523790D01*
X75639Y523632D01*
X75654Y523615D01*
X75665Y523595D01*
X75782Y523459D01*
X75896Y523321D01*
X75913Y523307D01*
X75928Y523290D01*
X76069Y523181D01*
X76208Y523068D01*
X76228Y523057D01*
X76246Y523044D01*
X76406Y522964D01*
X76565Y522881D01*
X76586Y522874D01*
X76606Y522864D01*
X76780Y522818D01*
X76951Y522768D01*
X76974Y522766D01*
X76995Y522760D01*
X77326Y522733D01*
X103945Y522733D01*
X103971Y522735D01*
X103998Y522733D01*
X104172Y522755D01*
X104345Y522773D01*
X104371Y522780D01*
X104397Y522784D01*
X104563Y522839D01*
X104730Y522891D01*
X104754Y522904D01*
X104779Y522912D01*
X104931Y522999D01*
X105084Y523083D01*
X105105Y523100D01*
X105128Y523113D01*
X105381Y523328D01*
X107532Y525479D01*
X107549Y525500D01*
X107570Y525517D01*
X107677Y525655D01*
X107787Y525791D01*
X107800Y525814D01*
X107816Y525835D01*
X107894Y525992D01*
X107976Y526146D01*
X107984Y526172D01*
X107996Y526196D01*
X108041Y526365D01*
X108091Y526532D01*
X108093Y526559D01*
X108100Y526585D01*
X108127Y526915D01*
X108127Y550096D01*
X108125Y550122D01*
X108127Y550149D01*
X108105Y550323D01*
X108087Y550496D01*
X108080Y550522D01*
X108076Y550548D01*
X108021Y550714D01*
X107969Y550881D01*
X107956Y550905D01*
X107948Y550930D01*
X107861Y551082D01*
X107777Y551235D01*
X107760Y551256D01*
X107747Y551279D01*
X107532Y551532D01*
X103631Y555433D01*
X103631Y562167D01*
X108393Y566929D01*
X115127Y566929D01*
X117148Y564908D01*
X117169Y564891D01*
X117186Y564870D01*
X117324Y564763D01*
X117460Y564653D01*
X117483Y564640D01*
X117504Y564624D01*
X117661Y564546D01*
X117815Y564464D01*
X117841Y564456D01*
X117865Y564444D01*
X118034Y564399D01*
X118201Y564349D01*
X118228Y564347D01*
X118254Y564340D01*
X118584Y564313D01*
X218694Y564313D01*
X218712Y564315D01*
X218730Y564313D01*
X218912Y564334D01*
X219095Y564353D01*
X219112Y564358D01*
X219129Y564360D01*
X219304Y564417D01*
X219480Y564471D01*
X219495Y564479D01*
X219512Y564485D01*
X219672Y564575D01*
X219834Y564663D01*
X219847Y564674D01*
X219863Y564683D01*
X220002Y564803D01*
X220143Y564920D01*
X220154Y564934D01*
X220168Y564946D01*
X220280Y565091D01*
X220395Y565234D01*
X220403Y565250D01*
X220414Y565264D01*
X220496Y565429D01*
X220581Y565591D01*
X220586Y565608D01*
X220594Y565624D01*
X220641Y565803D01*
X220692Y565978D01*
X220694Y565996D01*
X220698Y566013D01*
X220725Y566344D01*
X220725Y577940D01*
X220722Y577971D01*
X220724Y578002D01*
X220702Y578171D01*
X220685Y578341D01*
X220676Y578370D01*
X220672Y578401D01*
X220571Y578717D01*
X219535Y581217D01*
X219535Y584823D01*
X220915Y588155D01*
X223432Y590672D01*
X223449Y590693D01*
X223470Y590710D01*
X223577Y590848D01*
X223687Y590983D01*
X223700Y591007D01*
X223716Y591028D01*
X223794Y591185D01*
X223876Y591339D01*
X223884Y591365D01*
X223896Y591389D01*
X223941Y591558D01*
X223991Y591725D01*
X223993Y591752D01*
X224000Y591777D01*
X224027Y592108D01*
X224027Y596208D01*
X224024Y596239D01*
X224026Y596271D01*
X224004Y596439D01*
X223987Y596609D01*
X223978Y596639D01*
X223974Y596670D01*
X223873Y596986D01*
X223293Y598384D01*
X223293Y600496D01*
X224101Y602446D01*
X225594Y603939D01*
X227544Y604747D01*
X229656Y604747D01*
X231606Y603939D01*
X233099Y602446D01*
X233907Y600496D01*
X233907Y598384D01*
X233327Y596986D01*
X233318Y596956D01*
X233304Y596928D01*
X233260Y596763D01*
X233211Y596600D01*
X233208Y596569D01*
X233200Y596539D01*
X233173Y596208D01*
X233173Y592108D01*
X233175Y592082D01*
X233173Y592055D01*
X233195Y591881D01*
X233213Y591708D01*
X233220Y591682D01*
X233224Y591655D01*
X233280Y591489D01*
X233331Y591323D01*
X233344Y591299D01*
X233352Y591274D01*
X233439Y591122D01*
X233523Y590969D01*
X233540Y590948D01*
X233553Y590925D01*
X233768Y590672D01*
X236285Y588155D01*
X237665Y584823D01*
X237665Y581217D01*
X236629Y578717D01*
X236620Y578687D01*
X236606Y578659D01*
X236562Y578495D01*
X236513Y578332D01*
X236510Y578301D01*
X236502Y578271D01*
X236475Y577940D01*
X236475Y563077D01*
X236478Y563046D01*
X236476Y563014D01*
X236498Y562845D01*
X236515Y562676D01*
X236524Y562646D01*
X236528Y562615D01*
X236629Y562299D01*
X237313Y560650D01*
X237313Y558830D01*
X236629Y557181D01*
X236620Y557151D01*
X236606Y557123D01*
X236562Y556958D01*
X236513Y556795D01*
X236510Y556764D01*
X236502Y556734D01*
X236475Y556403D01*
X236475Y476902D01*
X236477Y476876D01*
X236475Y476849D01*
X236497Y476675D01*
X236515Y476502D01*
X236522Y476476D01*
X236526Y476449D01*
X236582Y476284D01*
X236633Y476117D01*
X236646Y476093D01*
X236654Y476068D01*
X236729Y475938D01*
X236729Y468943D01*
X236708Y468901D01*
X236626Y468747D01*
X236618Y468721D01*
X236606Y468697D01*
X236561Y468528D01*
X236511Y468361D01*
X236509Y468334D01*
X236502Y468308D01*
X236475Y467978D01*
X236475Y297066D01*
X236477Y297048D01*
X236475Y297030D01*
X236497Y296847D01*
X236515Y296665D01*
X236520Y296648D01*
X236522Y296631D01*
X236579Y296456D01*
X236633Y296280D01*
X236641Y296265D01*
X236647Y296248D01*
X236737Y296088D01*
X236825Y295926D01*
X236836Y295913D01*
X236845Y295897D01*
X236965Y295758D01*
X237082Y295617D01*
X237096Y295606D01*
X237108Y295592D01*
X237253Y295480D01*
X237396Y295365D01*
X237412Y295357D01*
X237426Y295346D01*
X237591Y295264D01*
X237753Y295179D01*
X237770Y295174D01*
X237786Y295166D01*
X237965Y295119D01*
X238140Y295068D01*
X238158Y295066D01*
X238175Y295062D01*
X238506Y295035D01*
X241934Y295035D01*
X241961Y295037D01*
X241987Y295035D01*
X242160Y295057D01*
X242334Y295075D01*
X242360Y295083D01*
X242387Y295086D01*
X242552Y295141D01*
X242719Y295193D01*
X242743Y295206D01*
X242768Y295214D01*
X242920Y295301D01*
X243073Y295385D01*
X243094Y295402D01*
X243117Y295415D01*
X243209Y295493D01*
X246871Y297010D01*
X250789Y297010D01*
X254409Y295510D01*
X257180Y292739D01*
X258680Y289119D01*
X258680Y285201D01*
X257180Y281581D01*
X254409Y278810D01*
X250789Y277310D01*
X246871Y277310D01*
X243198Y278832D01*
X243194Y278834D01*
X243059Y278945D01*
X243035Y278958D01*
X243014Y278974D01*
X242857Y279052D01*
X242703Y279134D01*
X242677Y279142D01*
X242653Y279154D01*
X242484Y279199D01*
X242317Y279249D01*
X242290Y279251D01*
X242264Y279258D01*
X241934Y279285D01*
X230326Y279285D01*
X230299Y279283D01*
X230273Y279285D01*
X230100Y279263D01*
X229926Y279245D01*
X229900Y279237D01*
X229873Y279234D01*
X229708Y279179D01*
X229541Y279127D01*
X229517Y279114D01*
X229492Y279106D01*
X229340Y279019D01*
X229187Y278935D01*
X229166Y278918D01*
X229143Y278905D01*
X229051Y278827D01*
X225389Y277310D01*
X221471Y277310D01*
G37*
%LPD*%
%LPC*%
G36*
X199330Y573678D02*
X199330Y573678D01*
X197916Y574398D01*
X196633Y575331D01*
X195511Y576453D01*
X194578Y577736D01*
X193858Y579150D01*
X193368Y580659D01*
X193119Y582227D01*
X193119Y582299D01*
X193118Y582308D01*
X193119Y582317D01*
X193098Y582509D01*
X193079Y582699D01*
X193077Y582708D01*
X193076Y582717D01*
X193017Y582901D01*
X192961Y583084D01*
X192957Y583092D01*
X192954Y583101D01*
X192861Y583269D01*
X192769Y583438D01*
X192764Y583445D01*
X192759Y583453D01*
X192635Y583600D01*
X192512Y583748D01*
X192505Y583753D01*
X192499Y583760D01*
X192347Y583880D01*
X192198Y584000D01*
X192190Y584004D01*
X192183Y584010D01*
X192010Y584097D01*
X191841Y584186D01*
X191832Y584188D01*
X191824Y584192D01*
X191638Y584244D01*
X191454Y584297D01*
X191445Y584298D01*
X191436Y584300D01*
X191243Y584314D01*
X191052Y584330D01*
X191044Y584329D01*
X191035Y584329D01*
X190842Y584305D01*
X190653Y584283D01*
X190644Y584280D01*
X190635Y584279D01*
X190453Y584218D01*
X190270Y584158D01*
X190262Y584154D01*
X190254Y584151D01*
X190087Y584055D01*
X189919Y583960D01*
X189912Y583954D01*
X189905Y583950D01*
X189652Y583735D01*
X186960Y581044D01*
X186941Y581020D01*
X186917Y580999D01*
X186813Y580864D01*
X186705Y580732D01*
X186691Y580705D01*
X186672Y580680D01*
X186520Y580385D01*
X185485Y577885D01*
X182935Y575335D01*
X181378Y574690D01*
X181377Y574690D01*
X179603Y573955D01*
X175997Y573955D01*
X172665Y575335D01*
X170115Y577885D01*
X168735Y581217D01*
X168735Y584823D01*
X170115Y588155D01*
X172665Y590705D01*
X173751Y591155D01*
X173771Y591165D01*
X173792Y591172D01*
X173948Y591260D01*
X174106Y591345D01*
X174123Y591359D01*
X174143Y591370D01*
X174278Y591487D01*
X174417Y591601D01*
X174431Y591619D01*
X174448Y591633D01*
X174557Y591775D01*
X174670Y591914D01*
X174681Y591934D01*
X174694Y591951D01*
X174774Y592112D01*
X174857Y592270D01*
X174864Y592292D01*
X174874Y592312D01*
X174920Y592485D01*
X174970Y592657D01*
X174972Y592679D01*
X174978Y592701D01*
X175005Y593031D01*
X175005Y645778D01*
X175003Y645804D01*
X175005Y645831D01*
X174983Y646005D01*
X174965Y646178D01*
X174958Y646204D01*
X174954Y646230D01*
X174899Y646396D01*
X174847Y646563D01*
X174834Y646587D01*
X174826Y646612D01*
X174751Y646742D01*
X174751Y653607D01*
X179605Y658461D01*
X179649Y658475D01*
X179816Y658527D01*
X179840Y658540D01*
X179865Y658548D01*
X180017Y658635D01*
X180170Y658719D01*
X180191Y658736D01*
X180214Y658749D01*
X180467Y658964D01*
X218947Y697443D01*
X218958Y697457D01*
X218972Y697469D01*
X219086Y697613D01*
X219202Y697755D01*
X219210Y697771D01*
X219221Y697785D01*
X219305Y697949D01*
X219391Y698111D01*
X219396Y698128D01*
X219404Y698144D01*
X219453Y698321D01*
X219505Y698496D01*
X219507Y698514D01*
X219512Y698531D01*
X219525Y698715D01*
X219542Y698897D01*
X219540Y698915D01*
X219541Y698933D01*
X219518Y699115D01*
X219498Y699298D01*
X219493Y699315D01*
X219491Y699332D01*
X219432Y699506D01*
X219377Y699682D01*
X219368Y699697D01*
X219362Y699714D01*
X219271Y699872D01*
X219182Y700034D01*
X219170Y700047D01*
X219162Y700063D01*
X218947Y700316D01*
X215936Y703326D01*
X213820Y708435D01*
X213820Y713965D01*
X215936Y719074D01*
X219846Y722984D01*
X220580Y723287D01*
X220580Y723288D01*
X224955Y725100D01*
X229642Y725100D01*
X229668Y725102D01*
X229695Y725100D01*
X229869Y725122D01*
X230042Y725140D01*
X230068Y725147D01*
X230095Y725151D01*
X230260Y725206D01*
X230427Y725258D01*
X230451Y725271D01*
X230476Y725279D01*
X230628Y725366D01*
X230781Y725450D01*
X230802Y725467D01*
X230825Y725480D01*
X231078Y725695D01*
X248659Y743276D01*
X251554Y744475D01*
X255566Y744475D01*
X258461Y743276D01*
X260676Y741061D01*
X261875Y738166D01*
X261875Y735034D01*
X260676Y732139D01*
X258461Y729924D01*
X257332Y729456D01*
X257304Y729442D01*
X257275Y729432D01*
X257127Y729347D01*
X256977Y729266D01*
X256953Y729247D01*
X256926Y729231D01*
X256673Y729016D01*
X242215Y714558D01*
X242198Y714537D01*
X242177Y714520D01*
X242070Y714382D01*
X241960Y714247D01*
X241947Y714223D01*
X241931Y714202D01*
X241853Y714045D01*
X241771Y713891D01*
X241763Y713865D01*
X241751Y713841D01*
X241706Y713672D01*
X241656Y713505D01*
X241654Y713478D01*
X241647Y713453D01*
X241620Y713122D01*
X241620Y708435D01*
X239504Y703326D01*
X236190Y700012D01*
X236173Y699992D01*
X236152Y699974D01*
X236045Y699836D01*
X235935Y699701D01*
X235922Y699677D01*
X235906Y699656D01*
X235828Y699499D01*
X235746Y699345D01*
X235738Y699320D01*
X235726Y699296D01*
X235681Y699126D01*
X235631Y698959D01*
X235629Y698933D01*
X235622Y698907D01*
X235595Y698576D01*
X235595Y693514D01*
X234396Y690619D01*
X191604Y647827D01*
X191587Y647806D01*
X191566Y647789D01*
X191459Y647651D01*
X191349Y647516D01*
X191336Y647492D01*
X191320Y647471D01*
X191242Y647314D01*
X191160Y647160D01*
X191152Y647134D01*
X191140Y647110D01*
X191095Y646941D01*
X191073Y646867D01*
X191066Y646858D01*
X190988Y646701D01*
X190906Y646547D01*
X190898Y646521D01*
X190886Y646497D01*
X190841Y646328D01*
X190791Y646161D01*
X190789Y646134D01*
X190782Y646108D01*
X190755Y645778D01*
X190755Y589260D01*
X190767Y589134D01*
X190770Y589008D01*
X190787Y588935D01*
X190795Y588860D01*
X190832Y588739D01*
X190860Y588615D01*
X190891Y588547D01*
X190913Y588475D01*
X190973Y588363D01*
X191025Y588248D01*
X191069Y588187D01*
X191105Y588121D01*
X191185Y588024D01*
X191259Y587921D01*
X191314Y587869D01*
X191362Y587811D01*
X191461Y587732D01*
X191553Y587646D01*
X191618Y587606D01*
X191676Y587559D01*
X191788Y587501D01*
X191896Y587434D01*
X191967Y587408D01*
X192033Y587374D01*
X192155Y587339D01*
X192274Y587295D01*
X192348Y587283D01*
X192420Y587262D01*
X192547Y587252D01*
X192671Y587232D01*
X192746Y587235D01*
X192822Y587229D01*
X192947Y587244D01*
X193074Y587249D01*
X193147Y587267D01*
X193221Y587276D01*
X193342Y587315D01*
X193465Y587346D01*
X193533Y587378D01*
X193604Y587401D01*
X193714Y587463D01*
X193829Y587517D01*
X193889Y587562D01*
X193955Y587599D01*
X194051Y587682D01*
X194152Y587757D01*
X194203Y587813D01*
X194259Y587862D01*
X194337Y587962D01*
X194422Y588056D01*
X194468Y588131D01*
X194506Y588180D01*
X194539Y588246D01*
X194553Y588269D01*
X195511Y589587D01*
X196633Y590709D01*
X197916Y591642D01*
X199330Y592362D01*
X200701Y592807D01*
X200701Y583488D01*
X200702Y583470D01*
X200701Y583453D01*
X200722Y583270D01*
X200741Y583088D01*
X200746Y583071D01*
X200748Y583053D01*
X200761Y583012D01*
X200734Y582918D01*
X200732Y582900D01*
X200728Y582883D01*
X200701Y582552D01*
X200701Y573233D01*
X199330Y573678D01*
G37*
%LPD*%
%LPC*%
G36*
X159713Y697300D02*
X159713Y697300D01*
X158820Y698193D01*
X158820Y724207D01*
X159713Y725100D01*
X162814Y725100D01*
X162832Y725102D01*
X162850Y725100D01*
X163032Y725121D01*
X163215Y725140D01*
X163232Y725145D01*
X163249Y725147D01*
X163424Y725204D01*
X163600Y725258D01*
X163615Y725266D01*
X163632Y725272D01*
X163792Y725362D01*
X163954Y725450D01*
X163967Y725461D01*
X163983Y725470D01*
X164122Y725590D01*
X164263Y725707D01*
X164274Y725721D01*
X164288Y725733D01*
X164400Y725878D01*
X164515Y726021D01*
X164523Y726037D01*
X164534Y726051D01*
X164616Y726215D01*
X164701Y726378D01*
X164706Y726395D01*
X164714Y726411D01*
X164761Y726589D01*
X164812Y726765D01*
X164814Y726783D01*
X164818Y726800D01*
X164845Y727131D01*
X164845Y754285D01*
X164843Y754308D01*
X164845Y754330D01*
X164823Y754507D01*
X164805Y754686D01*
X164799Y754707D01*
X164796Y754729D01*
X164740Y754899D01*
X164687Y755071D01*
X164677Y755091D01*
X164670Y755112D01*
X164581Y755267D01*
X164495Y755425D01*
X164481Y755442D01*
X164470Y755461D01*
X164352Y755597D01*
X164238Y755734D01*
X164220Y755748D01*
X164206Y755765D01*
X164064Y755874D01*
X163924Y755987D01*
X163904Y755997D01*
X163886Y756010D01*
X163591Y756162D01*
X159627Y757804D01*
X153124Y764307D01*
X149605Y772802D01*
X149605Y781998D01*
X153124Y790493D01*
X159627Y796996D01*
X168122Y800515D01*
X177318Y800515D01*
X185813Y796996D01*
X192316Y790493D01*
X195835Y781998D01*
X195835Y772802D01*
X192316Y764307D01*
X185813Y757804D01*
X181849Y756162D01*
X181829Y756152D01*
X181808Y756145D01*
X181652Y756056D01*
X181494Y755972D01*
X181477Y755958D01*
X181457Y755947D01*
X181322Y755830D01*
X181183Y755715D01*
X181169Y755698D01*
X181152Y755684D01*
X181043Y755542D01*
X180930Y755403D01*
X180919Y755383D01*
X180906Y755365D01*
X180826Y755205D01*
X180743Y755046D01*
X180736Y755025D01*
X180726Y755005D01*
X180680Y754831D01*
X180630Y754660D01*
X180628Y754638D01*
X180622Y754616D01*
X180595Y754285D01*
X180595Y727131D01*
X180597Y727113D01*
X180595Y727095D01*
X180616Y726913D01*
X180635Y726730D01*
X180640Y726713D01*
X180642Y726696D01*
X180699Y726521D01*
X180753Y726345D01*
X180761Y726330D01*
X180767Y726313D01*
X180857Y726153D01*
X180945Y725991D01*
X180956Y725978D01*
X180965Y725962D01*
X181085Y725823D01*
X181202Y725682D01*
X181216Y725671D01*
X181228Y725657D01*
X181373Y725545D01*
X181516Y725430D01*
X181532Y725422D01*
X181546Y725411D01*
X181711Y725329D01*
X181873Y725244D01*
X181890Y725239D01*
X181906Y725231D01*
X182085Y725184D01*
X182260Y725133D01*
X182278Y725131D01*
X182295Y725127D01*
X182626Y725100D01*
X185727Y725100D01*
X186620Y724207D01*
X186620Y698193D01*
X185727Y697300D01*
X159713Y697300D01*
G37*
%LPD*%
%LPC*%
G36*
X65898Y302226D02*
X65898Y302226D01*
X65880Y302228D01*
X65863Y302232D01*
X65532Y302259D01*
X54355Y302259D01*
X54395Y302516D01*
X54976Y304303D01*
X55829Y305977D01*
X56934Y307498D01*
X58262Y308826D01*
X59783Y309931D01*
X61457Y310784D01*
X62189Y311022D01*
X62270Y311058D01*
X62355Y311084D01*
X62454Y311138D01*
X62558Y311184D01*
X62631Y311235D01*
X62708Y311277D01*
X62795Y311350D01*
X62887Y311415D01*
X62949Y311479D01*
X63017Y311536D01*
X63087Y311625D01*
X63165Y311707D01*
X63212Y311782D01*
X63268Y311851D01*
X63319Y311952D01*
X63379Y312047D01*
X63411Y312131D01*
X63451Y312209D01*
X63482Y312318D01*
X63522Y312424D01*
X63537Y312512D01*
X63561Y312597D01*
X63570Y312709D01*
X63588Y312821D01*
X63585Y312910D01*
X63592Y312998D01*
X63579Y313110D01*
X63575Y313223D01*
X63554Y313310D01*
X63544Y313398D01*
X63508Y313505D01*
X63482Y313615D01*
X63445Y313696D01*
X63417Y313780D01*
X63361Y313878D01*
X63314Y313981D01*
X63262Y314053D01*
X63218Y314130D01*
X63143Y314215D01*
X63077Y314306D01*
X63011Y314367D01*
X62953Y314433D01*
X62864Y314502D01*
X62780Y314579D01*
X62704Y314625D01*
X62634Y314679D01*
X62508Y314743D01*
X62436Y314787D01*
X62393Y314803D01*
X62339Y314830D01*
X59853Y315860D01*
X56780Y318933D01*
X55117Y322947D01*
X55117Y327293D01*
X56780Y331307D01*
X59853Y334380D01*
X63627Y335943D01*
X63635Y335948D01*
X63644Y335950D01*
X63813Y336043D01*
X63982Y336134D01*
X63989Y336139D01*
X63997Y336144D01*
X64145Y336268D01*
X64293Y336390D01*
X64298Y336397D01*
X64305Y336403D01*
X64425Y336554D01*
X64546Y336703D01*
X64551Y336710D01*
X64556Y336718D01*
X64643Y336888D01*
X64733Y337059D01*
X64736Y337068D01*
X64740Y337076D01*
X64792Y337258D01*
X64847Y337446D01*
X64847Y337455D01*
X64850Y337463D01*
X64865Y337654D01*
X64881Y337847D01*
X64880Y337856D01*
X64881Y337864D01*
X64858Y338054D01*
X64836Y338247D01*
X64833Y338255D01*
X64832Y338264D01*
X64772Y338445D01*
X64713Y338630D01*
X64708Y338638D01*
X64706Y338646D01*
X64611Y338812D01*
X64516Y338982D01*
X64511Y338988D01*
X64506Y338996D01*
X64379Y339142D01*
X64255Y339287D01*
X64248Y339293D01*
X64242Y339300D01*
X64089Y339417D01*
X63938Y339536D01*
X63930Y339540D01*
X63923Y339545D01*
X63627Y339697D01*
X59853Y341260D01*
X56780Y344333D01*
X55117Y348347D01*
X55117Y352693D01*
X56780Y356707D01*
X59853Y359780D01*
X63627Y361343D01*
X63635Y361348D01*
X63644Y361350D01*
X63813Y361443D01*
X63982Y361534D01*
X63989Y361539D01*
X63997Y361544D01*
X64145Y361668D01*
X64293Y361790D01*
X64298Y361797D01*
X64305Y361803D01*
X64425Y361954D01*
X64546Y362103D01*
X64551Y362110D01*
X64556Y362118D01*
X64643Y362288D01*
X64733Y362459D01*
X64736Y362468D01*
X64740Y362476D01*
X64792Y362658D01*
X64847Y362846D01*
X64847Y362855D01*
X64850Y362863D01*
X64865Y363054D01*
X64881Y363247D01*
X64880Y363256D01*
X64881Y363264D01*
X64858Y363455D01*
X64836Y363647D01*
X64833Y363655D01*
X64832Y363664D01*
X64772Y363845D01*
X64713Y364030D01*
X64708Y364038D01*
X64706Y364046D01*
X64611Y364212D01*
X64516Y364382D01*
X64511Y364388D01*
X64506Y364396D01*
X64379Y364542D01*
X64255Y364687D01*
X64248Y364693D01*
X64242Y364700D01*
X64089Y364817D01*
X63938Y364936D01*
X63930Y364940D01*
X63923Y364945D01*
X63627Y365097D01*
X59853Y366660D01*
X56780Y369733D01*
X55117Y373747D01*
X55117Y378093D01*
X56780Y382107D01*
X59853Y385180D01*
X63627Y386743D01*
X63635Y386748D01*
X63644Y386750D01*
X63813Y386843D01*
X63982Y386934D01*
X63989Y386939D01*
X63997Y386944D01*
X64145Y387068D01*
X64293Y387190D01*
X64298Y387197D01*
X64305Y387203D01*
X64425Y387354D01*
X64546Y387503D01*
X64551Y387510D01*
X64556Y387518D01*
X64643Y387688D01*
X64733Y387859D01*
X64736Y387868D01*
X64740Y387876D01*
X64792Y388058D01*
X64847Y388246D01*
X64847Y388255D01*
X64850Y388263D01*
X64865Y388454D01*
X64881Y388647D01*
X64880Y388656D01*
X64881Y388664D01*
X64858Y388855D01*
X64836Y389047D01*
X64833Y389055D01*
X64832Y389064D01*
X64772Y389245D01*
X64713Y389430D01*
X64708Y389438D01*
X64706Y389446D01*
X64611Y389612D01*
X64516Y389782D01*
X64511Y389788D01*
X64506Y389796D01*
X64379Y389942D01*
X64255Y390087D01*
X64248Y390093D01*
X64242Y390100D01*
X64089Y390217D01*
X63938Y390336D01*
X63930Y390340D01*
X63923Y390345D01*
X63627Y390497D01*
X59853Y392060D01*
X56780Y395133D01*
X55117Y399147D01*
X55117Y403493D01*
X56780Y407507D01*
X59853Y410580D01*
X63627Y412143D01*
X63635Y412148D01*
X63644Y412150D01*
X63813Y412243D01*
X63982Y412334D01*
X63989Y412339D01*
X63997Y412344D01*
X64145Y412468D01*
X64293Y412590D01*
X64298Y412597D01*
X64305Y412603D01*
X64425Y412754D01*
X64546Y412903D01*
X64551Y412910D01*
X64556Y412918D01*
X64643Y413088D01*
X64733Y413259D01*
X64736Y413268D01*
X64740Y413276D01*
X64792Y413458D01*
X64847Y413646D01*
X64847Y413655D01*
X64850Y413663D01*
X64865Y413854D01*
X64881Y414047D01*
X64880Y414056D01*
X64881Y414064D01*
X64858Y414255D01*
X64836Y414447D01*
X64833Y414455D01*
X64832Y414464D01*
X64772Y414645D01*
X64713Y414830D01*
X64708Y414838D01*
X64706Y414846D01*
X64611Y415012D01*
X64516Y415182D01*
X64511Y415188D01*
X64506Y415196D01*
X64379Y415342D01*
X64255Y415487D01*
X64248Y415493D01*
X64242Y415500D01*
X64089Y415617D01*
X63938Y415736D01*
X63930Y415740D01*
X63923Y415745D01*
X63627Y415897D01*
X59853Y417460D01*
X56780Y420533D01*
X55117Y424547D01*
X55117Y428893D01*
X56780Y432907D01*
X59853Y435980D01*
X62029Y436881D01*
X63867Y437643D01*
X68213Y437643D01*
X72227Y435980D01*
X75300Y432907D01*
X75449Y432547D01*
X75460Y432527D01*
X75467Y432506D01*
X75555Y432350D01*
X75639Y432192D01*
X75654Y432175D01*
X75665Y432155D01*
X75782Y432019D01*
X75896Y431881D01*
X75913Y431867D01*
X75928Y431850D01*
X76069Y431741D01*
X76208Y431628D01*
X76228Y431617D01*
X76246Y431604D01*
X76406Y431524D01*
X76565Y431441D01*
X76586Y431434D01*
X76606Y431424D01*
X76780Y431378D01*
X76951Y431328D01*
X76974Y431326D01*
X76995Y431320D01*
X77326Y431293D01*
X83128Y431293D01*
X83159Y431296D01*
X83191Y431294D01*
X83360Y431316D01*
X83529Y431333D01*
X83559Y431342D01*
X83590Y431346D01*
X83906Y431447D01*
X85304Y432027D01*
X87416Y432027D01*
X89366Y431219D01*
X90859Y429726D01*
X91667Y427776D01*
X91667Y425664D01*
X90859Y423714D01*
X89366Y422221D01*
X87416Y421413D01*
X85304Y421413D01*
X83906Y421993D01*
X83876Y422002D01*
X83848Y422016D01*
X83683Y422060D01*
X83520Y422109D01*
X83489Y422112D01*
X83459Y422120D01*
X83128Y422147D01*
X77326Y422147D01*
X77304Y422145D01*
X77281Y422147D01*
X77104Y422125D01*
X76925Y422107D01*
X76904Y422101D01*
X76882Y422098D01*
X76712Y422042D01*
X76540Y421989D01*
X76521Y421979D01*
X76499Y421972D01*
X76344Y421883D01*
X76186Y421797D01*
X76169Y421783D01*
X76150Y421772D01*
X76015Y421655D01*
X75877Y421540D01*
X75863Y421522D01*
X75846Y421508D01*
X75737Y421366D01*
X75625Y421226D01*
X75614Y421206D01*
X75601Y421188D01*
X75449Y420893D01*
X75300Y420533D01*
X72227Y417460D01*
X68453Y415897D01*
X68445Y415892D01*
X68436Y415890D01*
X68268Y415798D01*
X68098Y415706D01*
X68091Y415701D01*
X68083Y415696D01*
X67937Y415573D01*
X67787Y415450D01*
X67782Y415443D01*
X67775Y415437D01*
X67655Y415287D01*
X67534Y415137D01*
X67529Y415129D01*
X67524Y415123D01*
X67436Y414951D01*
X67347Y414781D01*
X67344Y414772D01*
X67340Y414764D01*
X67287Y414579D01*
X67233Y414394D01*
X67233Y414386D01*
X67230Y414377D01*
X67215Y414186D01*
X67199Y413993D01*
X67200Y413984D01*
X67199Y413976D01*
X67223Y413783D01*
X67244Y413593D01*
X67247Y413585D01*
X67248Y413576D01*
X67309Y413391D01*
X67367Y413210D01*
X67371Y413202D01*
X67374Y413194D01*
X67470Y413026D01*
X67564Y412858D01*
X67569Y412852D01*
X67574Y412844D01*
X67701Y412698D01*
X67825Y412553D01*
X67832Y412547D01*
X67838Y412540D01*
X67991Y412423D01*
X68142Y412304D01*
X68150Y412300D01*
X68157Y412295D01*
X68453Y412143D01*
X72227Y410580D01*
X75300Y407507D01*
X75449Y407147D01*
X75460Y407127D01*
X75467Y407106D01*
X75555Y406949D01*
X75639Y406792D01*
X75654Y406775D01*
X75665Y406755D01*
X75782Y406619D01*
X75896Y406481D01*
X75913Y406467D01*
X75928Y406450D01*
X76069Y406341D01*
X76208Y406228D01*
X76228Y406217D01*
X76246Y406204D01*
X76406Y406124D01*
X76565Y406041D01*
X76586Y406034D01*
X76606Y406024D01*
X76780Y405978D01*
X76951Y405928D01*
X76974Y405926D01*
X76995Y405920D01*
X77326Y405893D01*
X83128Y405893D01*
X83159Y405896D01*
X83191Y405894D01*
X83360Y405916D01*
X83529Y405933D01*
X83559Y405942D01*
X83590Y405946D01*
X83906Y406047D01*
X85304Y406627D01*
X87416Y406627D01*
X89366Y405819D01*
X90859Y404326D01*
X91667Y402376D01*
X91667Y400264D01*
X90859Y398314D01*
X89366Y396821D01*
X87416Y396013D01*
X85304Y396013D01*
X83906Y396593D01*
X83876Y396602D01*
X83848Y396616D01*
X83683Y396660D01*
X83520Y396709D01*
X83489Y396712D01*
X83459Y396720D01*
X83128Y396747D01*
X77326Y396747D01*
X77304Y396745D01*
X77281Y396747D01*
X77104Y396725D01*
X76925Y396707D01*
X76904Y396701D01*
X76882Y396698D01*
X76712Y396642D01*
X76540Y396589D01*
X76521Y396579D01*
X76499Y396572D01*
X76344Y396483D01*
X76186Y396397D01*
X76169Y396383D01*
X76150Y396372D01*
X76015Y396255D01*
X75877Y396140D01*
X75863Y396122D01*
X75846Y396108D01*
X75737Y395966D01*
X75625Y395826D01*
X75614Y395806D01*
X75601Y395788D01*
X75449Y395493D01*
X75300Y395133D01*
X72227Y392060D01*
X68453Y390497D01*
X68445Y390492D01*
X68436Y390490D01*
X68268Y390398D01*
X68098Y390306D01*
X68091Y390301D01*
X68083Y390296D01*
X67937Y390173D01*
X67787Y390050D01*
X67782Y390043D01*
X67775Y390037D01*
X67655Y389887D01*
X67534Y389737D01*
X67529Y389729D01*
X67524Y389723D01*
X67436Y389551D01*
X67347Y389381D01*
X67344Y389372D01*
X67340Y389364D01*
X67287Y389179D01*
X67233Y388994D01*
X67233Y388986D01*
X67230Y388977D01*
X67215Y388786D01*
X67199Y388593D01*
X67200Y388584D01*
X67199Y388576D01*
X67223Y388383D01*
X67244Y388193D01*
X67247Y388185D01*
X67248Y388176D01*
X67309Y387991D01*
X67367Y387810D01*
X67371Y387802D01*
X67374Y387794D01*
X67470Y387626D01*
X67564Y387458D01*
X67569Y387452D01*
X67574Y387444D01*
X67700Y387299D01*
X67825Y387153D01*
X67832Y387147D01*
X67838Y387140D01*
X67991Y387023D01*
X68142Y386904D01*
X68150Y386900D01*
X68157Y386895D01*
X68453Y386743D01*
X72227Y385180D01*
X75300Y382107D01*
X75449Y381747D01*
X75460Y381727D01*
X75467Y381706D01*
X75555Y381550D01*
X75639Y381392D01*
X75654Y381375D01*
X75665Y381355D01*
X75782Y381219D01*
X75896Y381081D01*
X75913Y381067D01*
X75928Y381050D01*
X76069Y380941D01*
X76208Y380828D01*
X76228Y380817D01*
X76246Y380804D01*
X76406Y380724D01*
X76565Y380641D01*
X76586Y380634D01*
X76606Y380624D01*
X76780Y380578D01*
X76951Y380528D01*
X76974Y380526D01*
X76995Y380520D01*
X77326Y380493D01*
X83128Y380493D01*
X83159Y380496D01*
X83191Y380494D01*
X83360Y380516D01*
X83529Y380533D01*
X83559Y380542D01*
X83590Y380546D01*
X83906Y380647D01*
X85304Y381227D01*
X87416Y381227D01*
X89366Y380419D01*
X90859Y378926D01*
X91667Y376976D01*
X91667Y374864D01*
X90859Y372914D01*
X89366Y371421D01*
X87416Y370613D01*
X85304Y370613D01*
X83906Y371193D01*
X83876Y371202D01*
X83848Y371216D01*
X83683Y371260D01*
X83520Y371309D01*
X83489Y371312D01*
X83459Y371320D01*
X83128Y371347D01*
X77326Y371347D01*
X77304Y371345D01*
X77281Y371347D01*
X77104Y371325D01*
X76925Y371307D01*
X76904Y371301D01*
X76882Y371298D01*
X76712Y371242D01*
X76540Y371189D01*
X76521Y371179D01*
X76499Y371172D01*
X76344Y371083D01*
X76186Y370997D01*
X76169Y370983D01*
X76150Y370972D01*
X76015Y370855D01*
X75877Y370740D01*
X75863Y370722D01*
X75846Y370708D01*
X75737Y370566D01*
X75625Y370426D01*
X75614Y370406D01*
X75601Y370388D01*
X75449Y370093D01*
X75300Y369733D01*
X72227Y366660D01*
X68453Y365097D01*
X68445Y365092D01*
X68436Y365090D01*
X68268Y364998D01*
X68098Y364906D01*
X68091Y364901D01*
X68083Y364896D01*
X67937Y364773D01*
X67787Y364650D01*
X67782Y364643D01*
X67775Y364637D01*
X67655Y364487D01*
X67534Y364337D01*
X67529Y364329D01*
X67524Y364323D01*
X67436Y364151D01*
X67347Y363981D01*
X67344Y363972D01*
X67340Y363964D01*
X67287Y363779D01*
X67233Y363594D01*
X67233Y363586D01*
X67230Y363577D01*
X67215Y363386D01*
X67199Y363193D01*
X67200Y363184D01*
X67199Y363176D01*
X67223Y362983D01*
X67244Y362793D01*
X67247Y362785D01*
X67248Y362776D01*
X67309Y362591D01*
X67367Y362410D01*
X67371Y362402D01*
X67374Y362394D01*
X67470Y362226D01*
X67564Y362058D01*
X67569Y362052D01*
X67574Y362044D01*
X67700Y361899D01*
X67825Y361753D01*
X67832Y361747D01*
X67838Y361740D01*
X67991Y361623D01*
X68142Y361504D01*
X68150Y361500D01*
X68157Y361495D01*
X68453Y361343D01*
X72227Y359780D01*
X75300Y356707D01*
X75449Y356347D01*
X75460Y356327D01*
X75467Y356306D01*
X75555Y356150D01*
X75639Y355992D01*
X75654Y355975D01*
X75665Y355955D01*
X75782Y355819D01*
X75896Y355681D01*
X75913Y355667D01*
X75928Y355650D01*
X76069Y355541D01*
X76208Y355428D01*
X76228Y355417D01*
X76246Y355404D01*
X76406Y355324D01*
X76565Y355241D01*
X76586Y355234D01*
X76606Y355224D01*
X76780Y355178D01*
X76951Y355128D01*
X76974Y355126D01*
X76995Y355120D01*
X77326Y355093D01*
X83128Y355093D01*
X83159Y355096D01*
X83191Y355094D01*
X83360Y355116D01*
X83529Y355133D01*
X83559Y355142D01*
X83590Y355146D01*
X83906Y355247D01*
X85304Y355827D01*
X87416Y355827D01*
X89366Y355019D01*
X90859Y353526D01*
X91667Y351576D01*
X91667Y349464D01*
X90859Y347514D01*
X89366Y346021D01*
X87416Y345213D01*
X85304Y345213D01*
X83906Y345793D01*
X83876Y345802D01*
X83848Y345816D01*
X83683Y345860D01*
X83520Y345909D01*
X83489Y345912D01*
X83459Y345920D01*
X83128Y345947D01*
X77326Y345947D01*
X77304Y345945D01*
X77281Y345947D01*
X77104Y345925D01*
X76925Y345907D01*
X76904Y345901D01*
X76882Y345898D01*
X76712Y345842D01*
X76540Y345789D01*
X76521Y345779D01*
X76499Y345772D01*
X76344Y345683D01*
X76186Y345597D01*
X76169Y345583D01*
X76150Y345572D01*
X76015Y345455D01*
X75877Y345340D01*
X75863Y345322D01*
X75846Y345308D01*
X75737Y345166D01*
X75625Y345026D01*
X75614Y345006D01*
X75601Y344988D01*
X75449Y344693D01*
X75300Y344333D01*
X72227Y341260D01*
X71832Y341096D01*
X68453Y339697D01*
X68445Y339692D01*
X68436Y339690D01*
X68268Y339598D01*
X68098Y339506D01*
X68091Y339501D01*
X68083Y339496D01*
X67937Y339373D01*
X67787Y339250D01*
X67782Y339243D01*
X67775Y339237D01*
X67655Y339087D01*
X67534Y338937D01*
X67529Y338929D01*
X67524Y338923D01*
X67436Y338751D01*
X67347Y338581D01*
X67344Y338572D01*
X67340Y338564D01*
X67287Y338379D01*
X67233Y338194D01*
X67233Y338186D01*
X67230Y338177D01*
X67215Y337986D01*
X67199Y337793D01*
X67200Y337784D01*
X67199Y337776D01*
X67223Y337583D01*
X67244Y337393D01*
X67247Y337385D01*
X67248Y337376D01*
X67309Y337191D01*
X67367Y337010D01*
X67371Y337002D01*
X67374Y336994D01*
X67470Y336826D01*
X67564Y336658D01*
X67569Y336652D01*
X67574Y336644D01*
X67700Y336499D01*
X67825Y336353D01*
X67832Y336347D01*
X67838Y336340D01*
X67991Y336223D01*
X68142Y336104D01*
X68150Y336100D01*
X68157Y336095D01*
X68453Y335943D01*
X72227Y334380D01*
X75300Y331307D01*
X75449Y330947D01*
X75460Y330927D01*
X75467Y330906D01*
X75555Y330750D01*
X75639Y330592D01*
X75654Y330575D01*
X75665Y330555D01*
X75782Y330419D01*
X75896Y330281D01*
X75913Y330267D01*
X75928Y330250D01*
X76069Y330141D01*
X76208Y330028D01*
X76228Y330017D01*
X76246Y330004D01*
X76406Y329924D01*
X76565Y329841D01*
X76586Y329834D01*
X76606Y329824D01*
X76780Y329778D01*
X76951Y329728D01*
X76974Y329726D01*
X76995Y329720D01*
X77326Y329693D01*
X83128Y329693D01*
X83159Y329696D01*
X83191Y329694D01*
X83360Y329716D01*
X83529Y329733D01*
X83559Y329742D01*
X83590Y329746D01*
X83906Y329847D01*
X85304Y330427D01*
X87416Y330427D01*
X89366Y329619D01*
X90859Y328126D01*
X91667Y326176D01*
X91667Y324064D01*
X90859Y322114D01*
X89366Y320621D01*
X87416Y319813D01*
X85304Y319813D01*
X83906Y320393D01*
X83876Y320402D01*
X83848Y320416D01*
X83683Y320460D01*
X83520Y320509D01*
X83489Y320512D01*
X83459Y320520D01*
X83128Y320547D01*
X77326Y320547D01*
X77304Y320545D01*
X77281Y320547D01*
X77104Y320525D01*
X76925Y320507D01*
X76904Y320501D01*
X76882Y320498D01*
X76712Y320442D01*
X76540Y320389D01*
X76521Y320379D01*
X76499Y320372D01*
X76344Y320283D01*
X76186Y320197D01*
X76169Y320183D01*
X76150Y320172D01*
X76015Y320055D01*
X75877Y319940D01*
X75863Y319922D01*
X75846Y319908D01*
X75737Y319766D01*
X75625Y319626D01*
X75614Y319606D01*
X75601Y319588D01*
X75449Y319293D01*
X75300Y318933D01*
X72227Y315860D01*
X69741Y314830D01*
X69663Y314788D01*
X69580Y314755D01*
X69486Y314693D01*
X69386Y314640D01*
X69318Y314584D01*
X69243Y314535D01*
X69163Y314456D01*
X69076Y314384D01*
X69020Y314315D01*
X68957Y314252D01*
X68893Y314159D01*
X68822Y314071D01*
X68781Y313993D01*
X68731Y313919D01*
X68688Y313815D01*
X68635Y313715D01*
X68610Y313629D01*
X68576Y313547D01*
X68554Y313437D01*
X68522Y313328D01*
X68514Y313240D01*
X68497Y313153D01*
X68497Y313039D01*
X68487Y312927D01*
X68497Y312839D01*
X68497Y312750D01*
X68520Y312639D01*
X68533Y312527D01*
X68560Y312442D01*
X68577Y312355D01*
X68621Y312251D01*
X68656Y312144D01*
X68699Y312066D01*
X68733Y311984D01*
X68797Y311891D01*
X68852Y311792D01*
X68910Y311725D01*
X68960Y311651D01*
X69040Y311572D01*
X69114Y311486D01*
X69184Y311432D01*
X69247Y311369D01*
X69342Y311308D01*
X69431Y311238D01*
X69510Y311198D01*
X69585Y311150D01*
X69715Y311095D01*
X69791Y311057D01*
X69835Y311045D01*
X69891Y311022D01*
X70623Y310784D01*
X72297Y309931D01*
X73818Y308826D01*
X75146Y307498D01*
X76251Y305977D01*
X77104Y304303D01*
X77685Y302516D01*
X77725Y302259D01*
X66548Y302259D01*
X66530Y302257D01*
X66513Y302259D01*
X66330Y302238D01*
X66148Y302219D01*
X66131Y302214D01*
X66113Y302212D01*
X66035Y302187D01*
X65898Y302226D01*
G37*
%LPD*%
%LPC*%
G36*
X405344Y675413D02*
X405344Y675413D01*
X403394Y676221D01*
X401901Y677714D01*
X401093Y679664D01*
X401093Y681776D01*
X401673Y683174D01*
X401682Y683204D01*
X401696Y683232D01*
X401740Y683397D01*
X401789Y683560D01*
X401792Y683591D01*
X401800Y683621D01*
X401827Y683952D01*
X401827Y692234D01*
X401825Y692252D01*
X401827Y692270D01*
X401806Y692452D01*
X401787Y692635D01*
X401782Y692652D01*
X401780Y692669D01*
X401723Y692844D01*
X401669Y693020D01*
X401661Y693035D01*
X401655Y693052D01*
X401565Y693212D01*
X401477Y693374D01*
X401466Y693387D01*
X401457Y693403D01*
X401337Y693542D01*
X401220Y693683D01*
X401206Y693694D01*
X401194Y693708D01*
X401049Y693820D01*
X400906Y693935D01*
X400890Y693943D01*
X400876Y693954D01*
X400711Y694036D01*
X400549Y694121D01*
X400532Y694126D01*
X400516Y694134D01*
X400337Y694181D01*
X400162Y694232D01*
X400144Y694234D01*
X400127Y694238D01*
X399796Y694265D01*
X399578Y694265D01*
X398685Y695158D01*
X398685Y708802D01*
X399578Y709695D01*
X399796Y709695D01*
X399814Y709697D01*
X399832Y709695D01*
X400014Y709716D01*
X400197Y709735D01*
X400214Y709740D01*
X400231Y709742D01*
X400406Y709799D01*
X400582Y709853D01*
X400597Y709861D01*
X400614Y709867D01*
X400774Y709957D01*
X400936Y710045D01*
X400949Y710056D01*
X400965Y710065D01*
X401104Y710185D01*
X401245Y710302D01*
X401256Y710316D01*
X401270Y710328D01*
X401382Y710473D01*
X401497Y710616D01*
X401505Y710632D01*
X401516Y710646D01*
X401598Y710811D01*
X401683Y710973D01*
X401688Y710990D01*
X401696Y711006D01*
X401743Y711185D01*
X401794Y711360D01*
X401796Y711378D01*
X401800Y711395D01*
X401827Y711726D01*
X401827Y774201D01*
X401825Y774228D01*
X401827Y774254D01*
X401805Y774428D01*
X401787Y774602D01*
X401780Y774627D01*
X401776Y774654D01*
X401720Y774820D01*
X401669Y774987D01*
X401656Y775010D01*
X401648Y775036D01*
X401561Y775187D01*
X401477Y775341D01*
X401460Y775361D01*
X401447Y775384D01*
X401232Y775637D01*
X399860Y777010D01*
X398685Y779845D01*
X398685Y782915D01*
X399860Y785750D01*
X402030Y787920D01*
X404865Y789095D01*
X407935Y789095D01*
X410770Y787920D01*
X412940Y785750D01*
X414115Y782915D01*
X414115Y779845D01*
X412940Y777010D01*
X411568Y775637D01*
X411551Y775617D01*
X411530Y775599D01*
X411423Y775461D01*
X411313Y775326D01*
X411300Y775302D01*
X411284Y775281D01*
X411206Y775124D01*
X411124Y774970D01*
X411116Y774945D01*
X411104Y774921D01*
X411059Y774752D01*
X411009Y774584D01*
X411007Y774558D01*
X411000Y774532D01*
X410973Y774201D01*
X410973Y763524D01*
X410975Y763506D01*
X410973Y763488D01*
X410994Y763306D01*
X411013Y763123D01*
X411018Y763106D01*
X411020Y763089D01*
X411077Y762914D01*
X411131Y762738D01*
X411139Y762723D01*
X411145Y762706D01*
X411235Y762546D01*
X411323Y762384D01*
X411334Y762371D01*
X411343Y762355D01*
X411463Y762216D01*
X411580Y762075D01*
X411594Y762064D01*
X411606Y762050D01*
X411751Y761938D01*
X411894Y761823D01*
X411910Y761815D01*
X411924Y761804D01*
X412089Y761722D01*
X412251Y761637D01*
X412268Y761632D01*
X412284Y761624D01*
X412463Y761577D01*
X412638Y761526D01*
X412656Y761524D01*
X412673Y761520D01*
X413004Y761493D01*
X428570Y761493D01*
X430250Y760797D01*
X480757Y710290D01*
X480778Y710273D01*
X480795Y710252D01*
X480933Y710145D01*
X481069Y710035D01*
X481092Y710022D01*
X481113Y710006D01*
X481270Y709928D01*
X481424Y709846D01*
X481450Y709838D01*
X481474Y709826D01*
X481643Y709781D01*
X481810Y709731D01*
X481837Y709729D01*
X481863Y709722D01*
X482193Y709695D01*
X484135Y709695D01*
X486970Y708520D01*
X489140Y706350D01*
X490315Y703515D01*
X490315Y700445D01*
X489140Y697610D01*
X486970Y695440D01*
X484135Y694265D01*
X481065Y694265D01*
X478230Y695440D01*
X476060Y697610D01*
X474885Y700445D01*
X474885Y702387D01*
X474883Y702413D01*
X474885Y702440D01*
X474863Y702614D01*
X474845Y702787D01*
X474838Y702813D01*
X474834Y702839D01*
X474779Y703005D01*
X474727Y703172D01*
X474714Y703196D01*
X474706Y703221D01*
X474619Y703373D01*
X474535Y703526D01*
X474518Y703547D01*
X474505Y703570D01*
X474290Y703823D01*
X465240Y712873D01*
X465233Y712879D01*
X465228Y712885D01*
X465078Y713006D01*
X464929Y713128D01*
X464921Y713132D01*
X464914Y713138D01*
X464744Y713226D01*
X464573Y713317D01*
X464564Y713319D01*
X464557Y713323D01*
X464372Y713376D01*
X464187Y713431D01*
X464178Y713432D01*
X464170Y713435D01*
X463978Y713450D01*
X463786Y713468D01*
X463777Y713467D01*
X463768Y713468D01*
X463579Y713445D01*
X463386Y713424D01*
X463377Y713422D01*
X463369Y713421D01*
X463187Y713361D01*
X463002Y713303D01*
X462994Y713299D01*
X462986Y713296D01*
X462817Y713201D01*
X462650Y713108D01*
X462643Y713102D01*
X462635Y713098D01*
X462489Y712972D01*
X462343Y712848D01*
X462337Y712841D01*
X462330Y712835D01*
X462213Y712683D01*
X462093Y712532D01*
X462089Y712524D01*
X462084Y712517D01*
X461998Y712345D01*
X461911Y712173D01*
X461908Y712164D01*
X461904Y712156D01*
X461854Y711970D01*
X461803Y711785D01*
X461802Y711776D01*
X461800Y711767D01*
X461773Y711437D01*
X461773Y709159D01*
X461775Y709132D01*
X461773Y709106D01*
X461795Y708932D01*
X461813Y708758D01*
X461820Y708733D01*
X461824Y708706D01*
X461879Y708541D01*
X461931Y708373D01*
X461944Y708350D01*
X461952Y708324D01*
X462039Y708173D01*
X462123Y708019D01*
X462140Y707999D01*
X462153Y707976D01*
X462368Y707723D01*
X463740Y706350D01*
X464915Y703515D01*
X464915Y700445D01*
X463740Y697610D01*
X461570Y695440D01*
X458735Y694265D01*
X455665Y694265D01*
X452830Y695440D01*
X450660Y697610D01*
X449485Y700445D01*
X449485Y703515D01*
X450660Y706350D01*
X451685Y707375D01*
X451696Y707389D01*
X451710Y707401D01*
X451824Y707545D01*
X451940Y707687D01*
X451949Y707703D01*
X451960Y707717D01*
X452043Y707881D01*
X452129Y708043D01*
X452134Y708060D01*
X452142Y708076D01*
X452191Y708253D01*
X452244Y708429D01*
X452245Y708446D01*
X452250Y708464D01*
X452263Y708647D01*
X452280Y708829D01*
X452278Y708847D01*
X452279Y708865D01*
X452257Y709045D01*
X452237Y709230D01*
X452231Y709247D01*
X452229Y709264D01*
X452171Y709438D01*
X452115Y709614D01*
X452106Y709629D01*
X452101Y709646D01*
X452009Y709805D01*
X451920Y709966D01*
X451909Y709980D01*
X451900Y709995D01*
X451685Y710248D01*
X441012Y720921D01*
X440988Y720941D01*
X440967Y720965D01*
X440832Y721069D01*
X440700Y721177D01*
X440673Y721191D01*
X440648Y721210D01*
X440353Y721362D01*
X438954Y721941D01*
X437461Y723434D01*
X436653Y725384D01*
X436653Y727496D01*
X437461Y729446D01*
X438954Y730939D01*
X440097Y731412D01*
X440098Y731413D01*
X440904Y731747D01*
X441463Y731747D01*
X441471Y731748D01*
X441480Y731747D01*
X441674Y731768D01*
X441863Y731787D01*
X441872Y731789D01*
X441881Y731790D01*
X442064Y731848D01*
X442248Y731905D01*
X442256Y731909D01*
X442265Y731912D01*
X442432Y732004D01*
X442602Y732097D01*
X442609Y732102D01*
X442617Y732107D01*
X442764Y732231D01*
X442911Y732354D01*
X442917Y732361D01*
X442924Y732367D01*
X443044Y732519D01*
X443164Y732668D01*
X443168Y732676D01*
X443173Y732683D01*
X443261Y732856D01*
X443349Y733025D01*
X443352Y733034D01*
X443356Y733042D01*
X443408Y733228D01*
X443461Y733412D01*
X443461Y733421D01*
X443464Y733430D01*
X443478Y733623D01*
X443494Y733814D01*
X443493Y733822D01*
X443493Y733831D01*
X443469Y734024D01*
X443447Y734213D01*
X443444Y734222D01*
X443443Y734231D01*
X443381Y734414D01*
X443322Y734596D01*
X443317Y734604D01*
X443315Y734612D01*
X443218Y734779D01*
X443124Y734947D01*
X443118Y734954D01*
X443114Y734961D01*
X442899Y735214D01*
X426361Y751752D01*
X426340Y751769D01*
X426323Y751790D01*
X426185Y751897D01*
X426049Y752007D01*
X426026Y752020D01*
X426005Y752036D01*
X425848Y752114D01*
X425694Y752196D01*
X425668Y752204D01*
X425644Y752216D01*
X425475Y752261D01*
X425308Y752311D01*
X425281Y752313D01*
X425255Y752320D01*
X424925Y752347D01*
X413004Y752347D01*
X412986Y752345D01*
X412968Y752347D01*
X412786Y752326D01*
X412603Y752307D01*
X412586Y752302D01*
X412569Y752300D01*
X412394Y752243D01*
X412218Y752189D01*
X412203Y752181D01*
X412186Y752175D01*
X412026Y752085D01*
X411864Y751997D01*
X411851Y751986D01*
X411835Y751977D01*
X411696Y751857D01*
X411555Y751740D01*
X411544Y751726D01*
X411530Y751714D01*
X411418Y751569D01*
X411303Y751426D01*
X411295Y751410D01*
X411284Y751396D01*
X411202Y751231D01*
X411117Y751069D01*
X411112Y751052D01*
X411104Y751036D01*
X411057Y750857D01*
X411006Y750682D01*
X411004Y750664D01*
X411000Y750647D01*
X410973Y750316D01*
X410973Y711726D01*
X410975Y711708D01*
X410973Y711690D01*
X410994Y711508D01*
X411013Y711325D01*
X411018Y711308D01*
X411020Y711291D01*
X411077Y711116D01*
X411131Y710940D01*
X411139Y710925D01*
X411145Y710908D01*
X411235Y710748D01*
X411323Y710586D01*
X411334Y710573D01*
X411343Y710557D01*
X411463Y710418D01*
X411580Y710277D01*
X411594Y710266D01*
X411606Y710252D01*
X411751Y710140D01*
X411894Y710025D01*
X411910Y710017D01*
X411924Y710006D01*
X412089Y709924D01*
X412251Y709839D01*
X412268Y709834D01*
X412284Y709826D01*
X412463Y709779D01*
X412638Y709728D01*
X412656Y709726D01*
X412673Y709722D01*
X413004Y709695D01*
X413222Y709695D01*
X414115Y708802D01*
X414115Y695158D01*
X413222Y694265D01*
X413004Y694265D01*
X412986Y694263D01*
X412968Y694265D01*
X412786Y694244D01*
X412603Y694225D01*
X412586Y694220D01*
X412569Y694218D01*
X412394Y694161D01*
X412218Y694107D01*
X412203Y694099D01*
X412186Y694093D01*
X412026Y694003D01*
X411864Y693915D01*
X411851Y693904D01*
X411835Y693895D01*
X411696Y693775D01*
X411555Y693658D01*
X411544Y693644D01*
X411530Y693632D01*
X411418Y693487D01*
X411303Y693344D01*
X411295Y693328D01*
X411284Y693314D01*
X411202Y693149D01*
X411117Y692987D01*
X411112Y692970D01*
X411104Y692954D01*
X411057Y692775D01*
X411006Y692600D01*
X411004Y692582D01*
X411000Y692565D01*
X410973Y692234D01*
X410973Y683952D01*
X410976Y683921D01*
X410974Y683889D01*
X410996Y683720D01*
X411013Y683551D01*
X411022Y683521D01*
X411026Y683490D01*
X411127Y683174D01*
X411707Y681776D01*
X411707Y679664D01*
X410899Y677714D01*
X409406Y676221D01*
X407456Y675413D01*
X405344Y675413D01*
G37*
%LPD*%
%LPC*%
G36*
X751549Y253399D02*
X751549Y253399D01*
X745404Y255046D01*
X739895Y258227D01*
X735397Y262725D01*
X732216Y268234D01*
X730569Y274379D01*
X730569Y280741D01*
X732216Y286886D01*
X735397Y292395D01*
X739895Y296893D01*
X745404Y300074D01*
X751549Y301721D01*
X757911Y301721D01*
X764056Y300074D01*
X769565Y296893D01*
X774063Y292395D01*
X777244Y286886D01*
X778891Y280741D01*
X778891Y274379D01*
X777244Y268234D01*
X774063Y262725D01*
X769565Y258227D01*
X764056Y255046D01*
X757911Y253399D01*
X751549Y253399D01*
G37*
%LPD*%
%LPC*%
G36*
X751549Y23399D02*
X751549Y23399D01*
X745404Y25046D01*
X739895Y28227D01*
X735397Y32725D01*
X732216Y38234D01*
X730569Y44379D01*
X730569Y50741D01*
X732216Y56886D01*
X735397Y62395D01*
X739895Y66893D01*
X745404Y70074D01*
X751549Y71721D01*
X757911Y71721D01*
X764056Y70074D01*
X769565Y66893D01*
X774063Y62395D01*
X777244Y56886D01*
X778891Y50741D01*
X778891Y44379D01*
X777244Y38234D01*
X774063Y32725D01*
X769565Y28227D01*
X764056Y25046D01*
X757911Y23399D01*
X751549Y23399D01*
G37*
%LPD*%
%LPC*%
G36*
X171549Y23399D02*
X171549Y23399D01*
X165404Y25046D01*
X159895Y28227D01*
X155397Y32725D01*
X152216Y38234D01*
X150569Y44379D01*
X150569Y50741D01*
X152216Y56886D01*
X155397Y62395D01*
X159895Y66893D01*
X165404Y70074D01*
X171549Y71721D01*
X177911Y71721D01*
X184056Y70074D01*
X189565Y66893D01*
X194063Y62395D01*
X197244Y56886D01*
X198891Y50741D01*
X198891Y44379D01*
X197244Y38234D01*
X194063Y32725D01*
X189565Y28227D01*
X184056Y25046D01*
X177911Y23399D01*
X171549Y23399D01*
G37*
%LPD*%
%LPC*%
G36*
X121122Y784285D02*
X121122Y784285D01*
X112627Y787804D01*
X106124Y794307D01*
X102605Y802802D01*
X102605Y811998D01*
X106124Y820493D01*
X112627Y826996D01*
X117254Y828912D01*
X117254Y828913D01*
X121122Y830515D01*
X130318Y830515D01*
X138813Y826996D01*
X145316Y820493D01*
X148835Y811998D01*
X148835Y802802D01*
X145316Y794307D01*
X138813Y787804D01*
X134313Y785940D01*
X130318Y784285D01*
X121122Y784285D01*
G37*
%LPD*%
%LPC*%
G36*
X339076Y826188D02*
X339076Y826188D01*
X335225Y827783D01*
X332277Y830731D01*
X330682Y834582D01*
X330682Y856658D01*
X332331Y860638D01*
X332340Y860668D01*
X332354Y860696D01*
X332398Y860861D01*
X332447Y861024D01*
X332450Y861055D01*
X332458Y861085D01*
X332485Y861416D01*
X332485Y885486D01*
X333684Y888381D01*
X335899Y890596D01*
X338794Y891795D01*
X341926Y891795D01*
X344821Y890596D01*
X347036Y888381D01*
X348235Y885486D01*
X348235Y863159D01*
X348237Y863132D01*
X348235Y863105D01*
X348257Y862931D01*
X348275Y862758D01*
X348282Y862732D01*
X348286Y862706D01*
X348341Y862540D01*
X348393Y862373D01*
X348406Y862349D01*
X348414Y862324D01*
X348501Y862172D01*
X348585Y862019D01*
X348602Y861999D01*
X348615Y861975D01*
X348830Y861722D01*
X350043Y860509D01*
X351638Y856658D01*
X351638Y834582D01*
X350043Y830731D01*
X347095Y827783D01*
X343244Y826188D01*
X339076Y826188D01*
G37*
%LPD*%
%LPC*%
G36*
X496556Y826188D02*
X496556Y826188D01*
X492705Y827783D01*
X489757Y830731D01*
X488162Y834582D01*
X488162Y856658D01*
X489811Y860638D01*
X489820Y860668D01*
X489834Y860696D01*
X489878Y860861D01*
X489927Y861024D01*
X489930Y861055D01*
X489938Y861085D01*
X489965Y861416D01*
X489965Y885486D01*
X491164Y888381D01*
X493379Y890596D01*
X496274Y891795D01*
X499406Y891795D01*
X502301Y890596D01*
X504516Y888381D01*
X505715Y885486D01*
X505715Y863159D01*
X505717Y863132D01*
X505715Y863105D01*
X505737Y862931D01*
X505755Y862758D01*
X505762Y862732D01*
X505766Y862706D01*
X505821Y862540D01*
X505873Y862373D01*
X505886Y862349D01*
X505894Y862324D01*
X505981Y862172D01*
X506065Y862019D01*
X506082Y861999D01*
X506095Y861975D01*
X506310Y861722D01*
X507523Y860509D01*
X509118Y856658D01*
X509118Y834582D01*
X507523Y830731D01*
X504575Y827783D01*
X500724Y826188D01*
X496556Y826188D01*
G37*
%LPD*%
%LPC*%
G36*
X547584Y802413D02*
X547584Y802413D01*
X545634Y803221D01*
X544141Y804714D01*
X543333Y806664D01*
X543333Y808776D01*
X543913Y810174D01*
X543922Y810204D01*
X543936Y810232D01*
X543980Y810397D01*
X544029Y810560D01*
X544032Y810591D01*
X544040Y810621D01*
X544067Y810952D01*
X544067Y825862D01*
X544065Y825884D01*
X544067Y825906D01*
X544045Y826084D01*
X544027Y826262D01*
X544021Y826284D01*
X544018Y826306D01*
X543962Y826476D01*
X543909Y826647D01*
X543899Y826667D01*
X543892Y826688D01*
X543803Y826844D01*
X543717Y827001D01*
X543703Y827019D01*
X543692Y827038D01*
X543575Y827173D01*
X543460Y827311D01*
X543442Y827325D01*
X543428Y827341D01*
X543286Y827451D01*
X543146Y827563D01*
X543126Y827573D01*
X543108Y827587D01*
X542813Y827738D01*
X542705Y827784D01*
X539757Y830731D01*
X538162Y834582D01*
X538162Y856658D01*
X539757Y860509D01*
X542705Y863457D01*
X546556Y865052D01*
X550724Y865052D01*
X554575Y863457D01*
X557523Y860509D01*
X559118Y856658D01*
X559118Y834582D01*
X557523Y830731D01*
X554575Y827784D01*
X554467Y827738D01*
X554447Y827728D01*
X554426Y827721D01*
X554270Y827633D01*
X554112Y827548D01*
X554095Y827534D01*
X554075Y827523D01*
X553940Y827406D01*
X553801Y827292D01*
X553787Y827275D01*
X553770Y827260D01*
X553661Y827119D01*
X553548Y826979D01*
X553537Y826959D01*
X553524Y826942D01*
X553444Y826782D01*
X553361Y826623D01*
X553354Y826601D01*
X553344Y826581D01*
X553298Y826408D01*
X553248Y826236D01*
X553246Y826214D01*
X553240Y826193D01*
X553213Y825862D01*
X553213Y810952D01*
X553216Y810921D01*
X553214Y810889D01*
X553236Y810720D01*
X553253Y810551D01*
X553262Y810521D01*
X553266Y810490D01*
X553367Y810174D01*
X553947Y808776D01*
X553947Y806664D01*
X553139Y804714D01*
X551646Y803221D01*
X549696Y802413D01*
X547584Y802413D01*
G37*
%LPD*%
%LPC*%
G36*
X390104Y802413D02*
X390104Y802413D01*
X388154Y803221D01*
X386661Y804714D01*
X385853Y806664D01*
X385853Y808776D01*
X386433Y810174D01*
X386442Y810204D01*
X386456Y810232D01*
X386500Y810397D01*
X386549Y810560D01*
X386552Y810591D01*
X386560Y810621D01*
X386587Y810952D01*
X386587Y825862D01*
X386585Y825884D01*
X386587Y825906D01*
X386565Y826084D01*
X386547Y826262D01*
X386541Y826284D01*
X386538Y826306D01*
X386482Y826476D01*
X386429Y826647D01*
X386419Y826667D01*
X386412Y826688D01*
X386323Y826844D01*
X386237Y827001D01*
X386223Y827019D01*
X386212Y827038D01*
X386095Y827173D01*
X385980Y827311D01*
X385962Y827325D01*
X385948Y827341D01*
X385806Y827451D01*
X385666Y827563D01*
X385646Y827573D01*
X385628Y827587D01*
X385333Y827738D01*
X385225Y827784D01*
X382277Y830731D01*
X380682Y834582D01*
X380682Y856658D01*
X382277Y860509D01*
X385225Y863457D01*
X389076Y865052D01*
X393244Y865052D01*
X397095Y863457D01*
X400043Y860509D01*
X401638Y856658D01*
X401638Y834582D01*
X400043Y830731D01*
X397095Y827784D01*
X396987Y827738D01*
X396967Y827728D01*
X396946Y827721D01*
X396790Y827633D01*
X396632Y827548D01*
X396615Y827534D01*
X396595Y827523D01*
X396460Y827406D01*
X396321Y827292D01*
X396307Y827275D01*
X396290Y827260D01*
X396181Y827119D01*
X396068Y826979D01*
X396057Y826959D01*
X396044Y826942D01*
X395964Y826782D01*
X395881Y826623D01*
X395874Y826601D01*
X395864Y826581D01*
X395818Y826408D01*
X395768Y826236D01*
X395766Y826214D01*
X395760Y826193D01*
X395733Y825862D01*
X395733Y810952D01*
X395736Y810921D01*
X395734Y810889D01*
X395756Y810720D01*
X395773Y810551D01*
X395782Y810521D01*
X395786Y810490D01*
X395887Y810174D01*
X396467Y808776D01*
X396467Y806664D01*
X395659Y804714D01*
X394166Y803221D01*
X392216Y802413D01*
X390104Y802413D01*
G37*
%LPD*%
%LPC*%
G36*
X108393Y652271D02*
X108393Y652271D01*
X103631Y657033D01*
X103631Y663767D01*
X106592Y666728D01*
X106609Y666749D01*
X106630Y666766D01*
X106737Y666904D01*
X106847Y667040D01*
X106860Y667063D01*
X106876Y667084D01*
X106954Y667241D01*
X107036Y667395D01*
X107044Y667421D01*
X107056Y667445D01*
X107101Y667614D01*
X107151Y667781D01*
X107153Y667808D01*
X107160Y667834D01*
X107187Y668164D01*
X107187Y679594D01*
X107185Y679616D01*
X107187Y679639D01*
X107165Y679816D01*
X107147Y679995D01*
X107141Y680016D01*
X107138Y680038D01*
X107082Y680208D01*
X107029Y680380D01*
X107019Y680399D01*
X107012Y680421D01*
X106923Y680576D01*
X106837Y680734D01*
X106823Y680751D01*
X106812Y680770D01*
X106695Y680905D01*
X106580Y681043D01*
X106562Y681057D01*
X106548Y681074D01*
X106406Y681183D01*
X106266Y681295D01*
X106246Y681306D01*
X106228Y681319D01*
X105933Y681471D01*
X105573Y681620D01*
X102500Y684693D01*
X100837Y688707D01*
X100837Y693053D01*
X102500Y697067D01*
X105573Y700140D01*
X108059Y701170D01*
X108137Y701212D01*
X108220Y701245D01*
X108314Y701306D01*
X108414Y701360D01*
X108482Y701416D01*
X108556Y701465D01*
X108637Y701544D01*
X108724Y701616D01*
X108780Y701685D01*
X108843Y701747D01*
X108907Y701841D01*
X108978Y701929D01*
X109019Y702007D01*
X109069Y702081D01*
X109112Y702185D01*
X109165Y702285D01*
X109190Y702370D01*
X109224Y702452D01*
X109246Y702563D01*
X109278Y702672D01*
X109286Y702760D01*
X109303Y702847D01*
X109303Y702960D01*
X109313Y703073D01*
X109303Y703161D01*
X109303Y703250D01*
X109280Y703361D01*
X109267Y703473D01*
X109240Y703558D01*
X109223Y703644D01*
X109179Y703749D01*
X109144Y703856D01*
X109101Y703934D01*
X109067Y704016D01*
X109003Y704109D01*
X108948Y704208D01*
X108890Y704275D01*
X108840Y704349D01*
X108760Y704428D01*
X108686Y704514D01*
X108616Y704568D01*
X108553Y704630D01*
X108458Y704692D01*
X108369Y704762D01*
X108290Y704802D01*
X108215Y704850D01*
X108085Y704905D01*
X108009Y704943D01*
X107965Y704955D01*
X107909Y704978D01*
X107177Y705216D01*
X105503Y706069D01*
X103982Y707174D01*
X102654Y708502D01*
X101549Y710023D01*
X100696Y711697D01*
X100115Y713484D01*
X100075Y713741D01*
X111252Y713741D01*
X111270Y713742D01*
X111287Y713741D01*
X111470Y713762D01*
X111652Y713781D01*
X111669Y713786D01*
X111687Y713788D01*
X111765Y713813D01*
X111902Y713774D01*
X111920Y713772D01*
X111937Y713768D01*
X112268Y713741D01*
X123445Y713741D01*
X123405Y713484D01*
X122824Y711697D01*
X121971Y710023D01*
X120866Y708502D01*
X119538Y707174D01*
X118017Y706069D01*
X116343Y705216D01*
X115611Y704978D01*
X115529Y704942D01*
X115445Y704916D01*
X115346Y704862D01*
X115242Y704816D01*
X115169Y704765D01*
X115092Y704723D01*
X115005Y704650D01*
X114913Y704585D01*
X114851Y704521D01*
X114783Y704464D01*
X114713Y704375D01*
X114635Y704293D01*
X114588Y704218D01*
X114532Y704149D01*
X114481Y704048D01*
X114421Y703953D01*
X114389Y703870D01*
X114349Y703791D01*
X114318Y703682D01*
X114278Y703576D01*
X114263Y703488D01*
X114239Y703403D01*
X114230Y703291D01*
X114212Y703179D01*
X114215Y703090D01*
X114208Y703002D01*
X114221Y702890D01*
X114225Y702777D01*
X114246Y702690D01*
X114256Y702602D01*
X114292Y702495D01*
X114318Y702385D01*
X114355Y702304D01*
X114383Y702220D01*
X114439Y702122D01*
X114486Y702019D01*
X114538Y701947D01*
X114582Y701870D01*
X114657Y701785D01*
X114723Y701694D01*
X114788Y701634D01*
X114847Y701567D01*
X114936Y701498D01*
X115020Y701421D01*
X115096Y701375D01*
X115166Y701321D01*
X115292Y701257D01*
X115364Y701213D01*
X115407Y701197D01*
X115461Y701170D01*
X117947Y700140D01*
X121020Y697067D01*
X122683Y693053D01*
X122683Y688707D01*
X121020Y684693D01*
X117947Y681620D01*
X117587Y681471D01*
X117567Y681460D01*
X117546Y681453D01*
X117390Y681365D01*
X117232Y681281D01*
X117215Y681266D01*
X117195Y681255D01*
X117059Y681138D01*
X116921Y681024D01*
X116907Y681007D01*
X116890Y680992D01*
X116781Y680851D01*
X116668Y680712D01*
X116657Y680692D01*
X116644Y680674D01*
X116564Y680514D01*
X116481Y680355D01*
X116474Y680334D01*
X116464Y680314D01*
X116418Y680140D01*
X116368Y679969D01*
X116366Y679946D01*
X116360Y679925D01*
X116333Y679594D01*
X116333Y668164D01*
X116335Y668138D01*
X116333Y668111D01*
X116355Y667937D01*
X116373Y667764D01*
X116380Y667738D01*
X116384Y667712D01*
X116439Y667546D01*
X116491Y667379D01*
X116504Y667355D01*
X116512Y667330D01*
X116599Y667178D01*
X116683Y667025D01*
X116700Y667004D01*
X116713Y666981D01*
X116928Y666728D01*
X119889Y663767D01*
X119889Y657033D01*
X115127Y652271D01*
X108393Y652271D01*
G37*
%LPD*%
%LPC*%
G36*
X852839Y817371D02*
X852839Y817371D01*
X849851Y818609D01*
X848128Y820332D01*
X848107Y820349D01*
X848090Y820370D01*
X847952Y820477D01*
X847816Y820587D01*
X847793Y820600D01*
X847772Y820616D01*
X847615Y820694D01*
X847461Y820776D01*
X847435Y820784D01*
X847411Y820796D01*
X847242Y820841D01*
X847075Y820891D01*
X847048Y820893D01*
X847022Y820900D01*
X846692Y820927D01*
X813492Y820927D01*
X813461Y820924D01*
X813429Y820926D01*
X813260Y820904D01*
X813091Y820887D01*
X813061Y820878D01*
X813030Y820874D01*
X812714Y820773D01*
X811987Y820471D01*
X811316Y820193D01*
X809204Y820193D01*
X807254Y821001D01*
X805761Y822494D01*
X804953Y824444D01*
X804953Y826556D01*
X805761Y828506D01*
X807254Y829999D01*
X809204Y830807D01*
X811316Y830807D01*
X812714Y830227D01*
X812744Y830218D01*
X812772Y830204D01*
X812937Y830160D01*
X813100Y830111D01*
X813131Y830108D01*
X813161Y830100D01*
X813492Y830073D01*
X846692Y830073D01*
X846718Y830075D01*
X846745Y830073D01*
X846919Y830095D01*
X847092Y830113D01*
X847118Y830120D01*
X847144Y830124D01*
X847310Y830179D01*
X847477Y830231D01*
X847501Y830244D01*
X847526Y830252D01*
X847678Y830339D01*
X847831Y830423D01*
X847852Y830440D01*
X847875Y830453D01*
X848128Y830668D01*
X849851Y832391D01*
X852839Y833629D01*
X869281Y833629D01*
X872269Y832391D01*
X874555Y830105D01*
X875793Y827117D01*
X875793Y823883D01*
X874555Y820895D01*
X872269Y818609D01*
X869281Y817371D01*
X852839Y817371D01*
G37*
%LPD*%
%LPC*%
G36*
X852839Y842771D02*
X852839Y842771D01*
X849851Y844009D01*
X848128Y845732D01*
X848107Y845749D01*
X848090Y845770D01*
X847952Y845877D01*
X847816Y845987D01*
X847793Y846000D01*
X847772Y846016D01*
X847615Y846094D01*
X847461Y846176D01*
X847435Y846184D01*
X847411Y846196D01*
X847242Y846241D01*
X847075Y846291D01*
X847048Y846293D01*
X847022Y846300D01*
X846692Y846327D01*
X829219Y846327D01*
X829197Y846325D01*
X829175Y846327D01*
X828997Y846305D01*
X828819Y846287D01*
X828797Y846281D01*
X828775Y846278D01*
X828605Y846222D01*
X828434Y846169D01*
X828414Y846159D01*
X828393Y846152D01*
X828238Y846063D01*
X828080Y845977D01*
X828062Y845963D01*
X828043Y845952D01*
X827908Y845834D01*
X827770Y845720D01*
X827756Y845702D01*
X827740Y845688D01*
X827630Y845545D01*
X827548Y845443D01*
X825966Y843861D01*
X824016Y843053D01*
X821904Y843053D01*
X819954Y843861D01*
X818461Y845354D01*
X817653Y847304D01*
X817653Y849416D01*
X818461Y851366D01*
X819954Y852859D01*
X821353Y853438D01*
X821380Y853453D01*
X821410Y853463D01*
X821557Y853548D01*
X821708Y853628D01*
X821732Y853648D01*
X821759Y853664D01*
X822012Y853879D01*
X822910Y854777D01*
X824590Y855473D01*
X846692Y855473D01*
X846718Y855475D01*
X846745Y855473D01*
X846919Y855495D01*
X847092Y855513D01*
X847118Y855520D01*
X847144Y855524D01*
X847310Y855579D01*
X847477Y855631D01*
X847501Y855644D01*
X847526Y855652D01*
X847678Y855739D01*
X847831Y855823D01*
X847852Y855840D01*
X847875Y855853D01*
X848128Y856068D01*
X849851Y857791D01*
X852839Y859029D01*
X869281Y859029D01*
X872269Y857791D01*
X874555Y855505D01*
X875793Y852517D01*
X875793Y849283D01*
X874555Y846295D01*
X872269Y844009D01*
X869281Y842771D01*
X852839Y842771D01*
G37*
%LPD*%
%LPC*%
G36*
X852839Y334771D02*
X852839Y334771D01*
X849851Y336009D01*
X848128Y337732D01*
X848107Y337749D01*
X848090Y337770D01*
X847952Y337877D01*
X847816Y337987D01*
X847793Y338000D01*
X847772Y338016D01*
X847615Y338094D01*
X847461Y338176D01*
X847435Y338184D01*
X847411Y338196D01*
X847242Y338241D01*
X847075Y338291D01*
X847048Y338293D01*
X847022Y338300D01*
X846692Y338327D01*
X826192Y338327D01*
X826161Y338324D01*
X826129Y338326D01*
X825960Y338304D01*
X825791Y338287D01*
X825761Y338278D01*
X825730Y338274D01*
X825414Y338173D01*
X824016Y337593D01*
X821904Y337593D01*
X819954Y338401D01*
X818461Y339894D01*
X817653Y341844D01*
X817653Y343956D01*
X818461Y345906D01*
X819954Y347399D01*
X820213Y347506D01*
X821904Y348207D01*
X824016Y348207D01*
X825414Y347627D01*
X825444Y347618D01*
X825472Y347604D01*
X825637Y347560D01*
X825800Y347511D01*
X825831Y347508D01*
X825861Y347500D01*
X826192Y347473D01*
X846692Y347473D01*
X846718Y347475D01*
X846745Y347473D01*
X846919Y347495D01*
X847092Y347513D01*
X847118Y347520D01*
X847144Y347524D01*
X847310Y347579D01*
X847477Y347631D01*
X847501Y347644D01*
X847526Y347652D01*
X847678Y347739D01*
X847831Y347823D01*
X847852Y347840D01*
X847875Y347853D01*
X848128Y348068D01*
X849851Y349791D01*
X852839Y351029D01*
X869281Y351029D01*
X872269Y349791D01*
X874555Y347505D01*
X875793Y344517D01*
X875793Y341283D01*
X874555Y338295D01*
X872269Y336009D01*
X869281Y334771D01*
X852839Y334771D01*
G37*
%LPD*%
%LPC*%
G36*
X852839Y675131D02*
X852839Y675131D01*
X849851Y676369D01*
X848128Y678092D01*
X848107Y678109D01*
X848090Y678130D01*
X847952Y678237D01*
X847816Y678347D01*
X847793Y678360D01*
X847772Y678376D01*
X847615Y678454D01*
X847461Y678536D01*
X847435Y678544D01*
X847411Y678556D01*
X847242Y678601D01*
X847075Y678651D01*
X847048Y678653D01*
X847022Y678660D01*
X846692Y678687D01*
X826192Y678687D01*
X826161Y678684D01*
X826129Y678686D01*
X825960Y678664D01*
X825791Y678647D01*
X825761Y678638D01*
X825730Y678634D01*
X825414Y678533D01*
X824814Y678284D01*
X824016Y677953D01*
X821904Y677953D01*
X819954Y678761D01*
X818461Y680254D01*
X817653Y682204D01*
X817653Y684316D01*
X818461Y686266D01*
X819954Y687759D01*
X821904Y688567D01*
X824016Y688567D01*
X825414Y687987D01*
X825444Y687978D01*
X825472Y687964D01*
X825637Y687920D01*
X825800Y687871D01*
X825831Y687868D01*
X825861Y687860D01*
X826192Y687833D01*
X846692Y687833D01*
X846718Y687835D01*
X846745Y687833D01*
X846919Y687855D01*
X847092Y687873D01*
X847118Y687880D01*
X847144Y687884D01*
X847310Y687939D01*
X847477Y687991D01*
X847501Y688004D01*
X847526Y688012D01*
X847678Y688099D01*
X847831Y688183D01*
X847852Y688200D01*
X847875Y688213D01*
X848128Y688428D01*
X849851Y690151D01*
X852839Y691389D01*
X869281Y691389D01*
X872269Y690151D01*
X874555Y687865D01*
X875793Y684877D01*
X875793Y681643D01*
X874555Y678655D01*
X872269Y676369D01*
X869281Y675131D01*
X852839Y675131D01*
G37*
%LPD*%
%LPC*%
G36*
X852839Y136651D02*
X852839Y136651D01*
X849851Y137889D01*
X848128Y139612D01*
X848107Y139629D01*
X848090Y139650D01*
X847952Y139757D01*
X847816Y139867D01*
X847793Y139880D01*
X847772Y139896D01*
X847615Y139974D01*
X847461Y140056D01*
X847435Y140064D01*
X847411Y140076D01*
X847242Y140121D01*
X847075Y140171D01*
X847048Y140173D01*
X847022Y140180D01*
X846692Y140207D01*
X826192Y140207D01*
X826161Y140204D01*
X826129Y140206D01*
X825960Y140184D01*
X825791Y140167D01*
X825761Y140158D01*
X825730Y140154D01*
X825414Y140053D01*
X824016Y139473D01*
X821904Y139473D01*
X819954Y140281D01*
X818461Y141774D01*
X817653Y143724D01*
X817653Y145836D01*
X818461Y147786D01*
X819954Y149279D01*
X821904Y150087D01*
X824016Y150087D01*
X825414Y149507D01*
X825444Y149498D01*
X825472Y149484D01*
X825637Y149440D01*
X825800Y149391D01*
X825831Y149388D01*
X825861Y149380D01*
X826192Y149353D01*
X846692Y149353D01*
X846718Y149355D01*
X846745Y149353D01*
X846919Y149375D01*
X847092Y149393D01*
X847118Y149400D01*
X847144Y149404D01*
X847310Y149459D01*
X847477Y149511D01*
X847501Y149524D01*
X847526Y149532D01*
X847678Y149619D01*
X847831Y149703D01*
X847852Y149720D01*
X847875Y149733D01*
X848128Y149948D01*
X849851Y151671D01*
X851867Y152506D01*
X852839Y152909D01*
X869281Y152909D01*
X872269Y151671D01*
X874555Y149385D01*
X875793Y146397D01*
X875793Y143163D01*
X874555Y140175D01*
X872269Y137889D01*
X869281Y136651D01*
X852839Y136651D01*
G37*
%LPD*%
%LPC*%
G36*
X852839Y162051D02*
X852839Y162051D01*
X849851Y163289D01*
X848128Y165012D01*
X848107Y165029D01*
X848090Y165050D01*
X847952Y165157D01*
X847816Y165267D01*
X847793Y165280D01*
X847772Y165296D01*
X847615Y165374D01*
X847461Y165456D01*
X847435Y165464D01*
X847411Y165476D01*
X847242Y165521D01*
X847075Y165571D01*
X847048Y165573D01*
X847022Y165580D01*
X846692Y165607D01*
X826192Y165607D01*
X826161Y165604D01*
X826129Y165606D01*
X825960Y165584D01*
X825791Y165567D01*
X825761Y165558D01*
X825730Y165554D01*
X825414Y165453D01*
X824016Y164873D01*
X821904Y164873D01*
X819954Y165681D01*
X818461Y167174D01*
X817653Y169124D01*
X817653Y171236D01*
X818461Y173186D01*
X819954Y174679D01*
X820367Y174850D01*
X821904Y175487D01*
X824016Y175487D01*
X825414Y174907D01*
X825444Y174898D01*
X825472Y174884D01*
X825637Y174840D01*
X825800Y174791D01*
X825831Y174788D01*
X825861Y174780D01*
X826192Y174753D01*
X846692Y174753D01*
X846718Y174755D01*
X846745Y174753D01*
X846919Y174775D01*
X847092Y174793D01*
X847118Y174800D01*
X847144Y174804D01*
X847310Y174859D01*
X847477Y174911D01*
X847501Y174924D01*
X847526Y174932D01*
X847678Y175019D01*
X847831Y175103D01*
X847852Y175120D01*
X847875Y175133D01*
X848128Y175348D01*
X849851Y177071D01*
X852839Y178309D01*
X869281Y178309D01*
X872269Y177071D01*
X874555Y174785D01*
X875793Y171797D01*
X875793Y168563D01*
X874555Y165575D01*
X872269Y163289D01*
X869994Y162346D01*
X869281Y162051D01*
X852839Y162051D01*
G37*
%LPD*%
%LPC*%
G36*
X852839Y502411D02*
X852839Y502411D01*
X849851Y503649D01*
X848128Y505372D01*
X848107Y505389D01*
X848090Y505410D01*
X847952Y505517D01*
X847816Y505627D01*
X847793Y505640D01*
X847772Y505656D01*
X847615Y505734D01*
X847461Y505816D01*
X847435Y505824D01*
X847411Y505836D01*
X847242Y505881D01*
X847075Y505931D01*
X847048Y505933D01*
X847022Y505940D01*
X846692Y505967D01*
X826192Y505967D01*
X826161Y505964D01*
X826129Y505966D01*
X825960Y505944D01*
X825791Y505927D01*
X825761Y505918D01*
X825730Y505914D01*
X825414Y505813D01*
X824968Y505628D01*
X824016Y505233D01*
X821904Y505233D01*
X819954Y506041D01*
X818461Y507534D01*
X817653Y509484D01*
X817653Y511596D01*
X818461Y513546D01*
X819954Y515039D01*
X821904Y515847D01*
X824016Y515847D01*
X825414Y515267D01*
X825444Y515258D01*
X825472Y515244D01*
X825637Y515200D01*
X825800Y515151D01*
X825831Y515148D01*
X825861Y515140D01*
X826192Y515113D01*
X846692Y515113D01*
X846718Y515115D01*
X846745Y515113D01*
X846919Y515135D01*
X847092Y515153D01*
X847118Y515160D01*
X847144Y515164D01*
X847310Y515220D01*
X847477Y515271D01*
X847501Y515284D01*
X847526Y515292D01*
X847677Y515379D01*
X847831Y515463D01*
X847852Y515480D01*
X847875Y515493D01*
X848128Y515708D01*
X849851Y517431D01*
X852839Y518669D01*
X869281Y518669D01*
X872269Y517431D01*
X874555Y515145D01*
X875793Y512157D01*
X875793Y508923D01*
X874555Y505935D01*
X872269Y503649D01*
X869281Y502411D01*
X852839Y502411D01*
G37*
%LPD*%
%LPC*%
G36*
X852839Y766571D02*
X852839Y766571D01*
X849851Y767809D01*
X848128Y769532D01*
X848107Y769549D01*
X848090Y769570D01*
X847952Y769677D01*
X847816Y769787D01*
X847793Y769800D01*
X847772Y769816D01*
X847615Y769894D01*
X847461Y769976D01*
X847435Y769984D01*
X847411Y769996D01*
X847242Y770041D01*
X847075Y770091D01*
X847048Y770093D01*
X847022Y770100D01*
X846692Y770127D01*
X841432Y770127D01*
X841401Y770124D01*
X841369Y770126D01*
X841200Y770104D01*
X841031Y770087D01*
X841001Y770078D01*
X840970Y770074D01*
X840654Y769973D01*
X839256Y769393D01*
X837144Y769393D01*
X835194Y770201D01*
X833701Y771694D01*
X832893Y773644D01*
X832893Y775756D01*
X833701Y777706D01*
X835194Y779199D01*
X837144Y780007D01*
X839256Y780007D01*
X840654Y779427D01*
X840684Y779418D01*
X840712Y779404D01*
X840877Y779360D01*
X841040Y779311D01*
X841071Y779308D01*
X841101Y779300D01*
X841432Y779273D01*
X846692Y779273D01*
X846718Y779275D01*
X846745Y779273D01*
X846919Y779295D01*
X847092Y779313D01*
X847118Y779320D01*
X847144Y779324D01*
X847310Y779379D01*
X847477Y779431D01*
X847501Y779444D01*
X847526Y779452D01*
X847678Y779539D01*
X847831Y779623D01*
X847852Y779640D01*
X847875Y779653D01*
X848128Y779868D01*
X849851Y781591D01*
X852839Y782829D01*
X869281Y782829D01*
X872269Y781591D01*
X874555Y779305D01*
X875793Y776317D01*
X875793Y773083D01*
X874555Y770095D01*
X872269Y767809D01*
X871907Y767659D01*
X869281Y766571D01*
X852839Y766571D01*
G37*
%LPD*%
%LPC*%
G36*
X852839Y258571D02*
X852839Y258571D01*
X849851Y259809D01*
X848128Y261532D01*
X848107Y261549D01*
X848090Y261570D01*
X847952Y261677D01*
X847816Y261787D01*
X847793Y261800D01*
X847772Y261816D01*
X847615Y261894D01*
X847461Y261976D01*
X847435Y261984D01*
X847411Y261996D01*
X847242Y262041D01*
X847075Y262091D01*
X847048Y262093D01*
X847022Y262100D01*
X846692Y262127D01*
X841432Y262127D01*
X841401Y262124D01*
X841369Y262126D01*
X841200Y262104D01*
X841031Y262087D01*
X841001Y262078D01*
X840970Y262074D01*
X840654Y261973D01*
X840425Y261878D01*
X839256Y261393D01*
X837144Y261393D01*
X835194Y262201D01*
X833701Y263694D01*
X832893Y265644D01*
X832893Y267756D01*
X833701Y269706D01*
X835194Y271199D01*
X837144Y272007D01*
X839256Y272007D01*
X840654Y271427D01*
X840684Y271418D01*
X840712Y271404D01*
X840877Y271360D01*
X841040Y271311D01*
X841071Y271308D01*
X841101Y271300D01*
X841432Y271273D01*
X846692Y271273D01*
X846718Y271275D01*
X846745Y271273D01*
X846919Y271295D01*
X847092Y271313D01*
X847118Y271320D01*
X847144Y271324D01*
X847310Y271379D01*
X847477Y271431D01*
X847501Y271444D01*
X847526Y271452D01*
X847678Y271539D01*
X847831Y271623D01*
X847852Y271640D01*
X847875Y271653D01*
X848128Y271868D01*
X849851Y273591D01*
X852839Y274829D01*
X869281Y274829D01*
X872269Y273591D01*
X874555Y271305D01*
X875793Y268317D01*
X875793Y265083D01*
X874555Y262095D01*
X872269Y259809D01*
X869281Y258571D01*
X852839Y258571D01*
G37*
%LPD*%
%LPC*%
G36*
X852839Y85851D02*
X852839Y85851D01*
X849851Y87089D01*
X848128Y88812D01*
X848120Y88819D01*
X848117Y88822D01*
X848106Y88831D01*
X848090Y88850D01*
X847952Y88957D01*
X847816Y89067D01*
X847793Y89080D01*
X847772Y89096D01*
X847615Y89174D01*
X847461Y89256D01*
X847435Y89264D01*
X847411Y89276D01*
X847242Y89321D01*
X847075Y89371D01*
X847048Y89373D01*
X847022Y89380D01*
X846692Y89407D01*
X841432Y89407D01*
X841401Y89404D01*
X841369Y89406D01*
X841200Y89384D01*
X841031Y89367D01*
X841001Y89358D01*
X840970Y89354D01*
X840654Y89253D01*
X840579Y89221D01*
X839256Y88673D01*
X837144Y88673D01*
X835194Y89481D01*
X833701Y90974D01*
X832893Y92924D01*
X832893Y95036D01*
X833701Y96986D01*
X835194Y98479D01*
X837144Y99287D01*
X839256Y99287D01*
X840654Y98707D01*
X840684Y98698D01*
X840712Y98684D01*
X840877Y98640D01*
X841040Y98591D01*
X841071Y98588D01*
X841101Y98580D01*
X841432Y98553D01*
X846692Y98553D01*
X846718Y98555D01*
X846745Y98553D01*
X846919Y98575D01*
X847092Y98593D01*
X847118Y98600D01*
X847144Y98604D01*
X847310Y98659D01*
X847477Y98711D01*
X847501Y98724D01*
X847526Y98732D01*
X847678Y98819D01*
X847831Y98903D01*
X847852Y98920D01*
X847875Y98933D01*
X848128Y99148D01*
X849851Y100871D01*
X852839Y102109D01*
X869281Y102109D01*
X872269Y100871D01*
X874555Y98585D01*
X875793Y95597D01*
X875793Y92363D01*
X874555Y89375D01*
X872269Y87089D01*
X869281Y85851D01*
X852839Y85851D01*
G37*
%LPD*%
%LPC*%
G36*
X852839Y426211D02*
X852839Y426211D01*
X849851Y427449D01*
X848128Y429172D01*
X848107Y429189D01*
X848090Y429210D01*
X847952Y429317D01*
X847816Y429427D01*
X847793Y429440D01*
X847772Y429456D01*
X847615Y429534D01*
X847461Y429616D01*
X847435Y429624D01*
X847411Y429636D01*
X847242Y429681D01*
X847075Y429731D01*
X847048Y429733D01*
X847022Y429740D01*
X846692Y429767D01*
X841432Y429767D01*
X841401Y429764D01*
X841369Y429766D01*
X841200Y429744D01*
X841031Y429727D01*
X841001Y429718D01*
X840970Y429714D01*
X840654Y429613D01*
X839256Y429033D01*
X837144Y429033D01*
X835194Y429841D01*
X833701Y431334D01*
X832893Y433284D01*
X832893Y435396D01*
X833701Y437346D01*
X835194Y438839D01*
X837144Y439647D01*
X839256Y439647D01*
X840654Y439067D01*
X840684Y439058D01*
X840712Y439044D01*
X840877Y439000D01*
X841040Y438951D01*
X841071Y438948D01*
X841101Y438940D01*
X841432Y438913D01*
X846692Y438913D01*
X846718Y438915D01*
X846745Y438913D01*
X846919Y438935D01*
X847092Y438953D01*
X847118Y438960D01*
X847144Y438964D01*
X847310Y439020D01*
X847477Y439071D01*
X847501Y439084D01*
X847526Y439092D01*
X847677Y439179D01*
X847831Y439263D01*
X847852Y439280D01*
X847875Y439293D01*
X848128Y439508D01*
X849851Y441231D01*
X852839Y442469D01*
X869281Y442469D01*
X872269Y441231D01*
X874555Y438945D01*
X875793Y435957D01*
X875793Y432723D01*
X874555Y429735D01*
X872269Y427449D01*
X869281Y426211D01*
X852839Y426211D01*
G37*
%LPD*%
%LPC*%
G36*
X852839Y598931D02*
X852839Y598931D01*
X849851Y600169D01*
X848128Y601892D01*
X848107Y601909D01*
X848090Y601930D01*
X847952Y602037D01*
X847816Y602147D01*
X847793Y602160D01*
X847772Y602176D01*
X847615Y602254D01*
X847461Y602336D01*
X847435Y602344D01*
X847411Y602356D01*
X847242Y602401D01*
X847075Y602451D01*
X847048Y602453D01*
X847022Y602460D01*
X846692Y602487D01*
X841432Y602487D01*
X841401Y602484D01*
X841369Y602486D01*
X841200Y602464D01*
X841031Y602447D01*
X841001Y602438D01*
X840970Y602434D01*
X840654Y602333D01*
X839256Y601753D01*
X837144Y601753D01*
X835194Y602561D01*
X833701Y604054D01*
X832893Y606004D01*
X832893Y608116D01*
X833701Y610066D01*
X835194Y611559D01*
X837144Y612367D01*
X839256Y612367D01*
X840654Y611787D01*
X840684Y611778D01*
X840712Y611764D01*
X840877Y611720D01*
X841040Y611671D01*
X841071Y611668D01*
X841101Y611660D01*
X841432Y611633D01*
X846692Y611633D01*
X846718Y611635D01*
X846745Y611633D01*
X846919Y611655D01*
X847092Y611673D01*
X847118Y611680D01*
X847144Y611684D01*
X847310Y611740D01*
X847477Y611791D01*
X847501Y611804D01*
X847526Y611812D01*
X847677Y611899D01*
X847831Y611983D01*
X847852Y612000D01*
X847875Y612013D01*
X848128Y612228D01*
X849851Y613951D01*
X852839Y615189D01*
X869281Y615189D01*
X872269Y613951D01*
X874555Y611665D01*
X875793Y608677D01*
X875793Y605443D01*
X874555Y602455D01*
X872269Y600169D01*
X869281Y598931D01*
X852839Y598931D01*
G37*
%LPD*%
%LPC*%
G36*
X654264Y233453D02*
X654264Y233453D01*
X652314Y234261D01*
X650821Y235754D01*
X650013Y237704D01*
X650013Y239816D01*
X650503Y240997D01*
X650512Y241027D01*
X650526Y241055D01*
X650570Y241220D01*
X650619Y241382D01*
X650622Y241414D01*
X650630Y241444D01*
X650657Y241774D01*
X650657Y251636D01*
X650655Y251658D01*
X650657Y251680D01*
X650635Y251858D01*
X650617Y252036D01*
X650611Y252057D01*
X650608Y252080D01*
X650552Y252249D01*
X650499Y252421D01*
X650489Y252441D01*
X650482Y252462D01*
X650393Y252618D01*
X650307Y252775D01*
X650293Y252792D01*
X650282Y252812D01*
X650164Y252947D01*
X650050Y253084D01*
X650032Y253098D01*
X650018Y253115D01*
X649875Y253225D01*
X649736Y253337D01*
X649716Y253347D01*
X649704Y253356D01*
X646880Y256181D01*
X645380Y259801D01*
X645380Y263719D01*
X646880Y267339D01*
X649651Y270110D01*
X653271Y271610D01*
X657189Y271610D01*
X660809Y270110D01*
X663580Y267339D01*
X665080Y263719D01*
X665080Y259801D01*
X663580Y256181D01*
X660745Y253345D01*
X660702Y253322D01*
X660685Y253308D01*
X660665Y253297D01*
X660530Y253180D01*
X660391Y253066D01*
X660377Y253048D01*
X660360Y253034D01*
X660251Y252892D01*
X660138Y252753D01*
X660127Y252733D01*
X660114Y252716D01*
X660034Y252555D01*
X659951Y252396D01*
X659944Y252375D01*
X659934Y252355D01*
X659888Y252182D01*
X659838Y252010D01*
X659836Y251988D01*
X659830Y251966D01*
X659803Y251636D01*
X659803Y242209D01*
X659806Y242178D01*
X659804Y242147D01*
X659826Y241977D01*
X659843Y241808D01*
X659852Y241779D01*
X659856Y241748D01*
X659957Y241432D01*
X660627Y239816D01*
X660627Y237704D01*
X659819Y235754D01*
X658326Y234261D01*
X656376Y233453D01*
X654264Y233453D01*
G37*
%LPD*%
%LPC*%
G36*
X603464Y233453D02*
X603464Y233453D01*
X601514Y234261D01*
X600021Y235754D01*
X599213Y237704D01*
X599213Y239816D01*
X599793Y241214D01*
X599802Y241244D01*
X599816Y241272D01*
X599860Y241437D01*
X599909Y241600D01*
X599912Y241631D01*
X599920Y241661D01*
X599947Y241992D01*
X599947Y251598D01*
X599945Y251621D01*
X599947Y251643D01*
X599925Y251821D01*
X599907Y251999D01*
X599901Y252020D01*
X599898Y252042D01*
X599842Y252213D01*
X599789Y252384D01*
X599779Y252403D01*
X599772Y252425D01*
X599683Y252580D01*
X599597Y252738D01*
X599583Y252755D01*
X599572Y252774D01*
X599454Y252909D01*
X599340Y253047D01*
X599322Y253061D01*
X599308Y253078D01*
X599165Y253187D01*
X599026Y253299D01*
X599006Y253310D01*
X598989Y253323D01*
X598883Y253378D01*
X596080Y256181D01*
X594580Y259801D01*
X594580Y263719D01*
X596080Y267339D01*
X598851Y270110D01*
X602471Y271610D01*
X606389Y271610D01*
X610009Y270110D01*
X612780Y267339D01*
X614280Y263719D01*
X614280Y259801D01*
X612780Y256181D01*
X609803Y253203D01*
X609681Y253103D01*
X609667Y253086D01*
X609650Y253071D01*
X609541Y252929D01*
X609428Y252790D01*
X609417Y252770D01*
X609404Y252753D01*
X609324Y252592D01*
X609241Y252434D01*
X609234Y252412D01*
X609224Y252392D01*
X609178Y252219D01*
X609128Y252047D01*
X609126Y252025D01*
X609120Y252004D01*
X609093Y251673D01*
X609093Y241992D01*
X609096Y241961D01*
X609094Y241929D01*
X609116Y241760D01*
X609133Y241591D01*
X609142Y241561D01*
X609146Y241530D01*
X609247Y241214D01*
X609827Y239816D01*
X609827Y237704D01*
X609019Y235754D01*
X607526Y234261D01*
X605576Y233453D01*
X603464Y233453D01*
G37*
%LPD*%
%LPC*%
G36*
X425664Y233453D02*
X425664Y233453D01*
X423714Y234261D01*
X422221Y235754D01*
X421413Y237704D01*
X421413Y239816D01*
X421993Y241214D01*
X422002Y241244D01*
X422016Y241272D01*
X422060Y241437D01*
X422109Y241600D01*
X422112Y241631D01*
X422120Y241661D01*
X422147Y241992D01*
X422147Y251598D01*
X422145Y251621D01*
X422147Y251643D01*
X422125Y251821D01*
X422107Y251999D01*
X422101Y252020D01*
X422098Y252042D01*
X422042Y252213D01*
X421989Y252384D01*
X421979Y252403D01*
X421972Y252425D01*
X421883Y252580D01*
X421797Y252738D01*
X421783Y252755D01*
X421772Y252774D01*
X421654Y252909D01*
X421540Y253047D01*
X421522Y253061D01*
X421508Y253078D01*
X421365Y253187D01*
X421226Y253299D01*
X421206Y253310D01*
X421189Y253323D01*
X421083Y253378D01*
X418280Y256181D01*
X416780Y259801D01*
X416780Y263719D01*
X418280Y267339D01*
X421051Y270110D01*
X424671Y271610D01*
X428589Y271610D01*
X432209Y270110D01*
X434980Y267339D01*
X436480Y263719D01*
X436480Y259801D01*
X434980Y256181D01*
X432003Y253203D01*
X431881Y253103D01*
X431867Y253086D01*
X431850Y253071D01*
X431741Y252929D01*
X431628Y252790D01*
X431617Y252770D01*
X431604Y252753D01*
X431524Y252592D01*
X431441Y252434D01*
X431434Y252412D01*
X431424Y252392D01*
X431378Y252219D01*
X431328Y252047D01*
X431326Y252025D01*
X431320Y252004D01*
X431293Y251673D01*
X431293Y241992D01*
X431296Y241961D01*
X431294Y241929D01*
X431316Y241760D01*
X431333Y241591D01*
X431342Y241561D01*
X431346Y241530D01*
X431447Y241214D01*
X432027Y239816D01*
X432027Y237704D01*
X431219Y235754D01*
X429726Y234261D01*
X427776Y233453D01*
X425664Y233453D01*
G37*
%LPD*%
%LPC*%
G36*
X602471Y277310D02*
X602471Y277310D01*
X598851Y278810D01*
X596080Y281581D01*
X594580Y285201D01*
X594580Y289119D01*
X596080Y292739D01*
X598915Y295575D01*
X598958Y295598D01*
X598975Y295612D01*
X598995Y295623D01*
X599130Y295740D01*
X599269Y295854D01*
X599283Y295872D01*
X599300Y295886D01*
X599409Y296027D01*
X599522Y296167D01*
X599533Y296187D01*
X599546Y296204D01*
X599626Y296364D01*
X599709Y296524D01*
X599716Y296545D01*
X599726Y296565D01*
X599772Y296738D01*
X599822Y296910D01*
X599824Y296932D01*
X599830Y296954D01*
X599857Y297284D01*
X599857Y306866D01*
X599854Y306897D01*
X599856Y306928D01*
X599834Y307097D01*
X599817Y307266D01*
X599808Y307296D01*
X599804Y307327D01*
X599703Y307643D01*
X599213Y308824D01*
X599213Y310936D01*
X600021Y312886D01*
X601514Y314379D01*
X603029Y315006D01*
X603464Y315187D01*
X605576Y315187D01*
X607526Y314379D01*
X609019Y312886D01*
X609827Y310936D01*
X609827Y308824D01*
X609157Y307208D01*
X609148Y307179D01*
X609134Y307151D01*
X609090Y306986D01*
X609041Y306823D01*
X609038Y306792D01*
X609030Y306762D01*
X609003Y306431D01*
X609003Y297284D01*
X609005Y297262D01*
X609003Y297240D01*
X609025Y297062D01*
X609043Y296884D01*
X609049Y296863D01*
X609052Y296840D01*
X609108Y296670D01*
X609161Y296499D01*
X609171Y296479D01*
X609178Y296458D01*
X609267Y296302D01*
X609353Y296145D01*
X609367Y296128D01*
X609378Y296108D01*
X609496Y295973D01*
X609610Y295836D01*
X609628Y295822D01*
X609642Y295805D01*
X609785Y295695D01*
X609924Y295583D01*
X609944Y295573D01*
X609956Y295564D01*
X612780Y292739D01*
X614280Y289119D01*
X614280Y285201D01*
X612780Y281581D01*
X610009Y278810D01*
X606389Y277310D01*
X602471Y277310D01*
G37*
%LPD*%
%LPC*%
G36*
X424671Y277310D02*
X424671Y277310D01*
X421051Y278810D01*
X418280Y281581D01*
X416780Y285201D01*
X416780Y289119D01*
X418280Y292739D01*
X421115Y295575D01*
X421158Y295598D01*
X421175Y295612D01*
X421195Y295623D01*
X421330Y295740D01*
X421468Y295854D01*
X421483Y295872D01*
X421500Y295886D01*
X421609Y296027D01*
X421722Y296167D01*
X421733Y296187D01*
X421746Y296204D01*
X421826Y296365D01*
X421909Y296523D01*
X421916Y296545D01*
X421926Y296565D01*
X421972Y296738D01*
X422022Y296910D01*
X422024Y296932D01*
X422030Y296954D01*
X422057Y297284D01*
X422057Y306866D01*
X422054Y306897D01*
X422056Y306928D01*
X422034Y307097D01*
X422017Y307266D01*
X422008Y307296D01*
X422004Y307327D01*
X421903Y307643D01*
X421413Y308824D01*
X421413Y310936D01*
X422221Y312886D01*
X423714Y314379D01*
X425229Y315006D01*
X425664Y315187D01*
X427776Y315187D01*
X429726Y314379D01*
X431219Y312886D01*
X432027Y310936D01*
X432027Y308824D01*
X431357Y307208D01*
X431348Y307179D01*
X431334Y307151D01*
X431290Y306986D01*
X431241Y306823D01*
X431238Y306792D01*
X431230Y306762D01*
X431203Y306431D01*
X431203Y297284D01*
X431205Y297262D01*
X431203Y297240D01*
X431225Y297062D01*
X431243Y296884D01*
X431249Y296862D01*
X431252Y296840D01*
X431308Y296670D01*
X431361Y296499D01*
X431372Y296479D01*
X431379Y296458D01*
X431467Y296302D01*
X431553Y296145D01*
X431567Y296128D01*
X431578Y296108D01*
X431696Y295973D01*
X431810Y295836D01*
X431828Y295822D01*
X431843Y295804D01*
X431985Y295695D01*
X432124Y295583D01*
X432144Y295573D01*
X432156Y295564D01*
X434980Y292739D01*
X436480Y289119D01*
X436480Y285201D01*
X434980Y281581D01*
X432209Y278810D01*
X428589Y277310D01*
X424671Y277310D01*
G37*
%LPD*%
%LPC*%
G36*
X653271Y277310D02*
X653271Y277310D01*
X649651Y278810D01*
X646880Y281581D01*
X645380Y285201D01*
X645380Y289119D01*
X646880Y292739D01*
X649692Y295551D01*
X649848Y295635D01*
X649865Y295649D01*
X649885Y295660D01*
X650020Y295777D01*
X650159Y295892D01*
X650173Y295909D01*
X650190Y295924D01*
X650299Y296065D01*
X650412Y296204D01*
X650423Y296224D01*
X650436Y296242D01*
X650516Y296402D01*
X650599Y296561D01*
X650606Y296582D01*
X650616Y296602D01*
X650662Y296776D01*
X650712Y296947D01*
X650714Y296969D01*
X650720Y296991D01*
X650747Y297322D01*
X650747Y306648D01*
X650744Y306679D01*
X650746Y306711D01*
X650724Y306880D01*
X650707Y307049D01*
X650698Y307079D01*
X650694Y307110D01*
X650593Y307426D01*
X650013Y308824D01*
X650013Y310936D01*
X650821Y312886D01*
X652314Y314379D01*
X653829Y315006D01*
X654264Y315187D01*
X656376Y315187D01*
X658326Y314379D01*
X659819Y312886D01*
X660627Y310936D01*
X660627Y308824D01*
X660047Y307426D01*
X660038Y307396D01*
X660024Y307368D01*
X659980Y307203D01*
X659931Y307040D01*
X659928Y307009D01*
X659920Y306979D01*
X659893Y306648D01*
X659893Y297247D01*
X659895Y297225D01*
X659893Y297203D01*
X659915Y297025D01*
X659933Y296847D01*
X659939Y296825D01*
X659942Y296803D01*
X659998Y296633D01*
X660051Y296462D01*
X660061Y296442D01*
X660068Y296421D01*
X660157Y296265D01*
X660243Y296108D01*
X660257Y296090D01*
X660268Y296071D01*
X660386Y295936D01*
X660500Y295798D01*
X660518Y295784D01*
X660532Y295768D01*
X660618Y295702D01*
X663580Y292739D01*
X665080Y289119D01*
X665080Y285201D01*
X663580Y281581D01*
X660809Y278810D01*
X657189Y277310D01*
X653271Y277310D01*
G37*
%LPD*%
%LPC*%
G36*
X348471Y277310D02*
X348471Y277310D01*
X344851Y278810D01*
X342080Y281581D01*
X340580Y285201D01*
X340580Y289119D01*
X342080Y292739D01*
X344892Y295551D01*
X345048Y295635D01*
X345065Y295649D01*
X345085Y295660D01*
X345220Y295777D01*
X345359Y295892D01*
X345373Y295909D01*
X345390Y295924D01*
X345499Y296065D01*
X345612Y296204D01*
X345623Y296224D01*
X345636Y296242D01*
X345716Y296402D01*
X345799Y296561D01*
X345806Y296582D01*
X345816Y296602D01*
X345862Y296776D01*
X345912Y296947D01*
X345914Y296969D01*
X345920Y296991D01*
X345947Y297322D01*
X345947Y306648D01*
X345944Y306679D01*
X345946Y306711D01*
X345924Y306880D01*
X345907Y307049D01*
X345898Y307079D01*
X345894Y307110D01*
X345793Y307426D01*
X345213Y308824D01*
X345213Y310936D01*
X346021Y312886D01*
X347514Y314379D01*
X349029Y315006D01*
X349464Y315187D01*
X351576Y315187D01*
X353526Y314379D01*
X355019Y312886D01*
X355827Y310936D01*
X355827Y308824D01*
X355247Y307426D01*
X355238Y307396D01*
X355224Y307368D01*
X355180Y307203D01*
X355131Y307040D01*
X355128Y307009D01*
X355120Y306979D01*
X355093Y306648D01*
X355093Y297247D01*
X355095Y297225D01*
X355093Y297203D01*
X355115Y297025D01*
X355133Y296847D01*
X355139Y296825D01*
X355142Y296803D01*
X355198Y296633D01*
X355251Y296462D01*
X355261Y296442D01*
X355268Y296421D01*
X355357Y296265D01*
X355443Y296108D01*
X355457Y296090D01*
X355468Y296071D01*
X355586Y295936D01*
X355700Y295798D01*
X355718Y295784D01*
X355732Y295768D01*
X355818Y295702D01*
X358780Y292739D01*
X360280Y289119D01*
X360280Y285201D01*
X358780Y281581D01*
X356009Y278810D01*
X352389Y277310D01*
X348471Y277310D01*
G37*
%LPD*%
%LPC*%
G36*
X526271Y277310D02*
X526271Y277310D01*
X522651Y278810D01*
X519880Y281581D01*
X518380Y285201D01*
X518380Y289119D01*
X519880Y292739D01*
X522692Y295551D01*
X522848Y295635D01*
X522865Y295649D01*
X522885Y295660D01*
X523020Y295777D01*
X523159Y295892D01*
X523173Y295909D01*
X523190Y295924D01*
X523299Y296065D01*
X523412Y296204D01*
X523423Y296224D01*
X523436Y296242D01*
X523516Y296402D01*
X523599Y296561D01*
X523606Y296582D01*
X523616Y296602D01*
X523662Y296776D01*
X523712Y296947D01*
X523714Y296969D01*
X523720Y296991D01*
X523747Y297322D01*
X523747Y306648D01*
X523744Y306679D01*
X523746Y306711D01*
X523724Y306880D01*
X523707Y307049D01*
X523698Y307079D01*
X523694Y307110D01*
X523593Y307426D01*
X523013Y308824D01*
X523013Y310936D01*
X523821Y312886D01*
X525314Y314379D01*
X526829Y315006D01*
X527264Y315187D01*
X529376Y315187D01*
X531326Y314379D01*
X532819Y312886D01*
X533627Y310936D01*
X533627Y308824D01*
X533047Y307426D01*
X533038Y307396D01*
X533024Y307368D01*
X532980Y307203D01*
X532931Y307040D01*
X532928Y307009D01*
X532920Y306979D01*
X532893Y306648D01*
X532893Y297247D01*
X532895Y297225D01*
X532893Y297203D01*
X532915Y297025D01*
X532933Y296847D01*
X532939Y296825D01*
X532942Y296803D01*
X532998Y296633D01*
X533051Y296462D01*
X533061Y296442D01*
X533068Y296421D01*
X533157Y296265D01*
X533243Y296108D01*
X533257Y296090D01*
X533268Y296071D01*
X533386Y295936D01*
X533500Y295798D01*
X533518Y295784D01*
X533532Y295768D01*
X533618Y295702D01*
X536580Y292739D01*
X538080Y289119D01*
X538080Y285201D01*
X536580Y281581D01*
X533809Y278810D01*
X530189Y277310D01*
X526271Y277310D01*
G37*
%LPD*%
%LPC*%
G36*
X671673Y201110D02*
X671673Y201110D01*
X670780Y202003D01*
X670780Y219917D01*
X671673Y220810D01*
X689587Y220810D01*
X690480Y219917D01*
X690480Y202003D01*
X689587Y201110D01*
X671673Y201110D01*
G37*
%LPD*%
%LPC*%
G36*
X697073Y226510D02*
X697073Y226510D01*
X696180Y227403D01*
X696180Y245317D01*
X697073Y246210D01*
X714987Y246210D01*
X715880Y245317D01*
X715880Y227403D01*
X714987Y226510D01*
X697073Y226510D01*
G37*
%LPD*%
%LPC*%
G36*
X506944Y675413D02*
X506944Y675413D01*
X504994Y676221D01*
X503501Y677714D01*
X502693Y679664D01*
X502693Y681776D01*
X503273Y683174D01*
X503282Y683204D01*
X503296Y683232D01*
X503340Y683397D01*
X503389Y683560D01*
X503392Y683591D01*
X503400Y683621D01*
X503427Y683952D01*
X503427Y694801D01*
X503425Y694828D01*
X503427Y694854D01*
X503405Y695028D01*
X503387Y695202D01*
X503380Y695227D01*
X503376Y695254D01*
X503321Y695419D01*
X503269Y695587D01*
X503256Y695610D01*
X503248Y695636D01*
X503161Y695787D01*
X503077Y695941D01*
X503060Y695961D01*
X503047Y695984D01*
X502832Y696237D01*
X501460Y697610D01*
X500285Y700445D01*
X500285Y703515D01*
X501460Y706350D01*
X503630Y708520D01*
X506465Y709695D01*
X509535Y709695D01*
X512370Y708520D01*
X514540Y706350D01*
X515715Y703515D01*
X515715Y700445D01*
X514540Y697610D01*
X513168Y696237D01*
X513151Y696217D01*
X513130Y696199D01*
X513023Y696061D01*
X512913Y695926D01*
X512900Y695902D01*
X512884Y695881D01*
X512806Y695724D01*
X512724Y695570D01*
X512716Y695545D01*
X512704Y695521D01*
X512659Y695351D01*
X512609Y695184D01*
X512607Y695158D01*
X512600Y695132D01*
X512573Y694801D01*
X512573Y683952D01*
X512576Y683921D01*
X512574Y683889D01*
X512596Y683720D01*
X512613Y683551D01*
X512622Y683521D01*
X512626Y683490D01*
X512727Y683174D01*
X513307Y681776D01*
X513307Y679664D01*
X512499Y677714D01*
X511006Y676221D01*
X509056Y675413D01*
X506944Y675413D01*
G37*
%LPD*%
%LPC*%
G36*
X430744Y675413D02*
X430744Y675413D01*
X428794Y676221D01*
X427301Y677714D01*
X426493Y679664D01*
X426493Y681776D01*
X427073Y683174D01*
X427082Y683204D01*
X427096Y683232D01*
X427140Y683397D01*
X427189Y683560D01*
X427192Y683591D01*
X427200Y683621D01*
X427227Y683952D01*
X427227Y694801D01*
X427225Y694828D01*
X427227Y694854D01*
X427205Y695028D01*
X427187Y695202D01*
X427180Y695227D01*
X427176Y695254D01*
X427121Y695419D01*
X427069Y695587D01*
X427056Y695610D01*
X427048Y695636D01*
X426961Y695787D01*
X426877Y695941D01*
X426860Y695961D01*
X426847Y695984D01*
X426632Y696237D01*
X425260Y697610D01*
X424085Y700445D01*
X424085Y703515D01*
X425260Y706350D01*
X427430Y708520D01*
X430265Y709695D01*
X433335Y709695D01*
X436170Y708520D01*
X438340Y706350D01*
X439515Y703515D01*
X439515Y700445D01*
X438340Y697610D01*
X436968Y696237D01*
X436951Y696217D01*
X436930Y696199D01*
X436823Y696061D01*
X436713Y695926D01*
X436700Y695902D01*
X436684Y695881D01*
X436606Y695724D01*
X436524Y695570D01*
X436516Y695545D01*
X436504Y695521D01*
X436459Y695351D01*
X436409Y695184D01*
X436407Y695158D01*
X436400Y695132D01*
X436373Y694801D01*
X436373Y683952D01*
X436376Y683921D01*
X436374Y683889D01*
X436396Y683720D01*
X436413Y683551D01*
X436422Y683521D01*
X436426Y683490D01*
X436527Y683174D01*
X437107Y681776D01*
X437107Y679664D01*
X436299Y677714D01*
X434806Y676221D01*
X432856Y675413D01*
X430744Y675413D01*
G37*
%LPD*%
%LPC*%
G36*
X531865Y694265D02*
X531865Y694265D01*
X529030Y695440D01*
X526860Y697610D01*
X525685Y700445D01*
X525685Y703515D01*
X526860Y706350D01*
X528232Y707723D01*
X528249Y707743D01*
X528270Y707761D01*
X528376Y707898D01*
X528487Y708034D01*
X528500Y708058D01*
X528516Y708079D01*
X528594Y708236D01*
X528676Y708390D01*
X528684Y708415D01*
X528696Y708439D01*
X528741Y708609D01*
X528791Y708776D01*
X528793Y708802D01*
X528800Y708828D01*
X528827Y709159D01*
X528827Y718128D01*
X528824Y718159D01*
X528826Y718191D01*
X528804Y718360D01*
X528787Y718529D01*
X528778Y718559D01*
X528774Y718590D01*
X528673Y718906D01*
X528093Y720304D01*
X528093Y722416D01*
X528901Y724366D01*
X530394Y725859D01*
X532344Y726667D01*
X534456Y726667D01*
X536406Y725859D01*
X537899Y724366D01*
X538707Y722416D01*
X538707Y720304D01*
X538127Y718906D01*
X538118Y718876D01*
X538104Y718848D01*
X538060Y718683D01*
X538011Y718520D01*
X538008Y718489D01*
X538000Y718459D01*
X537973Y718128D01*
X537973Y709159D01*
X537975Y709132D01*
X537973Y709106D01*
X537995Y708932D01*
X538013Y708758D01*
X538020Y708733D01*
X538024Y708706D01*
X538079Y708541D01*
X538131Y708373D01*
X538144Y708350D01*
X538152Y708324D01*
X538239Y708173D01*
X538323Y708019D01*
X538340Y707999D01*
X538353Y707976D01*
X538568Y707723D01*
X539940Y706350D01*
X541115Y703515D01*
X541115Y700445D01*
X539940Y697610D01*
X537770Y695440D01*
X534935Y694265D01*
X531865Y694265D01*
G37*
%LPD*%
%LPC*%
G36*
X678671Y277310D02*
X678671Y277310D01*
X675051Y278810D01*
X672280Y281581D01*
X670780Y285201D01*
X670780Y289119D01*
X672280Y292739D01*
X675051Y295510D01*
X678671Y297010D01*
X682589Y297010D01*
X686209Y295510D01*
X688980Y292739D01*
X690480Y289119D01*
X690480Y285201D01*
X688980Y281581D01*
X686209Y278810D01*
X682589Y277310D01*
X678671Y277310D01*
G37*
%LPD*%
%LPC*%
G36*
X500871Y251910D02*
X500871Y251910D01*
X497251Y253410D01*
X494480Y256181D01*
X492980Y259801D01*
X492980Y263719D01*
X494480Y267339D01*
X497251Y270110D01*
X500871Y271610D01*
X504789Y271610D01*
X508409Y270110D01*
X511180Y267339D01*
X512680Y263719D01*
X512680Y259801D01*
X511180Y256181D01*
X508409Y253410D01*
X504789Y251910D01*
X500871Y251910D01*
G37*
%LPD*%
%LPC*%
G36*
X475471Y251910D02*
X475471Y251910D01*
X471851Y253410D01*
X469080Y256181D01*
X467580Y259801D01*
X467580Y263719D01*
X469080Y267339D01*
X471851Y270110D01*
X475471Y271610D01*
X479389Y271610D01*
X483009Y270110D01*
X485780Y267339D01*
X487280Y263719D01*
X487280Y259801D01*
X485780Y256181D01*
X483009Y253410D01*
X479389Y251910D01*
X475471Y251910D01*
G37*
%LPD*%
%LPC*%
G36*
X551671Y277310D02*
X551671Y277310D01*
X548051Y278810D01*
X545280Y281581D01*
X543780Y285201D01*
X543780Y289119D01*
X545280Y292739D01*
X548051Y295510D01*
X551671Y297010D01*
X555589Y297010D01*
X559209Y295510D01*
X561980Y292739D01*
X563480Y289119D01*
X563480Y285201D01*
X561980Y281581D01*
X559209Y278810D01*
X555589Y277310D01*
X551671Y277310D01*
G37*
%LPD*%
%LPC*%
G36*
X500871Y277310D02*
X500871Y277310D01*
X497251Y278810D01*
X494480Y281581D01*
X492980Y285201D01*
X492980Y289119D01*
X494480Y292739D01*
X497251Y295510D01*
X500871Y297010D01*
X504789Y297010D01*
X508409Y295510D01*
X511180Y292739D01*
X512680Y289119D01*
X512680Y285201D01*
X511180Y281581D01*
X508409Y278810D01*
X504789Y277310D01*
X500871Y277310D01*
G37*
%LPD*%
%LPC*%
G36*
X551671Y251910D02*
X551671Y251910D01*
X548051Y253410D01*
X545280Y256181D01*
X543780Y259801D01*
X543780Y263719D01*
X545280Y267339D01*
X548051Y270110D01*
X551671Y271610D01*
X555589Y271610D01*
X559209Y270110D01*
X561980Y267339D01*
X563480Y263719D01*
X563480Y259801D01*
X561980Y256181D01*
X559209Y253410D01*
X555589Y251910D01*
X551671Y251910D01*
G37*
%LPD*%
%LPC*%
G36*
X475471Y277310D02*
X475471Y277310D01*
X471851Y278810D01*
X469080Y281581D01*
X467580Y285201D01*
X467580Y289119D01*
X469080Y292739D01*
X471851Y295510D01*
X475471Y297010D01*
X479389Y297010D01*
X483009Y295510D01*
X485780Y292739D01*
X487280Y289119D01*
X487280Y285201D01*
X485780Y281581D01*
X483009Y278810D01*
X479389Y277310D01*
X475471Y277310D01*
G37*
%LPD*%
%LPC*%
G36*
X399271Y277310D02*
X399271Y277310D01*
X395651Y278810D01*
X392880Y281581D01*
X391380Y285201D01*
X391380Y289119D01*
X392880Y292739D01*
X395651Y295510D01*
X399271Y297010D01*
X403189Y297010D01*
X406809Y295510D01*
X409580Y292739D01*
X411080Y289119D01*
X411080Y285201D01*
X409580Y281581D01*
X406809Y278810D01*
X403189Y277310D01*
X399271Y277310D01*
G37*
%LPD*%
%LPC*%
G36*
X323071Y277310D02*
X323071Y277310D01*
X319451Y278810D01*
X316680Y281581D01*
X315180Y285201D01*
X315180Y289119D01*
X316680Y292739D01*
X319451Y295510D01*
X323071Y297010D01*
X326989Y297010D01*
X330609Y295510D01*
X333380Y292739D01*
X334880Y289119D01*
X334880Y285201D01*
X333380Y281581D01*
X330609Y278810D01*
X326989Y277310D01*
X323071Y277310D01*
G37*
%LPD*%
%LPC*%
G36*
X297671Y277310D02*
X297671Y277310D01*
X294051Y278810D01*
X291280Y281581D01*
X289780Y285201D01*
X289780Y289119D01*
X291280Y292739D01*
X294051Y295510D01*
X297671Y297010D01*
X301589Y297010D01*
X305209Y295510D01*
X307980Y292739D01*
X309480Y289119D01*
X309480Y285201D01*
X307980Y281581D01*
X305209Y278810D01*
X301589Y277310D01*
X297671Y277310D01*
G37*
%LPD*%
%LPC*%
G36*
X678671Y251910D02*
X678671Y251910D01*
X675051Y253410D01*
X672280Y256181D01*
X670780Y259801D01*
X670780Y263719D01*
X672280Y267339D01*
X675051Y270110D01*
X678671Y271610D01*
X682589Y271610D01*
X686209Y270110D01*
X688980Y267339D01*
X690480Y263719D01*
X690480Y259801D01*
X688980Y256181D01*
X686209Y253410D01*
X682589Y251910D01*
X678671Y251910D01*
G37*
%LPD*%
%LPC*%
G36*
X450071Y251910D02*
X450071Y251910D01*
X446451Y253410D01*
X443680Y256181D01*
X442180Y259801D01*
X442180Y263719D01*
X443680Y267339D01*
X446451Y270110D01*
X450071Y271610D01*
X453989Y271610D01*
X457609Y270110D01*
X460380Y267339D01*
X461880Y263719D01*
X461880Y259801D01*
X460380Y256181D01*
X457609Y253410D01*
X453989Y251910D01*
X450071Y251910D01*
G37*
%LPD*%
%LPC*%
G36*
X704071Y201110D02*
X704071Y201110D01*
X700451Y202610D01*
X697680Y205381D01*
X696180Y209001D01*
X696180Y212919D01*
X697680Y216539D01*
X700451Y219310D01*
X704071Y220810D01*
X707989Y220810D01*
X711609Y219310D01*
X714380Y216539D01*
X715880Y212919D01*
X715880Y209001D01*
X714380Y205381D01*
X711609Y202610D01*
X707989Y201110D01*
X704071Y201110D01*
G37*
%LPD*%
%LPC*%
G36*
X678671Y226510D02*
X678671Y226510D01*
X675051Y228010D01*
X672280Y230781D01*
X670780Y234401D01*
X670780Y238319D01*
X672280Y241939D01*
X675051Y244710D01*
X678671Y246210D01*
X682589Y246210D01*
X686209Y244710D01*
X688980Y241939D01*
X690480Y238319D01*
X690480Y234401D01*
X688980Y230781D01*
X686209Y228010D01*
X682589Y226510D01*
X678671Y226510D01*
G37*
%LPD*%
%LPC*%
G36*
X577071Y251910D02*
X577071Y251910D01*
X573451Y253410D01*
X570680Y256181D01*
X569180Y259801D01*
X569180Y263719D01*
X570680Y267339D01*
X573451Y270110D01*
X577071Y271610D01*
X580989Y271610D01*
X584609Y270110D01*
X587380Y267339D01*
X588880Y263719D01*
X588880Y259801D01*
X587380Y256181D01*
X584609Y253410D01*
X580989Y251910D01*
X577071Y251910D01*
G37*
%LPD*%
%LPC*%
G36*
X176783Y841463D02*
X176783Y841463D01*
X176783Y861224D01*
X179411Y860624D01*
X181969Y859729D01*
X184411Y858553D01*
X186706Y857111D01*
X188825Y855421D01*
X190741Y853505D01*
X192431Y851386D01*
X193873Y849091D01*
X195049Y846649D01*
X195944Y844091D01*
X196544Y841463D01*
X176783Y841463D01*
G37*
%LPD*%
%LPC*%
G36*
X148896Y841463D02*
X148896Y841463D01*
X149496Y844091D01*
X150391Y846649D01*
X151567Y849091D01*
X153009Y851386D01*
X154699Y853505D01*
X156615Y855421D01*
X158734Y857111D01*
X161029Y858553D01*
X163471Y859729D01*
X166029Y860624D01*
X168657Y861224D01*
X168657Y841463D01*
X148896Y841463D01*
G37*
%LPD*%
%LPC*%
G36*
X176783Y833337D02*
X176783Y833337D01*
X196544Y833337D01*
X195944Y830709D01*
X195049Y828151D01*
X193873Y825709D01*
X192431Y823414D01*
X190741Y821295D01*
X188825Y819379D01*
X186706Y817689D01*
X184411Y816247D01*
X181969Y815071D01*
X179411Y814176D01*
X176783Y813576D01*
X176783Y833337D01*
G37*
%LPD*%
%LPC*%
G36*
X166029Y814176D02*
X166029Y814176D01*
X163471Y815071D01*
X161029Y816247D01*
X158734Y817689D01*
X156615Y819379D01*
X154699Y821295D01*
X153009Y823414D01*
X151567Y825709D01*
X150391Y828151D01*
X149496Y830709D01*
X148896Y833337D01*
X168657Y833337D01*
X168657Y813576D01*
X166029Y814176D01*
G37*
%LPD*%
%LPC*%
G36*
X506465Y773665D02*
X506465Y773665D01*
X503630Y774840D01*
X501460Y777010D01*
X500285Y779845D01*
X500285Y782915D01*
X501460Y785750D01*
X503630Y787920D01*
X506465Y789095D01*
X509535Y789095D01*
X512370Y787920D01*
X514540Y785750D01*
X515715Y782915D01*
X515715Y779845D01*
X514540Y777010D01*
X512370Y774840D01*
X509535Y773665D01*
X506465Y773665D01*
G37*
%LPD*%
%LPC*%
G36*
X557265Y773665D02*
X557265Y773665D01*
X554430Y774840D01*
X552260Y777010D01*
X551085Y779845D01*
X551085Y782915D01*
X552260Y785750D01*
X554430Y787920D01*
X557265Y789095D01*
X560335Y789095D01*
X563170Y787920D01*
X565340Y785750D01*
X566515Y782915D01*
X566515Y779845D01*
X565340Y777010D01*
X563170Y774840D01*
X560335Y773665D01*
X557265Y773665D01*
G37*
%LPD*%
%LPC*%
G36*
X430265Y773665D02*
X430265Y773665D01*
X427430Y774840D01*
X425260Y777010D01*
X424085Y779845D01*
X424085Y782915D01*
X425260Y785750D01*
X427430Y787920D01*
X430265Y789095D01*
X433335Y789095D01*
X436170Y787920D01*
X438340Y785750D01*
X439515Y782915D01*
X439515Y779845D01*
X438340Y777010D01*
X436170Y774840D01*
X433335Y773665D01*
X430265Y773665D01*
G37*
%LPD*%
%LPC*%
G36*
X531865Y773665D02*
X531865Y773665D01*
X529030Y774840D01*
X526860Y777010D01*
X525685Y779845D01*
X525685Y782915D01*
X526860Y785750D01*
X529030Y787920D01*
X531865Y789095D01*
X534935Y789095D01*
X537770Y787920D01*
X539940Y785750D01*
X541115Y782915D01*
X541115Y779845D01*
X539940Y777010D01*
X537770Y774840D01*
X534935Y773665D01*
X531865Y773665D01*
G37*
%LPD*%
%LPC*%
G36*
X481065Y773665D02*
X481065Y773665D01*
X478230Y774840D01*
X476060Y777010D01*
X474885Y779845D01*
X474885Y782915D01*
X476060Y785750D01*
X478230Y787920D01*
X481065Y789095D01*
X484135Y789095D01*
X486970Y787920D01*
X489140Y785750D01*
X490315Y782915D01*
X490315Y779845D01*
X489140Y777010D01*
X486970Y774840D01*
X484135Y773665D01*
X481065Y773665D01*
G37*
%LPD*%
%LPC*%
G36*
X455665Y773665D02*
X455665Y773665D01*
X452830Y774840D01*
X450660Y777010D01*
X449485Y779845D01*
X449485Y782915D01*
X450660Y785750D01*
X452830Y787920D01*
X455665Y789095D01*
X458735Y789095D01*
X461570Y787920D01*
X463740Y785750D01*
X464915Y782915D01*
X464915Y779845D01*
X463740Y777010D01*
X461570Y774840D01*
X458735Y773665D01*
X455665Y773665D01*
G37*
%LPD*%
%LPC*%
G36*
X601624Y848604D02*
X601624Y848604D01*
X601624Y865690D01*
X603052Y865226D01*
X604664Y864404D01*
X606128Y863341D01*
X607407Y862061D01*
X608471Y860598D01*
X609292Y858986D01*
X609851Y857265D01*
X610134Y855478D01*
X610134Y848604D01*
X601624Y848604D01*
G37*
%LPD*%
%LPC*%
G36*
X444144Y848604D02*
X444144Y848604D01*
X444144Y865690D01*
X445572Y865226D01*
X447184Y864404D01*
X448648Y863341D01*
X449927Y862061D01*
X450991Y860598D01*
X451812Y858986D01*
X452371Y857265D01*
X452654Y855478D01*
X452654Y848604D01*
X444144Y848604D01*
G37*
%LPD*%
%LPC*%
G36*
X601624Y842636D02*
X601624Y842636D01*
X610134Y842636D01*
X610134Y835762D01*
X609851Y833975D01*
X609292Y832254D01*
X608471Y830642D01*
X607407Y829179D01*
X606128Y827899D01*
X604664Y826836D01*
X603052Y826014D01*
X601624Y825550D01*
X601624Y842636D01*
G37*
%LPD*%
%LPC*%
G36*
X444144Y842636D02*
X444144Y842636D01*
X452654Y842636D01*
X452654Y835762D01*
X452371Y833975D01*
X451812Y832254D01*
X450991Y830642D01*
X449927Y829179D01*
X448648Y827899D01*
X447184Y826836D01*
X445572Y826014D01*
X444144Y825550D01*
X444144Y842636D01*
G37*
%LPD*%
%LPC*%
G36*
X429666Y848604D02*
X429666Y848604D01*
X429666Y855478D01*
X429949Y857265D01*
X430508Y858986D01*
X431329Y860598D01*
X432393Y862061D01*
X433672Y863341D01*
X435136Y864404D01*
X436748Y865226D01*
X438176Y865690D01*
X438176Y848604D01*
X429666Y848604D01*
G37*
%LPD*%
%LPC*%
G36*
X587146Y848604D02*
X587146Y848604D01*
X587146Y855478D01*
X587429Y857265D01*
X587988Y858986D01*
X588809Y860598D01*
X589873Y862061D01*
X591152Y863341D01*
X592616Y864404D01*
X594228Y865226D01*
X595656Y865690D01*
X595656Y848604D01*
X587146Y848604D01*
G37*
%LPD*%
%LPC*%
G36*
X594228Y826014D02*
X594228Y826014D01*
X592616Y826836D01*
X591152Y827899D01*
X589873Y829179D01*
X588809Y830642D01*
X587988Y832254D01*
X587429Y833975D01*
X587146Y835762D01*
X587146Y842636D01*
X595656Y842636D01*
X595656Y825550D01*
X594228Y826014D01*
G37*
%LPD*%
%LPC*%
G36*
X436748Y826014D02*
X436748Y826014D01*
X435136Y826836D01*
X433672Y827899D01*
X432393Y829179D01*
X431329Y830642D01*
X430508Y832254D01*
X429949Y833975D01*
X429666Y835762D01*
X429666Y842636D01*
X438176Y842636D01*
X438176Y825550D01*
X436748Y826014D01*
G37*
%LPD*%
%LPC*%
G36*
X863091Y70611D02*
X863091Y70611D01*
X863091Y77725D01*
X868384Y77725D01*
X869805Y77500D01*
X871174Y77055D01*
X872457Y76401D01*
X873621Y75555D01*
X874639Y74537D01*
X875485Y73373D01*
X876139Y72090D01*
X876584Y70721D01*
X876601Y70611D01*
X863091Y70611D01*
G37*
%LPD*%
%LPC*%
G36*
X863091Y410971D02*
X863091Y410971D01*
X863091Y418085D01*
X868384Y418085D01*
X869805Y417860D01*
X871174Y417415D01*
X872457Y416761D01*
X873621Y415915D01*
X874639Y414897D01*
X875485Y413733D01*
X876139Y412450D01*
X876584Y411081D01*
X876601Y410971D01*
X863091Y410971D01*
G37*
%LPD*%
%LPC*%
G36*
X863091Y583691D02*
X863091Y583691D01*
X863091Y590805D01*
X868384Y590805D01*
X869805Y590580D01*
X871174Y590135D01*
X872457Y589481D01*
X873621Y588635D01*
X874639Y587617D01*
X875485Y586453D01*
X876139Y585170D01*
X876584Y583801D01*
X876601Y583691D01*
X863091Y583691D01*
G37*
%LPD*%
%LPC*%
G36*
X863091Y243331D02*
X863091Y243331D01*
X863091Y250445D01*
X868384Y250445D01*
X869805Y250220D01*
X871174Y249775D01*
X872457Y249121D01*
X873621Y248275D01*
X874639Y247257D01*
X875485Y246093D01*
X876139Y244810D01*
X876584Y243441D01*
X876601Y243331D01*
X863091Y243331D01*
G37*
%LPD*%
%LPC*%
G36*
X863091Y751331D02*
X863091Y751331D01*
X863091Y758445D01*
X868384Y758445D01*
X869805Y758220D01*
X871174Y757775D01*
X872457Y757121D01*
X873621Y756275D01*
X874639Y755257D01*
X875485Y754093D01*
X876139Y752810D01*
X876584Y751441D01*
X876601Y751331D01*
X863091Y751331D01*
G37*
%LPD*%
%LPC*%
G36*
X845519Y583691D02*
X845519Y583691D01*
X845536Y583801D01*
X845981Y585170D01*
X846635Y586453D01*
X847481Y587617D01*
X848499Y588635D01*
X849663Y589481D01*
X850946Y590135D01*
X852315Y590580D01*
X853736Y590805D01*
X859029Y590805D01*
X859029Y583691D01*
X845519Y583691D01*
G37*
%LPD*%
%LPC*%
G36*
X845519Y751331D02*
X845519Y751331D01*
X845536Y751441D01*
X845981Y752810D01*
X846635Y754093D01*
X847481Y755257D01*
X848499Y756275D01*
X849663Y757121D01*
X850946Y757775D01*
X852315Y758220D01*
X853736Y758445D01*
X859029Y758445D01*
X859029Y751331D01*
X845519Y751331D01*
G37*
%LPD*%
%LPC*%
G36*
X845519Y410971D02*
X845519Y410971D01*
X845536Y411081D01*
X845981Y412450D01*
X846635Y413733D01*
X847481Y414897D01*
X848499Y415915D01*
X849663Y416761D01*
X850946Y417415D01*
X852315Y417860D01*
X853736Y418085D01*
X859029Y418085D01*
X859029Y410971D01*
X845519Y410971D01*
G37*
%LPD*%
%LPC*%
G36*
X845519Y243331D02*
X845519Y243331D01*
X845536Y243441D01*
X845981Y244810D01*
X846635Y246093D01*
X847481Y247257D01*
X848499Y248275D01*
X849663Y249121D01*
X850946Y249775D01*
X852315Y250220D01*
X853736Y250445D01*
X859029Y250445D01*
X859029Y243331D01*
X845519Y243331D01*
G37*
%LPD*%
%LPC*%
G36*
X845519Y70611D02*
X845519Y70611D01*
X845536Y70721D01*
X845981Y72090D01*
X846635Y73373D01*
X847481Y74537D01*
X848499Y75555D01*
X849663Y76401D01*
X850946Y77055D01*
X852315Y77500D01*
X853736Y77725D01*
X859029Y77725D01*
X859029Y70611D01*
X845519Y70611D01*
G37*
%LPD*%
%LPC*%
G36*
X863091Y572515D02*
X863091Y572515D01*
X863091Y579629D01*
X876601Y579629D01*
X876584Y579519D01*
X876139Y578150D01*
X875485Y576867D01*
X874639Y575703D01*
X873621Y574685D01*
X872457Y573839D01*
X871174Y573185D01*
X869805Y572740D01*
X868384Y572515D01*
X863091Y572515D01*
G37*
%LPD*%
%LPC*%
G36*
X863091Y399795D02*
X863091Y399795D01*
X863091Y406909D01*
X876601Y406909D01*
X876584Y406799D01*
X876139Y405430D01*
X875485Y404147D01*
X874639Y402983D01*
X873621Y401965D01*
X872457Y401119D01*
X871174Y400465D01*
X869805Y400020D01*
X868384Y399795D01*
X863091Y399795D01*
G37*
%LPD*%
%LPC*%
G36*
X863091Y232155D02*
X863091Y232155D01*
X863091Y239269D01*
X876601Y239269D01*
X876584Y239159D01*
X876139Y237790D01*
X875485Y236507D01*
X874639Y235343D01*
X873621Y234325D01*
X872457Y233479D01*
X871174Y232825D01*
X869805Y232380D01*
X868384Y232155D01*
X863091Y232155D01*
G37*
%LPD*%
%LPC*%
G36*
X863091Y740155D02*
X863091Y740155D01*
X863091Y747269D01*
X876601Y747269D01*
X876584Y747159D01*
X876139Y745790D01*
X875485Y744507D01*
X874639Y743343D01*
X873621Y742325D01*
X872457Y741479D01*
X871174Y740825D01*
X869805Y740380D01*
X868384Y740155D01*
X863091Y740155D01*
G37*
%LPD*%
%LPC*%
G36*
X863091Y59435D02*
X863091Y59435D01*
X863091Y66549D01*
X876601Y66549D01*
X876584Y66439D01*
X876139Y65070D01*
X875485Y63787D01*
X874639Y62623D01*
X873621Y61605D01*
X872457Y60759D01*
X871174Y60105D01*
X869805Y59660D01*
X868384Y59435D01*
X863091Y59435D01*
G37*
%LPD*%
%LPC*%
G36*
X853736Y232155D02*
X853736Y232155D01*
X852315Y232380D01*
X850946Y232825D01*
X849663Y233479D01*
X848499Y234325D01*
X847481Y235343D01*
X846635Y236507D01*
X845981Y237790D01*
X845536Y239159D01*
X845519Y239269D01*
X859029Y239269D01*
X859029Y232155D01*
X853736Y232155D01*
G37*
%LPD*%
%LPC*%
G36*
X853736Y740155D02*
X853736Y740155D01*
X852315Y740380D01*
X850946Y740825D01*
X849663Y741479D01*
X848499Y742325D01*
X847481Y743343D01*
X846635Y744507D01*
X845981Y745790D01*
X845536Y747159D01*
X845519Y747269D01*
X859029Y747269D01*
X859029Y740155D01*
X853736Y740155D01*
G37*
%LPD*%
%LPC*%
G36*
X853736Y572515D02*
X853736Y572515D01*
X852315Y572740D01*
X850946Y573185D01*
X849663Y573839D01*
X848499Y574685D01*
X847481Y575703D01*
X846635Y576867D01*
X845981Y578150D01*
X845536Y579519D01*
X845519Y579629D01*
X859029Y579629D01*
X859029Y572515D01*
X853736Y572515D01*
G37*
%LPD*%
%LPC*%
G36*
X853736Y399795D02*
X853736Y399795D01*
X852315Y400020D01*
X850946Y400465D01*
X849663Y401119D01*
X848499Y401965D01*
X847481Y402983D01*
X846635Y404147D01*
X845981Y405430D01*
X845536Y406799D01*
X845519Y406909D01*
X859029Y406909D01*
X859029Y399795D01*
X853736Y399795D01*
G37*
%LPD*%
%LPC*%
G36*
X853736Y59435D02*
X853736Y59435D01*
X852315Y59660D01*
X850946Y60105D01*
X849663Y60759D01*
X848499Y61605D01*
X847481Y62623D01*
X846635Y63787D01*
X845981Y65070D01*
X845536Y66439D01*
X845519Y66549D01*
X859029Y66549D01*
X859029Y59435D01*
X853736Y59435D01*
G37*
%LPD*%
%LPC*%
G36*
X68579Y546099D02*
X68579Y546099D01*
X68579Y555245D01*
X68836Y555205D01*
X70623Y554624D01*
X72297Y553771D01*
X73818Y552666D01*
X75146Y551338D01*
X76251Y549817D01*
X77104Y548143D01*
X77685Y546356D01*
X77725Y546099D01*
X68579Y546099D01*
G37*
%LPD*%
%LPC*%
G36*
X114299Y718819D02*
X114299Y718819D01*
X114299Y727965D01*
X114556Y727925D01*
X116343Y727344D01*
X118017Y726491D01*
X119538Y725386D01*
X120866Y724058D01*
X121971Y722537D01*
X122824Y720863D01*
X123405Y719076D01*
X123445Y718819D01*
X114299Y718819D01*
G37*
%LPD*%
%LPC*%
G36*
X68579Y297181D02*
X68579Y297181D01*
X77725Y297181D01*
X77685Y296924D01*
X77104Y295137D01*
X76251Y293463D01*
X75146Y291942D01*
X73818Y290614D01*
X72297Y289509D01*
X70623Y288656D01*
X68836Y288075D01*
X68579Y288035D01*
X68579Y297181D01*
G37*
%LPD*%
%LPC*%
G36*
X54355Y546099D02*
X54355Y546099D01*
X54395Y546356D01*
X54976Y548143D01*
X55829Y549817D01*
X56934Y551338D01*
X58262Y552666D01*
X59783Y553771D01*
X61457Y554624D01*
X63244Y555205D01*
X63501Y555245D01*
X63501Y546099D01*
X54355Y546099D01*
G37*
%LPD*%
%LPC*%
G36*
X100075Y718819D02*
X100075Y718819D01*
X100115Y719076D01*
X100696Y720863D01*
X101549Y722537D01*
X102654Y724058D01*
X103982Y725386D01*
X105503Y726491D01*
X107177Y727344D01*
X108964Y727925D01*
X109221Y727965D01*
X109221Y718819D01*
X100075Y718819D01*
G37*
%LPD*%
%LPC*%
G36*
X63244Y288075D02*
X63244Y288075D01*
X61457Y288656D01*
X59783Y289509D01*
X58262Y290614D01*
X56934Y291942D01*
X55829Y293463D01*
X54976Y295137D01*
X54395Y296924D01*
X54355Y297181D01*
X63501Y297181D01*
X63501Y288035D01*
X63244Y288075D01*
G37*
%LPD*%
%LPC*%
G36*
X378604Y289934D02*
X378604Y289934D01*
X378604Y297683D01*
X380001Y297230D01*
X381525Y296453D01*
X382909Y295448D01*
X384118Y294239D01*
X385123Y292855D01*
X385900Y291331D01*
X386353Y289934D01*
X378604Y289934D01*
G37*
%LPD*%
%LPC*%
G36*
X632604Y289934D02*
X632604Y289934D01*
X632604Y297683D01*
X634001Y297230D01*
X635525Y296453D01*
X636909Y295448D01*
X638118Y294239D01*
X639123Y292855D01*
X639900Y291331D01*
X640353Y289934D01*
X632604Y289934D01*
G37*
%LPD*%
%LPC*%
G36*
X327804Y264534D02*
X327804Y264534D01*
X327804Y272283D01*
X329201Y271830D01*
X330725Y271053D01*
X332109Y270048D01*
X333318Y268839D01*
X334323Y267455D01*
X335100Y265931D01*
X335553Y264534D01*
X327804Y264534D01*
G37*
%LPD*%
%LPC*%
G36*
X277004Y289934D02*
X277004Y289934D01*
X277004Y297683D01*
X278401Y297230D01*
X279925Y296453D01*
X281309Y295448D01*
X282518Y294239D01*
X283523Y292855D01*
X284300Y291331D01*
X284753Y289934D01*
X277004Y289934D01*
G37*
%LPD*%
%LPC*%
G36*
X531004Y264534D02*
X531004Y264534D01*
X531004Y272283D01*
X532401Y271830D01*
X533925Y271053D01*
X535309Y270048D01*
X536518Y268839D01*
X537523Y267455D01*
X538300Y265931D01*
X538753Y264534D01*
X531004Y264534D01*
G37*
%LPD*%
%LPC*%
G36*
X581804Y289934D02*
X581804Y289934D01*
X581804Y297683D01*
X583201Y297230D01*
X584725Y296453D01*
X586109Y295448D01*
X587318Y294239D01*
X588323Y292855D01*
X589100Y291331D01*
X589553Y289934D01*
X581804Y289934D01*
G37*
%LPD*%
%LPC*%
G36*
X708804Y264534D02*
X708804Y264534D01*
X708804Y272283D01*
X710201Y271830D01*
X711725Y271053D01*
X713109Y270048D01*
X714318Y268839D01*
X715323Y267455D01*
X716100Y265931D01*
X716553Y264534D01*
X708804Y264534D01*
G37*
%LPD*%
%LPC*%
G36*
X454804Y289934D02*
X454804Y289934D01*
X454804Y297683D01*
X456201Y297230D01*
X457725Y296453D01*
X459109Y295448D01*
X460318Y294239D01*
X461323Y292855D01*
X462100Y291331D01*
X462553Y289934D01*
X454804Y289934D01*
G37*
%LPD*%
%LPC*%
G36*
X531004Y258986D02*
X531004Y258986D01*
X538753Y258986D01*
X538300Y257589D01*
X537523Y256065D01*
X536518Y254681D01*
X535309Y253472D01*
X533925Y252467D01*
X532401Y251690D01*
X531004Y251237D01*
X531004Y258986D01*
G37*
%LPD*%
%LPC*%
G36*
X619307Y289934D02*
X619307Y289934D01*
X619760Y291331D01*
X620537Y292855D01*
X621542Y294239D01*
X622751Y295448D01*
X624135Y296453D01*
X625659Y297230D01*
X627056Y297683D01*
X627056Y289934D01*
X619307Y289934D01*
G37*
%LPD*%
%LPC*%
G36*
X365307Y289934D02*
X365307Y289934D01*
X365760Y291331D01*
X366537Y292855D01*
X367542Y294239D01*
X368751Y295448D01*
X370135Y296453D01*
X371659Y297230D01*
X373056Y297683D01*
X373056Y289934D01*
X365307Y289934D01*
G37*
%LPD*%
%LPC*%
G36*
X263707Y289934D02*
X263707Y289934D01*
X264160Y291331D01*
X264937Y292855D01*
X265942Y294239D01*
X267151Y295448D01*
X268535Y296453D01*
X270059Y297230D01*
X271456Y297683D01*
X271456Y289934D01*
X263707Y289934D01*
G37*
%LPD*%
%LPC*%
G36*
X708804Y258986D02*
X708804Y258986D01*
X716553Y258986D01*
X716100Y257589D01*
X715323Y256065D01*
X714318Y254681D01*
X713109Y253472D01*
X711725Y252467D01*
X710201Y251690D01*
X708804Y251237D01*
X708804Y258986D01*
G37*
%LPD*%
%LPC*%
G36*
X441507Y289934D02*
X441507Y289934D01*
X441960Y291331D01*
X442737Y292855D01*
X443742Y294239D01*
X444951Y295448D01*
X446335Y296453D01*
X447859Y297230D01*
X449256Y297683D01*
X449256Y289934D01*
X441507Y289934D01*
G37*
%LPD*%
%LPC*%
G36*
X568507Y289934D02*
X568507Y289934D01*
X568960Y291331D01*
X569737Y292855D01*
X570742Y294239D01*
X571951Y295448D01*
X573335Y296453D01*
X574859Y297230D01*
X576256Y297683D01*
X576256Y289934D01*
X568507Y289934D01*
G37*
%LPD*%
%LPC*%
G36*
X632604Y284386D02*
X632604Y284386D01*
X640353Y284386D01*
X639900Y282989D01*
X639123Y281465D01*
X638118Y280081D01*
X636909Y278872D01*
X635525Y277867D01*
X634001Y277090D01*
X632604Y276637D01*
X632604Y284386D01*
G37*
%LPD*%
%LPC*%
G36*
X581804Y284386D02*
X581804Y284386D01*
X589553Y284386D01*
X589100Y282989D01*
X588323Y281465D01*
X587318Y280081D01*
X586109Y278872D01*
X584725Y277867D01*
X583201Y277090D01*
X581804Y276637D01*
X581804Y284386D01*
G37*
%LPD*%
%LPC*%
G36*
X277004Y284386D02*
X277004Y284386D01*
X284753Y284386D01*
X284300Y282989D01*
X283523Y281465D01*
X282518Y280081D01*
X281309Y278872D01*
X279925Y277867D01*
X278401Y277090D01*
X277004Y276637D01*
X277004Y284386D01*
G37*
%LPD*%
%LPC*%
G36*
X517707Y264534D02*
X517707Y264534D01*
X518160Y265931D01*
X518937Y267455D01*
X519942Y268839D01*
X521151Y270048D01*
X522535Y271053D01*
X524059Y271830D01*
X525456Y272283D01*
X525456Y264534D01*
X517707Y264534D01*
G37*
%LPD*%
%LPC*%
G36*
X378604Y284386D02*
X378604Y284386D01*
X386353Y284386D01*
X385900Y282989D01*
X385123Y281465D01*
X384118Y280081D01*
X382909Y278872D01*
X381525Y277867D01*
X380001Y277090D01*
X378604Y276637D01*
X378604Y284386D01*
G37*
%LPD*%
%LPC*%
G36*
X454804Y284386D02*
X454804Y284386D01*
X462553Y284386D01*
X462100Y282989D01*
X461323Y281465D01*
X460318Y280081D01*
X459109Y278872D01*
X457725Y277867D01*
X456201Y277090D01*
X454804Y276637D01*
X454804Y284386D01*
G37*
%LPD*%
%LPC*%
G36*
X695507Y264534D02*
X695507Y264534D01*
X695960Y265931D01*
X696737Y267455D01*
X697742Y268839D01*
X698951Y270048D01*
X700335Y271053D01*
X701859Y271830D01*
X703256Y272283D01*
X703256Y264534D01*
X695507Y264534D01*
G37*
%LPD*%
%LPC*%
G36*
X314507Y264534D02*
X314507Y264534D01*
X314960Y265931D01*
X315737Y267455D01*
X316742Y268839D01*
X317951Y270048D01*
X319335Y271053D01*
X320859Y271830D01*
X322256Y272283D01*
X322256Y264534D01*
X314507Y264534D01*
G37*
%LPD*%
%LPC*%
G36*
X327804Y258986D02*
X327804Y258986D01*
X335553Y258986D01*
X335100Y257589D01*
X334323Y256065D01*
X333318Y254681D01*
X332109Y253472D01*
X330725Y252467D01*
X329201Y251690D01*
X327804Y251237D01*
X327804Y258986D01*
G37*
%LPD*%
%LPC*%
G36*
X701859Y251690D02*
X701859Y251690D01*
X700335Y252467D01*
X698951Y253472D01*
X697742Y254681D01*
X696737Y256065D01*
X695960Y257589D01*
X695507Y258986D01*
X703256Y258986D01*
X703256Y251237D01*
X701859Y251690D01*
G37*
%LPD*%
%LPC*%
G36*
X625659Y277090D02*
X625659Y277090D01*
X624135Y277867D01*
X622751Y278872D01*
X621542Y280081D01*
X620537Y281465D01*
X619760Y282989D01*
X619307Y284386D01*
X627056Y284386D01*
X627056Y276637D01*
X625659Y277090D01*
G37*
%LPD*%
%LPC*%
G36*
X524059Y251690D02*
X524059Y251690D01*
X522535Y252467D01*
X521151Y253472D01*
X519942Y254681D01*
X518937Y256065D01*
X518160Y257589D01*
X517707Y258986D01*
X525456Y258986D01*
X525456Y251237D01*
X524059Y251690D01*
G37*
%LPD*%
%LPC*%
G36*
X320859Y251690D02*
X320859Y251690D01*
X319335Y252467D01*
X317951Y253472D01*
X316742Y254681D01*
X315737Y256065D01*
X314960Y257589D01*
X314507Y258986D01*
X322256Y258986D01*
X322256Y251237D01*
X320859Y251690D01*
G37*
%LPD*%
%LPC*%
G36*
X371659Y277090D02*
X371659Y277090D01*
X370135Y277867D01*
X368751Y278872D01*
X367542Y280081D01*
X366537Y281465D01*
X365760Y282989D01*
X365307Y284386D01*
X373056Y284386D01*
X373056Y276637D01*
X371659Y277090D01*
G37*
%LPD*%
%LPC*%
G36*
X447859Y277090D02*
X447859Y277090D01*
X446335Y277867D01*
X444951Y278872D01*
X443742Y280081D01*
X442737Y281465D01*
X441960Y282989D01*
X441507Y284386D01*
X449256Y284386D01*
X449256Y276637D01*
X447859Y277090D01*
G37*
%LPD*%
%LPC*%
G36*
X270059Y277090D02*
X270059Y277090D01*
X268535Y277867D01*
X267151Y278872D01*
X265942Y280081D01*
X264937Y281465D01*
X264160Y282989D01*
X263707Y284386D01*
X271456Y284386D01*
X271456Y276637D01*
X270059Y277090D01*
G37*
%LPD*%
%LPC*%
G36*
X574859Y277090D02*
X574859Y277090D01*
X573335Y277867D01*
X571951Y278872D01*
X570742Y280081D01*
X569737Y281465D01*
X568960Y282989D01*
X568507Y284386D01*
X576256Y284386D01*
X576256Y276637D01*
X574859Y277090D01*
G37*
%LPD*%
%LPC*%
G36*
X205699Y585519D02*
X205699Y585519D01*
X205699Y592807D01*
X207070Y592362D01*
X208484Y591642D01*
X209767Y590709D01*
X210889Y589587D01*
X211822Y588304D01*
X212542Y586890D01*
X212987Y585519D01*
X205699Y585519D01*
G37*
%LPD*%
%LPC*%
G36*
X205699Y580521D02*
X205699Y580521D01*
X212987Y580521D01*
X212542Y579150D01*
X211822Y577736D01*
X210889Y576453D01*
X209767Y575331D01*
X208484Y574398D01*
X207070Y573678D01*
X205699Y573233D01*
X205699Y580521D01*
G37*
%LPD*%
%LPC*%
G36*
X179831Y474471D02*
X179831Y474471D01*
X179831Y481585D01*
X181588Y481585D01*
X186945Y476228D01*
X186945Y474471D01*
X179831Y474471D01*
G37*
%LPD*%
%LPC*%
G36*
X235711Y652271D02*
X235711Y652271D01*
X235711Y659385D01*
X237468Y659385D01*
X242825Y654028D01*
X242825Y652271D01*
X235711Y652271D01*
G37*
%LPD*%
%LPC*%
G36*
X168655Y474471D02*
X168655Y474471D01*
X168655Y476228D01*
X174012Y481585D01*
X175769Y481585D01*
X175769Y474471D01*
X168655Y474471D01*
G37*
%LPD*%
%LPC*%
G36*
X224535Y652271D02*
X224535Y652271D01*
X224535Y654028D01*
X229892Y659385D01*
X231649Y659385D01*
X231649Y652271D01*
X224535Y652271D01*
G37*
%LPD*%
%LPC*%
G36*
X179831Y463295D02*
X179831Y463295D01*
X179831Y470409D01*
X186945Y470409D01*
X186945Y468652D01*
X181588Y463295D01*
X179831Y463295D01*
G37*
%LPD*%
%LPC*%
G36*
X235711Y641095D02*
X235711Y641095D01*
X235711Y648209D01*
X242825Y648209D01*
X242825Y646452D01*
X237468Y641095D01*
X235711Y641095D01*
G37*
%LPD*%
%LPC*%
G36*
X174012Y463295D02*
X174012Y463295D01*
X168655Y468652D01*
X168655Y470409D01*
X175769Y470409D01*
X175769Y463295D01*
X174012Y463295D01*
G37*
%LPD*%
%LPC*%
G36*
X229892Y641095D02*
X229892Y641095D01*
X224535Y646452D01*
X224535Y648209D01*
X231649Y648209D01*
X231649Y641095D01*
X229892Y641095D01*
G37*
%LPD*%
%LPC*%
G36*
X560831Y704011D02*
X560831Y704011D01*
X560831Y710498D01*
X560844Y710496D01*
X562151Y710071D01*
X563376Y709447D01*
X564488Y708639D01*
X565459Y707668D01*
X566267Y706556D01*
X566891Y705331D01*
X567316Y704024D01*
X567318Y704011D01*
X560831Y704011D01*
G37*
%LPD*%
%LPC*%
G36*
X550282Y704011D02*
X550282Y704011D01*
X550284Y704024D01*
X550709Y705331D01*
X551333Y706556D01*
X552141Y707668D01*
X553112Y708639D01*
X554224Y709447D01*
X555449Y710071D01*
X556756Y710496D01*
X556769Y710498D01*
X556769Y704011D01*
X550282Y704011D01*
G37*
%LPD*%
%LPC*%
G36*
X560831Y699949D02*
X560831Y699949D01*
X567318Y699949D01*
X567316Y699936D01*
X566891Y698629D01*
X566267Y697404D01*
X565459Y696292D01*
X564488Y695321D01*
X563376Y694513D01*
X562151Y693889D01*
X560844Y693464D01*
X560831Y693462D01*
X560831Y699949D01*
G37*
%LPD*%
%LPC*%
G36*
X556756Y693464D02*
X556756Y693464D01*
X555449Y693889D01*
X554224Y694513D01*
X553112Y695321D01*
X552141Y696292D01*
X551333Y697404D01*
X550709Y698629D01*
X550284Y699936D01*
X550282Y699949D01*
X556769Y699949D01*
X556769Y693462D01*
X556756Y693464D01*
G37*
%LPD*%
%LPC*%
G36*
X172719Y837399D02*
X172719Y837399D01*
X172719Y837401D01*
X172721Y837401D01*
X172721Y837399D01*
X172719Y837399D01*
G37*
%LPD*%
D10*
X223430Y261760D03*
D11*
X223430Y287160D03*
X248830Y261760D03*
X248830Y287160D03*
X274230Y261760D03*
X274230Y287160D03*
X299630Y261760D03*
X299630Y287160D03*
X325030Y261760D03*
X325030Y287160D03*
X350430Y261760D03*
X350430Y287160D03*
X375830Y261760D03*
X375830Y287160D03*
X401230Y261760D03*
X401230Y287160D03*
X426630Y261760D03*
X426630Y287160D03*
X452030Y261760D03*
X452030Y287160D03*
X477430Y261760D03*
X477430Y287160D03*
X502830Y261760D03*
X502830Y287160D03*
X528230Y261760D03*
X528230Y287160D03*
X553630Y261760D03*
X553630Y287160D03*
X579030Y261760D03*
X579030Y287160D03*
X604430Y261760D03*
X604430Y287160D03*
X629830Y261760D03*
X629830Y287160D03*
X655230Y261760D03*
X655230Y287160D03*
X680630Y261760D03*
X680630Y287160D03*
X706030Y261760D03*
X706030Y287160D03*
D10*
X706030Y236360D03*
D11*
X680630Y236360D03*
D10*
X680630Y210960D03*
D11*
X706030Y210960D03*
D12*
X854456Y68580D02*
X867664Y68580D01*
X867664Y93980D02*
X854456Y93980D01*
X854456Y119380D02*
X867664Y119380D01*
X867664Y144780D02*
X854456Y144780D01*
X854456Y170180D02*
X867664Y170180D01*
X867664Y241300D02*
X854456Y241300D01*
X854456Y266700D02*
X867664Y266700D01*
X867664Y292100D02*
X854456Y292100D01*
X854456Y317500D02*
X867664Y317500D01*
X867664Y342900D02*
X854456Y342900D01*
X854456Y408940D02*
X867664Y408940D01*
X867664Y434340D02*
X854456Y434340D01*
X854456Y459740D02*
X867664Y459740D01*
X867664Y485140D02*
X854456Y485140D01*
X854456Y510540D02*
X867664Y510540D01*
X867664Y581660D02*
X854456Y581660D01*
X854456Y607060D02*
X867664Y607060D01*
X867664Y632460D02*
X854456Y632460D01*
X854456Y657860D02*
X867664Y657860D01*
X867664Y683260D02*
X854456Y683260D01*
X854456Y749300D02*
X867664Y749300D01*
X867664Y774700D02*
X854456Y774700D01*
X854456Y800100D02*
X867664Y800100D01*
X867664Y825500D02*
X854456Y825500D01*
X854456Y850900D02*
X867664Y850900D01*
D13*
X406400Y701980D03*
D14*
X431800Y701980D03*
X457200Y701980D03*
X482600Y701980D03*
X508000Y701980D03*
X533400Y701980D03*
X558800Y701980D03*
X558800Y781380D03*
X533400Y781380D03*
X508000Y781380D03*
X482600Y781380D03*
X457200Y781380D03*
X431800Y781380D03*
X406400Y781380D03*
D15*
X177800Y583020D03*
X203200Y583020D03*
X228600Y583020D03*
D16*
X172720Y777400D03*
X172720Y837400D03*
X125720Y807400D03*
D17*
X341160Y836667D02*
X341160Y854574D01*
X391160Y854574D02*
X391160Y836667D01*
X441160Y836667D02*
X441160Y854574D01*
X498640Y854574D02*
X498640Y836667D01*
X548640Y836667D02*
X548640Y854574D01*
X598640Y854574D02*
X598640Y836667D01*
D18*
X182880Y650240D03*
X233680Y650240D03*
D19*
X228600Y472440D03*
X177800Y472440D03*
D20*
X172720Y711200D03*
D21*
X227720Y711200D03*
D22*
X66040Y467360D03*
X66040Y492760D03*
X66040Y518160D03*
X66040Y543560D03*
X111760Y690880D03*
X111760Y716280D03*
D23*
X111760Y660400D03*
X111760Y558800D03*
D22*
X66040Y426720D03*
X66040Y401320D03*
X66040Y375920D03*
X66040Y350520D03*
X66040Y325120D03*
X66040Y299720D03*
D24*
X822960Y683260D03*
X822960Y510540D03*
X822960Y342900D03*
X822960Y170180D03*
D25*
X861060Y170180D01*
D24*
X822960Y848360D03*
D25*
X822960Y510540D02*
X861060Y510540D01*
X861060Y683260D02*
X822960Y683260D01*
X825500Y850900D02*
X861060Y850900D01*
X825500Y850900D02*
X822960Y848360D01*
X822960Y342900D02*
X861060Y342900D01*
X655230Y261760D02*
X655230Y238850D01*
X655320Y238760D01*
D24*
X655320Y238760D03*
D25*
X706030Y363130D02*
X800100Y457200D01*
X800100Y459740D01*
X800100Y457200D02*
X800100Y284480D01*
X800100Y119380D01*
X861060Y119380D01*
X800100Y459740D02*
X800100Y629920D01*
X800100Y800100D01*
X706030Y363130D02*
X706030Y287160D01*
X800100Y459740D02*
X861060Y459740D01*
X861060Y632460D02*
X802640Y632460D01*
X800100Y629920D01*
X800100Y800100D02*
X861060Y800100D01*
X861060Y292100D02*
X807720Y292100D01*
X800100Y284480D01*
D24*
X822960Y144780D03*
D25*
X861060Y144780D01*
X604520Y261670D02*
X604430Y261760D01*
X604520Y261670D02*
X604520Y238760D01*
D24*
X604520Y238760D03*
X810260Y317500D03*
D25*
X861060Y317500D01*
X655320Y287250D02*
X655230Y287160D01*
X655320Y287250D02*
X655320Y309880D01*
D24*
X655320Y309880D03*
X810260Y485140D03*
D25*
X861060Y485140D01*
D24*
X604520Y309880D03*
D25*
X604430Y309790D02*
X604430Y287160D01*
X604430Y309790D02*
X604520Y309880D01*
D24*
X810260Y657860D03*
D25*
X861060Y657860D01*
X528320Y287250D02*
X528230Y287160D01*
X528320Y287250D02*
X528320Y309880D01*
D24*
X528320Y309880D03*
X810260Y825500D03*
D25*
X861060Y825500D01*
D24*
X426720Y309880D03*
D25*
X426630Y309790D02*
X426630Y287160D01*
X426630Y309790D02*
X426720Y309880D01*
D24*
X838200Y774700D03*
X838200Y434340D03*
X838200Y266700D03*
X838200Y93980D03*
D25*
X861060Y93980D01*
X861060Y266700D02*
X838200Y266700D01*
X838200Y434340D02*
X861060Y434340D01*
D24*
X838200Y607060D03*
D25*
X838200Y774700D02*
X861060Y774700D01*
X861060Y607060D02*
X838200Y607060D01*
X223430Y261760D02*
X223430Y238850D01*
X223520Y238760D01*
D24*
X223520Y238760D03*
X426720Y238760D03*
D25*
X426720Y261670D02*
X426630Y261760D01*
X426720Y261670D02*
X426720Y238760D01*
X223520Y238760D02*
X218440Y238760D01*
X213360Y233680D01*
X213360Y213360D01*
X218440Y208280D01*
X223520Y208280D01*
D24*
X223520Y208280D03*
X86360Y426720D03*
D25*
X66040Y426720D01*
X548640Y152400D02*
X629830Y233590D01*
X548640Y152400D02*
X218440Y152400D01*
X629830Y233590D02*
X629830Y261760D01*
X431800Y680720D02*
X431800Y701980D01*
D24*
X431800Y680720D03*
D25*
X203200Y309880D02*
X203200Y167640D01*
X218440Y152400D01*
D24*
X203200Y309880D03*
D25*
X508000Y680720D02*
X508000Y701980D01*
D24*
X508000Y680720D03*
D25*
X350520Y287250D02*
X350430Y287160D01*
X350520Y287250D02*
X350520Y309880D01*
D24*
X350520Y309880D03*
D25*
X406400Y701980D02*
X406400Y756920D01*
X406400Y781380D01*
X427660Y756920D02*
X482600Y701980D01*
X427660Y756920D02*
X406400Y756920D01*
D26*
X228600Y583020D02*
X228600Y563880D01*
X228600Y472440D01*
X228600Y518160D01*
X228600Y472440D02*
X228600Y292330D01*
X223430Y287160D01*
X248830Y287160D01*
D25*
X232740Y559740D02*
X228600Y563880D01*
X223430Y292420D02*
X223430Y287160D01*
X232740Y559740D02*
X112700Y559740D01*
X111760Y558800D01*
X106680Y518160D02*
X66040Y518160D01*
X112700Y524180D02*
X112700Y559740D01*
X112700Y524180D02*
X106680Y518160D01*
X406400Y680720D02*
X406400Y701980D01*
D24*
X406400Y680720D03*
X228600Y599440D03*
D25*
X228600Y583020D01*
X441960Y726440D02*
X457200Y711200D01*
X457200Y701980D01*
D24*
X441960Y726440D03*
X391160Y807720D03*
D25*
X391160Y845620D01*
D26*
X227720Y711200D02*
X227720Y695080D01*
X182880Y650240D01*
X182880Y588100D01*
X177800Y583020D01*
X227720Y711200D02*
X253120Y736600D01*
X254000Y736600D01*
D24*
X254000Y736600D03*
X340360Y883920D03*
X497840Y883920D03*
D26*
X340360Y883920D02*
X340360Y846420D01*
X341160Y845620D01*
X497840Y846420D02*
X497840Y883920D01*
X497840Y846420D02*
X498640Y845620D01*
D25*
X533400Y721360D02*
X533400Y701980D01*
D24*
X533400Y721360D03*
D25*
X548640Y845620D02*
X551380Y845620D01*
D24*
X548640Y807720D03*
D25*
X548640Y845620D01*
D26*
X172720Y777400D02*
X172720Y711200D01*
D25*
X274230Y261760D02*
X274230Y238670D01*
X86360Y467360D02*
X66040Y467360D01*
D24*
X86360Y467360D03*
X223520Y218440D03*
D25*
X254000Y218440D02*
X274230Y238670D01*
X254000Y218440D02*
X223520Y218440D01*
X248830Y243750D02*
X248830Y261760D01*
X248830Y243750D02*
X233680Y228600D01*
X223520Y228600D01*
D24*
X223520Y228600D03*
D25*
X86360Y492760D02*
X66040Y492760D01*
D24*
X86360Y492760D03*
D25*
X111760Y660400D02*
X111760Y690880D01*
X350430Y261760D02*
X350430Y238670D01*
X299720Y187960D01*
X223520Y187960D01*
D24*
X223520Y187960D03*
X86360Y375920D03*
D25*
X66040Y375920D01*
X375830Y261760D02*
X375830Y243750D01*
X309880Y177800D01*
X223520Y177800D01*
D24*
X223520Y177800D03*
X86360Y350520D03*
D25*
X66040Y350520D01*
X299630Y261760D02*
X299630Y238670D01*
X259080Y198120D01*
X223520Y198120D01*
D24*
X223520Y198120D03*
X86360Y401320D03*
D25*
X66040Y401320D01*
X223520Y167640D02*
X320656Y167640D01*
X401230Y248214D02*
X401230Y261760D01*
X401230Y248214D02*
X320656Y167640D01*
D24*
X223520Y167640D03*
X86360Y325120D03*
D25*
X66040Y325120D01*
M02*
