G04 EAGLE Gerber RS-274X export*
G75*
%MOMM*%
%FSLAX34Y34*%
%LPD*%
%INSoldermask Bottom*%
%IPPOS*%
%AMOC8*
5,1,8,0,0,1.08239X$1,22.5*%
G01*
%ADD10C,2.997200*%
%ADD11R,1.868200X1.868200*%
%ADD12C,1.868200*%
%ADD13C,3.003200*%
%ADD14C,1.524000*%
%ADD15R,1.441200X1.441200*%
%ADD16C,1.441200*%
%ADD17C,1.711200*%
%ADD18C,4.521200*%
%ADD19C,1.993900*%
%ADD20P,1.649562X8X22.500000*%
%ADD21P,1.649562X8X202.500000*%
%ADD22R,2.678200X2.678200*%
%ADD23C,2.678200*%
%ADD24C,2.082800*%
%ADD25P,1.649562X8X292.500000*%
%ADD26C,0.959600*%


D10*
X25400Y25400D03*
X889000Y25400D03*
X25400Y889000D03*
X889000Y889000D03*
D11*
X223430Y261760D03*
D12*
X223430Y287160D03*
X248830Y261760D03*
X248830Y287160D03*
X274230Y261760D03*
X274230Y287160D03*
X299630Y261760D03*
X299630Y287160D03*
X325030Y261760D03*
X325030Y287160D03*
X350430Y261760D03*
X350430Y287160D03*
X375830Y261760D03*
X375830Y287160D03*
X401230Y261760D03*
X401230Y287160D03*
X426630Y261760D03*
X426630Y287160D03*
X452030Y261760D03*
X452030Y287160D03*
X477430Y261760D03*
X477430Y287160D03*
X502830Y261760D03*
X502830Y287160D03*
X528230Y261760D03*
X528230Y287160D03*
X553630Y261760D03*
X553630Y287160D03*
X579030Y261760D03*
X579030Y287160D03*
X604430Y261760D03*
X604430Y287160D03*
X629830Y261760D03*
X629830Y287160D03*
X655230Y261760D03*
X655230Y287160D03*
X680630Y261760D03*
X680630Y287160D03*
X706030Y261760D03*
X706030Y287160D03*
D11*
X706030Y236360D03*
D12*
X680630Y236360D03*
D11*
X680630Y210960D03*
D12*
X706030Y210960D03*
D13*
X174730Y277560D03*
X174730Y47560D03*
X754730Y47560D03*
X754730Y277560D03*
D14*
X854456Y68580D02*
X867664Y68580D01*
X867664Y93980D02*
X854456Y93980D01*
X854456Y119380D02*
X867664Y119380D01*
X867664Y144780D02*
X854456Y144780D01*
X854456Y170180D02*
X867664Y170180D01*
X867664Y241300D02*
X854456Y241300D01*
X854456Y266700D02*
X867664Y266700D01*
X867664Y292100D02*
X854456Y292100D01*
X854456Y317500D02*
X867664Y317500D01*
X867664Y342900D02*
X854456Y342900D01*
X854456Y408940D02*
X867664Y408940D01*
X867664Y434340D02*
X854456Y434340D01*
X854456Y459740D02*
X867664Y459740D01*
X867664Y485140D02*
X854456Y485140D01*
X854456Y510540D02*
X867664Y510540D01*
X867664Y581660D02*
X854456Y581660D01*
X854456Y607060D02*
X867664Y607060D01*
X867664Y632460D02*
X854456Y632460D01*
X854456Y657860D02*
X867664Y657860D01*
X867664Y683260D02*
X854456Y683260D01*
X854456Y749300D02*
X867664Y749300D01*
X867664Y774700D02*
X854456Y774700D01*
X854456Y800100D02*
X867664Y800100D01*
X867664Y825500D02*
X854456Y825500D01*
X854456Y850900D02*
X867664Y850900D01*
D15*
X406400Y701980D03*
D16*
X431800Y701980D03*
X457200Y701980D03*
X482600Y701980D03*
X508000Y701980D03*
X533400Y701980D03*
X558800Y701980D03*
X558800Y781380D03*
X533400Y781380D03*
X508000Y781380D03*
X482600Y781380D03*
X457200Y781380D03*
X431800Y781380D03*
X406400Y781380D03*
D17*
X177800Y583020D03*
X203200Y583020D03*
X228600Y583020D03*
D18*
X172720Y777400D03*
X172720Y837400D03*
X125720Y807400D03*
D19*
X341160Y836667D02*
X341160Y854574D01*
X391160Y854574D02*
X391160Y836667D01*
X441160Y836667D02*
X441160Y854574D01*
X498640Y854574D02*
X498640Y836667D01*
X548640Y836667D02*
X548640Y854574D01*
X598640Y854574D02*
X598640Y836667D01*
D20*
X182880Y650240D03*
X233680Y650240D03*
D21*
X228600Y472440D03*
X177800Y472440D03*
D22*
X172720Y711200D03*
D23*
X227720Y711200D03*
D24*
X66040Y467360D03*
X66040Y492760D03*
X66040Y518160D03*
X66040Y543560D03*
X111760Y690880D03*
X111760Y716280D03*
D25*
X111760Y660400D03*
X111760Y558800D03*
D24*
X66040Y426720D03*
X66040Y401320D03*
X66040Y375920D03*
X66040Y350520D03*
X66040Y325120D03*
X66040Y299720D03*
D26*
X822960Y683260D03*
X822960Y510540D03*
X822960Y342900D03*
X822960Y170180D03*
X822960Y848360D03*
X655320Y238760D03*
X822960Y144780D03*
X604520Y238760D03*
X810260Y317500D03*
X655320Y309880D03*
X810260Y485140D03*
X604520Y309880D03*
X810260Y657860D03*
X528320Y309880D03*
X810260Y825500D03*
X426720Y309880D03*
X838200Y774700D03*
X838200Y434340D03*
X838200Y266700D03*
X838200Y93980D03*
X838200Y607060D03*
X223520Y238760D03*
X426720Y238760D03*
X223520Y208280D03*
X86360Y426720D03*
X431800Y680720D03*
X203200Y309880D03*
X508000Y680720D03*
X350520Y309880D03*
X406400Y680720D03*
X228600Y599440D03*
X441960Y726440D03*
X391160Y807720D03*
X254000Y736600D03*
X340360Y883920D03*
X497840Y883920D03*
X533400Y721360D03*
X548640Y807720D03*
X86360Y467360D03*
X223520Y218440D03*
X223520Y228600D03*
X86360Y492760D03*
X223520Y187960D03*
X86360Y375920D03*
X223520Y177800D03*
X86360Y350520D03*
X223520Y198120D03*
X86360Y401320D03*
X223520Y167640D03*
X86360Y325120D03*
M02*
